<?xml version="1.0" encoding="UTF-8"?>
<svg width="593px" height="494px" viewBox="0 0 593 494" version="1.1" xmlns="http://www.w3.org/2000/svg" xmlns:xlink="http://www.w3.org/1999/xlink">
    <!-- Generator: Sketch 63.1 (92452) - https://sketch.com -->
    <title>Illustration M</title>
    <desc>Created with Sketch.</desc>
    <defs>
        <path d="M4.33026,178.02576 C-11.15334,257.4 23.22144,390.5055 137.77731,463.88529 L137.77731,463.88529 C231.99462,524.23965 301.13424,484.23573 310.25808,423.05967 L310.25808,423.05967 C312.22719,409.85505 368.28495,329.89077 368.28495,247.22181 L368.28495,247.22181 C368.28495,185.46957 371.2995,59.35743 286.05852,17.72397 L286.05852,17.72397 C263.72907,6.81714 236.11005,0.674189522 206.87436,0.674189522 L206.87436,0.674189522 C124.50834,0.67914 29.40696,49.47228 4.33026,178.02576" id="path-1"></path>
        <path d="M4.33026,178.02576 C-11.15334,257.4 23.22144,390.5055 137.77731,463.88529 L137.77731,463.88529 C231.99462,524.23965 301.13424,484.23573 310.25808,423.05967 L310.25808,423.05967 C312.22719,409.85505 368.28495,329.89077 368.28495,247.22181 L368.28495,247.22181 C368.28495,185.46957 371.2995,59.35743 286.05852,17.72397 L286.05852,17.72397 C263.72907,6.81714 236.11005,0.674189522 206.87436,0.674189522 L206.87436,0.674189522 C124.50834,0.67914 29.40696,49.47228 4.33026,178.02576 L4.33026,178.02576 Z" id="path-3"></path>
        <path d="M4.33026,178.02576 C-11.15334,257.4 23.22144,390.5055 137.77731,463.88529 L137.77731,463.88529 C231.99462,524.23965 301.13424,484.23573 310.25808,423.05967 L310.25808,423.05967 C312.22719,409.85505 368.28495,329.89077 368.28495,247.22181 L368.28495,247.22181 C368.28495,185.46957 371.2995,59.35743 286.05852,17.72397 L286.05852,17.72397 C263.72907,6.81714 236.11005,0.674189522 206.87436,0.674189522 L206.87436,0.674189522 C124.50834,0.67914 29.40696,49.47228 4.33026,178.02576 L4.33026,178.02576 Z" id="path-5"></path>
        <path d="M4.33026,178.02576 C-11.15334,257.4 23.22144,390.5055 137.77731,463.88529 L137.77731,463.88529 C231.99462,524.23965 301.13424,484.23573 310.25808,423.05967 L310.25808,423.05967 C312.22719,409.85505 368.28495,329.89077 368.28495,247.22181 L368.28495,247.22181 C368.28495,185.46957 371.2995,59.35743 286.05852,17.72397 L286.05852,17.72397 C263.72907,6.81714 236.11005,0.674189522 206.87436,0.674189522 L206.87436,0.674189522 C124.50834,0.67914 29.40696,49.47228 4.33026,178.02576 L4.33026,178.02576 Z" id="path-7"></path>
        <path d="M4.33026,178.02576 C-11.15334,257.4 23.22144,390.5055 137.77731,463.88529 L137.77731,463.88529 C231.99462,524.23965 301.13424,484.23573 310.25808,423.05967 L310.25808,423.05967 C312.22719,409.85505 368.28495,329.89077 368.28495,247.22181 L368.28495,247.22181 C368.28495,185.46957 371.2995,59.35743 286.05852,17.72397 L286.05852,17.72397 C263.72907,6.81714 236.11005,0.674189522 206.87436,0.674189522 L206.87436,0.674189522 C124.50834,0.67914 29.40696,49.47228 4.33026,178.02576 L4.33026,178.02576 Z" id="path-9"></path>
        <path d="M4.33026,178.02576 C-11.15334,257.4 23.22144,390.5055 137.77731,463.88529 L137.77731,463.88529 C231.99462,524.23965 301.13424,484.23573 310.25808,423.05967 L310.25808,423.05967 C312.22719,409.85505 368.28495,329.89077 368.28495,247.22181 L368.28495,247.22181 C368.28495,185.46957 371.2995,59.35743 286.05852,17.72397 L286.05852,17.72397 C263.72907,6.81714 236.11005,0.674189522 206.87436,0.674189522 L206.87436,0.674189522 C124.50834,0.67914 29.40696,49.47228 4.33026,178.02576" id="path-11"></path>
        <path d="M4.33026,178.02576 C-11.15334,257.4 23.22144,390.5055 137.77731,463.88529 L137.77731,463.88529 C231.99462,524.23965 301.13424,484.23573 310.25808,423.05967 L310.25808,423.05967 C312.22719,409.85505 368.28495,329.89077 368.28495,247.22181 L368.28495,247.22181 C368.28495,185.46957 371.2995,59.35743 286.05852,17.72397 L286.05852,17.72397 C263.72907,6.81714 236.11005,0.674189522 206.87436,0.674189522 L206.87436,0.674189522 C124.50834,0.67914 29.40696,49.47228 4.33026,178.02576" id="path-13"></path>
        <path d="M4.33026,178.02576 C-11.15334,257.4 23.22144,390.5055 137.77731,463.88529 L137.77731,463.88529 C231.99462,524.23965 301.13424,484.23573 310.25808,423.05967 L310.25808,423.05967 C312.22719,409.85505 368.28495,329.89077 368.28495,247.22181 L368.28495,247.22181 C368.28495,185.46957 371.2995,59.35743 286.05852,17.72397 L286.05852,17.72397 C263.72907,6.81714 236.11005,0.674189522 206.87436,0.674189522 L206.87436,0.674189522 C124.50834,0.67914 29.40696,49.47228 4.33026,178.02576" id="path-15"></path>
        <path d="M4.33026,178.02576 C-11.15334,257.4 23.22144,390.5055 137.77731,463.88529 L137.77731,463.88529 C231.99462,524.23965 301.13424,484.23573 310.25808,423.05967 L310.25808,423.05967 C312.22719,409.85505 368.28495,329.89077 368.28495,247.22181 L368.28495,247.22181 C368.28495,185.46957 371.2995,59.35743 286.05852,17.72397 L286.05852,17.72397 C263.72907,6.81714 236.11005,0.674189522 206.87436,0.674189522 L206.87436,0.674189522 C124.50834,0.67914 29.40696,49.47228 4.33026,178.02576 L4.33026,178.02576 Z" id="path-17"></path>
        <path d="M4.33026,178.02576 C-11.15334,257.4 23.22144,390.5055 137.77731,463.88529 L137.77731,463.88529 C231.99462,524.23965 301.13424,484.23573 310.25808,423.05967 L310.25808,423.05967 C312.22719,409.85505 368.28495,329.89077 368.28495,247.22181 L368.28495,247.22181 C368.28495,185.46957 371.2995,59.35743 286.05852,17.72397 L286.05852,17.72397 C263.72907,6.81714 236.11005,0.674189522 206.87436,0.674189522 L206.87436,0.674189522 C124.50834,0.67914 29.40696,49.47228 4.33026,178.02576 L4.33026,178.02576 Z" id="path-19"></path>
        <path d="M4.33026,178.02576 C-11.15334,257.4 23.22144,390.5055 137.77731,463.88529 L137.77731,463.88529 C231.99462,524.23965 301.13424,484.23573 310.25808,423.05967 L310.25808,423.05967 C312.22719,409.85505 368.28495,329.89077 368.28495,247.22181 L368.28495,247.22181 C368.28495,185.46957 371.2995,59.35743 286.05852,17.72397 L286.05852,17.72397 C263.72907,6.81714 236.11005,0.674189522 206.87436,0.674189522 L206.87436,0.674189522 C124.50834,0.67914 29.40696,49.47228 4.33026,178.02576" id="path-21"></path>
        <path d="M4.33026,178.02576 C-11.15334,257.4 23.22144,390.5055 137.77731,463.88529 L137.77731,463.88529 C231.99462,524.23965 301.13424,484.23573 310.25808,423.05967 L310.25808,423.05967 C312.22719,409.85505 368.28495,329.89077 368.28495,247.22181 L368.28495,247.22181 C368.28495,185.46957 371.2995,59.35743 286.05852,17.72397 L286.05852,17.72397 C263.72907,6.81714 236.11005,0.674189522 206.87436,0.674189522 L206.87436,0.674189522 C124.50834,0.67914 29.40696,49.47228 4.33026,178.02576" id="path-23"></path>
        <path d="M4.33026,178.02576 C-11.15334,257.4 23.22144,390.5055 137.77731,463.88529 L137.77731,463.88529 C231.99462,524.23965 301.13424,484.23573 310.25808,423.05967 L310.25808,423.05967 C312.22719,409.85505 368.28495,329.89077 368.28495,247.22181 L368.28495,247.22181 C368.28495,185.46957 371.2995,59.35743 286.05852,17.72397 L286.05852,17.72397 C263.72907,6.81714 236.11005,0.674189522 206.87436,0.674189522 L206.87436,0.674189522 C124.50834,0.67914 29.40696,49.47228 4.33026,178.02576 L4.33026,178.02576 Z" id="path-25"></path>
        <path d="M4.33026,178.02576 C-11.15334,257.4 23.22144,390.5055 137.77731,463.88529 L137.77731,463.88529 C231.99462,524.23965 301.13424,484.23573 310.25808,423.05967 L310.25808,423.05967 C312.22719,409.85505 368.28495,329.89077 368.28495,247.22181 L368.28495,247.22181 C368.28495,185.46957 371.2995,59.35743 286.05852,17.72397 L286.05852,17.72397 C263.72907,6.81714 236.11005,0.674189522 206.87436,0.674189522 L206.87436,0.674189522 C124.50834,0.67914 29.40696,49.47228 4.33026,178.02576 L4.33026,178.02576 Z" id="path-27"></path>
        <path d="M4.33026,178.02576 C-11.15334,257.4 23.22144,390.5055 137.77731,463.88529 L137.77731,463.88529 C231.99462,524.23965 301.13424,484.23573 310.25808,423.05967 L310.25808,423.05967 C312.22719,409.85505 368.28495,329.89077 368.28495,247.22181 L368.28495,247.22181 C368.28495,185.46957 371.2995,59.35743 286.05852,17.72397 L286.05852,17.72397 C263.72907,6.81714 236.11005,0.674189522 206.87436,0.674189522 L206.87436,0.674189522 C124.50834,0.67914 29.40696,49.47228 4.33026,178.02576 L4.33026,178.02576 Z" id="path-29"></path>
        <path d="M4.33026,178.02576 C-11.15334,257.4 23.22144,390.5055 137.77731,463.88529 L137.77731,463.88529 C231.99462,524.23965 301.13424,484.23573 310.25808,423.05967 L310.25808,423.05967 C312.22719,409.85505 368.28495,329.89077 368.28495,247.22181 L368.28495,247.22181 C368.28495,185.46957 371.2995,59.35743 286.05852,17.72397 L286.05852,17.72397 C263.72907,6.81714 236.11005,0.674189522 206.87436,0.674189522 L206.87436,0.674189522 C124.50834,0.67914 29.40696,49.47228 4.33026,178.02576 L4.33026,178.02576 Z" id="path-31"></path>
        <path d="M4.33026,178.02576 C-11.15334,257.4 23.22144,390.5055 137.77731,463.88529 L137.77731,463.88529 C231.99462,524.23965 301.13424,484.23573 310.25808,423.05967 L310.25808,423.05967 C312.22719,409.85505 368.28495,329.89077 368.28495,247.22181 L368.28495,247.22181 C368.28495,185.46957 371.2995,59.35743 286.05852,17.72397 L286.05852,17.72397 C263.72907,6.81714 236.11005,0.674189522 206.87436,0.674189522 L206.87436,0.674189522 C124.50834,0.67914 29.40696,49.47228 4.33026,178.02576 L4.33026,178.02576 Z" id="path-33"></path>
        <path d="M4.33026,178.02576 C-11.15334,257.4 23.22144,390.5055 137.77731,463.88529 L137.77731,463.88529 C231.99462,524.23965 301.13424,484.23573 310.25808,423.05967 L310.25808,423.05967 C312.22719,409.85505 368.28495,329.89077 368.28495,247.22181 L368.28495,247.22181 C368.28495,185.46957 371.2995,59.35743 286.05852,17.72397 L286.05852,17.72397 C263.72907,6.81714 236.11005,0.674189522 206.87436,0.674189522 L206.87436,0.674189522 C124.50834,0.67914 29.40696,49.47228 4.33026,178.02576" id="path-35"></path>
        <path d="M4.33026,178.02576 C-11.15334,257.4 23.22144,390.5055 137.77731,463.88529 L137.77731,463.88529 C231.99462,524.23965 301.13424,484.23573 310.25808,423.05967 L310.25808,423.05967 C312.22719,409.85505 368.28495,329.89077 368.28495,247.22181 L368.28495,247.22181 C368.28495,185.46957 371.2995,59.35743 286.05852,17.72397 L286.05852,17.72397 C263.72907,6.81714 236.11005,0.674189522 206.87436,0.674189522 L206.87436,0.674189522 C124.50834,0.67914 29.40696,49.47228 4.33026,178.02576" id="path-37"></path>
        <path d="M4.33026,178.02576 C-11.15334,257.4 23.22144,390.5055 137.77731,463.88529 L137.77731,463.88529 C231.99462,524.23965 301.13424,484.23573 310.25808,423.05967 L310.25808,423.05967 C312.22719,409.85505 368.28495,329.89077 368.28495,247.22181 L368.28495,247.22181 C368.28495,185.46957 371.2995,59.35743 286.05852,17.72397 L286.05852,17.72397 C263.72907,6.81714 236.11005,0.674189522 206.87436,0.674189522 L206.87436,0.674189522 C124.50834,0.67914 29.40696,49.47228 4.33026,178.02576" id="path-39"></path>
        <path d="M4.33026,178.02576 C-11.15334,257.4 23.22144,390.5055 137.77731,463.88529 L137.77731,463.88529 C231.99462,524.23965 301.13424,484.23573 310.25808,423.05967 L310.25808,423.05967 C312.22719,409.85505 368.28495,329.89077 368.28495,247.22181 L368.28495,247.22181 C368.28495,185.46957 371.2995,59.35743 286.05852,17.72397 L286.05852,17.72397 C263.72907,6.81714 236.11005,0.674189522 206.87436,0.674189522 L206.87436,0.674189522 C124.50834,0.67914 29.40696,49.47228 4.33026,178.02576 L4.33026,178.02576 Z" id="path-41"></path>
        <path d="M4.33026,178.02576 C-11.15334,257.4 23.22144,390.5055 137.77731,463.88529 L137.77731,463.88529 C231.99462,524.23965 301.13424,484.23573 310.25808,423.05967 L310.25808,423.05967 C312.22719,409.85505 368.28495,329.89077 368.28495,247.22181 L368.28495,247.22181 C368.28495,185.46957 371.2995,59.35743 286.05852,17.72397 L286.05852,17.72397 C263.72907,6.81714 236.11005,0.674189522 206.87436,0.674189522 L206.87436,0.674189522 C124.50834,0.67914 29.40696,49.47228 4.33026,178.02576 L4.33026,178.02576 Z" id="path-43"></path>
        <path d="M4.33026,178.02576 C-11.15334,257.4 23.22144,390.5055 137.77731,463.88529 L137.77731,463.88529 C231.99462,524.23965 301.13424,484.23573 310.25808,423.05967 L310.25808,423.05967 C312.22719,409.85505 368.28495,329.89077 368.28495,247.22181 L368.28495,247.22181 C368.28495,185.46957 371.2995,59.35743 286.05852,17.72397 L286.05852,17.72397 C263.72907,6.81714 236.11005,0.674189522 206.87436,0.674189522 L206.87436,0.674189522 C124.50834,0.67914 29.40696,49.47228 4.33026,178.02576" id="path-45"></path>
        <path d="M4.33026,178.02576 C-11.15334,257.4 23.22144,390.5055 137.77731,463.88529 L137.77731,463.88529 C231.99462,524.23965 301.13424,484.23573 310.25808,423.05967 L310.25808,423.05967 C312.22719,409.85505 368.28495,329.89077 368.28495,247.22181 L368.28495,247.22181 C368.28495,185.46957 371.2995,59.35743 286.05852,17.72397 L286.05852,17.72397 C263.72907,6.81714 236.11005,0.674189522 206.87436,0.674189522 L206.87436,0.674189522 C124.50834,0.67914 29.40696,49.47228 4.33026,178.02576" id="path-47"></path>
        <path d="M4.33026,178.02576 C-11.15334,257.4 23.22144,390.5055 137.77731,463.88529 L137.77731,463.88529 C231.99462,524.23965 301.13424,484.23573 310.25808,423.05967 L310.25808,423.05967 C312.22719,409.85505 368.28495,329.89077 368.28495,247.22181 L368.28495,247.22181 C368.28495,185.46957 371.2995,59.35743 286.05852,17.72397 L286.05852,17.72397 C263.72907,6.81714 236.11005,0.674189522 206.87436,0.674189522 L206.87436,0.674189522 C124.50834,0.67914 29.40696,49.47228 4.33026,178.02576" id="path-49"></path>
        <path d="M4.33026,178.02576 C-11.15334,257.4 23.22144,390.5055 137.77731,463.88529 L137.77731,463.88529 C231.99462,524.23965 301.13424,484.23573 310.25808,423.05967 L310.25808,423.05967 C312.22719,409.85505 368.28495,329.89077 368.28495,247.22181 L368.28495,247.22181 C368.28495,185.46957 371.2995,59.35743 286.05852,17.72397 L286.05852,17.72397 C263.72907,6.81714 236.11005,0.674189522 206.87436,0.674189522 L206.87436,0.674189522 C124.50834,0.67914 29.40696,49.47228 4.33026,178.02576" id="path-51"></path>
        <path d="M4.33026,178.02576 C-11.15334,257.4 23.22144,390.5055 137.77731,463.88529 L137.77731,463.88529 C231.99462,524.23965 301.13424,484.23573 310.25808,423.05967 L310.25808,423.05967 C312.22719,409.85505 368.28495,329.89077 368.28495,247.22181 L368.28495,247.22181 C368.28495,185.46957 371.2995,59.35743 286.05852,17.72397 L286.05852,17.72397 C263.72907,6.81714 236.11005,0.674189522 206.87436,0.674189522 L206.87436,0.674189522 C124.50834,0.67914 29.40696,49.47228 4.33026,178.02576" id="path-53"></path>
        <path d="M4.33026,178.02576 C-11.15334,257.4 23.22144,390.5055 137.77731,463.88529 L137.77731,463.88529 C231.99462,524.23965 301.13424,484.23573 310.25808,423.05967 L310.25808,423.05967 C312.22719,409.85505 368.28495,329.89077 368.28495,247.22181 L368.28495,247.22181 C368.28495,185.46957 371.2995,59.35743 286.05852,17.72397 L286.05852,17.72397 C263.72907,6.81714 236.11005,0.674189522 206.87436,0.674189522 L206.87436,0.674189522 C124.50834,0.67914 29.40696,49.47228 4.33026,178.02576" id="path-55"></path>
        <path d="M4.33026,178.02576 C-11.15334,257.4 23.22144,390.5055 137.77731,463.88529 L137.77731,463.88529 C231.99462,524.23965 301.13424,484.23573 310.25808,423.05967 L310.25808,423.05967 C312.22719,409.85505 368.28495,329.89077 368.28495,247.22181 L368.28495,247.22181 C368.28495,185.46957 371.2995,59.35743 286.05852,17.72397 L286.05852,17.72397 C263.72907,6.81714 236.11005,0.674189522 206.87436,0.674189522 L206.87436,0.674189522 C124.50834,0.67914 29.40696,49.47228 4.33026,178.02576" id="path-57"></path>
        <path d="M4.33026,178.02576 C-11.15334,257.4 23.22144,390.5055 137.77731,463.88529 L137.77731,463.88529 C231.99462,524.23965 301.13424,484.23573 310.25808,423.05967 L310.25808,423.05967 C312.22719,409.85505 368.28495,329.89077 368.28495,247.22181 L368.28495,247.22181 C368.28495,185.46957 371.2995,59.35743 286.05852,17.72397 L286.05852,17.72397 C263.72907,6.81714 236.11005,0.674189522 206.87436,0.674189522 L206.87436,0.674189522 C124.50834,0.67914 29.40696,49.47228 4.33026,178.02576" id="path-59"></path>
        <path d="M4.33026,178.02576 C-11.15334,257.4 23.22144,390.5055 137.77731,463.88529 L137.77731,463.88529 C231.99462,524.23965 301.13424,484.23573 310.25808,423.05967 L310.25808,423.05967 C312.22719,409.85505 368.28495,329.89077 368.28495,247.22181 L368.28495,247.22181 C368.28495,185.46957 371.2995,59.35743 286.05852,17.72397 L286.05852,17.72397 C263.72907,6.81714 236.11005,0.674189522 206.87436,0.674189522 L206.87436,0.674189522 C124.50834,0.67914 29.40696,49.47228 4.33026,178.02576" id="path-61"></path>
        <path d="M4.33026,178.02576 C-11.15334,257.4 23.22144,390.5055 137.77731,463.88529 L137.77731,463.88529 C231.99462,524.23965 301.13424,484.23573 310.25808,423.05967 L310.25808,423.05967 C312.22719,409.85505 368.28495,329.89077 368.28495,247.22181 L368.28495,247.22181 C368.28495,185.46957 371.2995,59.35743 286.05852,17.72397 L286.05852,17.72397 C263.72907,6.81714 236.11005,0.674189522 206.87436,0.674189522 L206.87436,0.674189522 C124.50834,0.67914 29.40696,49.47228 4.33026,178.02576" id="path-63"></path>
        <path d="M4.33026,178.02576 C-11.15334,257.4 23.22144,390.5055 137.77731,463.88529 L137.77731,463.88529 C231.99462,524.23965 301.13424,484.23573 310.25808,423.05967 L310.25808,423.05967 C312.22719,409.85505 368.28495,329.89077 368.28495,247.22181 L368.28495,247.22181 C368.28495,185.46957 371.2995,59.35743 286.05852,17.72397 L286.05852,17.72397 C263.72907,6.81714 236.11005,0.674189522 206.87436,0.674189522 L206.87436,0.674189522 C124.50834,0.67914 29.40696,49.47228 4.33026,178.02576" id="path-65"></path>
        <path d="M4.33026,178.02576 C-11.15334,257.4 23.22144,390.5055 137.77731,463.88529 L137.77731,463.88529 C231.99462,524.23965 301.13424,484.23573 310.25808,423.05967 L310.25808,423.05967 C312.22719,409.85505 368.28495,329.89077 368.28495,247.22181 L368.28495,247.22181 C368.28495,185.46957 371.2995,59.35743 286.05852,17.72397 L286.05852,17.72397 C263.72907,6.81714 236.11005,0.674189522 206.87436,0.674189522 L206.87436,0.674189522 C124.50834,0.67914 29.40696,49.47228 4.33026,178.02576" id="path-67"></path>
        <path d="M4.33026,178.02576 C-11.15334,257.4 23.22144,390.5055 137.77731,463.88529 L137.77731,463.88529 C231.99462,524.23965 301.13424,484.23573 310.25808,423.05967 L310.25808,423.05967 C312.22719,409.85505 368.28495,329.89077 368.28495,247.22181 L368.28495,247.22181 C368.28495,185.46957 371.2995,59.35743 286.05852,17.72397 L286.05852,17.72397 C263.72907,6.81714 236.11005,0.674189522 206.87436,0.674189522 L206.87436,0.674189522 C124.50834,0.67914 29.40696,49.47228 4.33026,178.02576" id="path-69"></path>
        <path d="M4.33026,178.02576 C-11.15334,257.4 23.22144,390.5055 137.77731,463.88529 L137.77731,463.88529 C231.99462,524.23965 301.13424,484.23573 310.25808,423.05967 L310.25808,423.05967 C312.22719,409.85505 368.28495,329.89077 368.28495,247.22181 L368.28495,247.22181 C368.28495,185.46957 371.2995,59.35743 286.05852,17.72397 L286.05852,17.72397 C263.72907,6.81714 236.11005,0.674189522 206.87436,0.674189522 L206.87436,0.674189522 C124.50834,0.67914 29.40696,49.47228 4.33026,178.02576" id="path-71"></path>
    </defs>
    <g id="Page-1" stroke="none" stroke-width="1" fill="none" fill-rule="evenodd">
        <g id="Final" transform="translate(-100.000000, -710.000000)">
            <g id="Illustration-M" transform="translate(100.000000, 709.000000)">
                <g id="Group-112">
                    <path d="M286.059114,18.040374 C371.299104,59.674824 371.486214,145.984014 336.010554,196.529454 C300.533904,247.074894 285.045354,300.594294 307.427274,381.601044 C329.810184,462.608784 252.330804,537.582474 137.776914,464.201694 C23.222034,390.822894 -11.152746,257.717394 4.329864,178.343154 C38.307654,4.159584 200.819124,-23.594076 286.059114,18.040374" id="Fill-1" fill="#FFEBEF"></path>
                    <g id="Group-111" transform="translate(0.000000, 0.316800)">
                        <g id="Group-5">
                            <mask id="mask-2" fill="white">
                                <use xlink:href="#path-1"></use>
                            </mask>
                            <g id="Clip-4"></g>
                            <path d="M211.113045,422.190846 C226.474875,415.625166 244.343385,411.878016 252.448515,395.550936 C256.930245,386.524116 252.690075,376.443936 250.925895,367.289406 C247.907385,351.622656 253.317735,338.020056 265.312575,327.690396 C270.110115,323.559126 274.366125,317.867616 273.956265,311.549436 C273.347415,302.147406 262.973205,295.915356 261.397125,286.626186 C260.551665,281.637576 262.358415,276.638076 263.321685,271.669266 C265.652145,259.655616 260.320005,247.222206 260.320005,247.222206 C260.320005,247.222206 253.296945,255.013506 241.911945,258.103296 C234.606735,260.086266 227.193615,263.066166 221.287275,267.999336 C216.672885,271.855386 214.408755,276.658866 213.402915,282.468186 C212.219865,289.307106 210.991275,294.671916 206.435295,299.994156 C199.404315,308.209176 173.289105,314.678826 178.248015,327.907206 C179.597385,331.505856 182.573325,334.476846 182.858445,338.441796 C183.376215,345.627216 174.700845,347.117166 170.826975,351.394956 C164.869155,357.974496 159.948855,367.720056 160.804215,375.992496 C162.841635,395.727156 176.263065,416.436966 190.762605,430.364286" id="Fill-3" fill="#F4D4DC" mask="url(#mask-2)"></path>
                        </g>
                        <g id="Group-8">
                            <mask id="mask-4" fill="white">
                                <use xlink:href="#path-3"></use>
                            </mask>
                            <g id="Clip-7"></g>
                            <path d="M-50.935302,404.8011 L241.366158,460.81926 C240.045498,426.49992 233.436258,409.22343 224.686638,394.515 C223.865928,393.10821 223.010568,391.74696 222.154218,390.3867 C216.961668,382.23801 211.156308,374.50314 204.787638,367.21971 C202.676958,364.76748 200.496978,362.40831 198.254628,360.09072 C196.017228,357.74739 193.710528,355.49613 191.346408,353.26071 C188.977338,351.05202 186.546888,348.88491 184.076838,346.78809 C181.611738,344.66751 179.074368,342.639 176.476608,340.65207 C173.873898,338.69088 171.215748,336.74454 168.511068,334.8972 L162.098838,330.47685 L162.072108,330.4719 L118.505178,300.52836 L67.794408,312.03117 L67.767678,312.02622 L59.311098,313.9686 C56.310408,314.64378 53.319618,315.40014 50.370408,316.21788 C49.389318,316.48221 48.403278,316.77129 47.441988,317.06631 C45.015498,317.79792 42.578118,318.58101 40.177368,319.45023 L-50.935302,404.8011 Z" id="Fill-6" fill="#FF9DB4" mask="url(#mask-4)"></path>
                        </g>
                        <g id="Group-11">
                            <mask id="mask-6" fill="white">
                                <use xlink:href="#path-5"></use>
                            </mask>
                            <g id="Clip-10"></g>
                            <polygon id="Fill-9" fill="#6B3F9E" mask="url(#mask-6)" points="58.035285 279.241182 126.369045 263.795202 184.152375 303.411042 146.379915 354.552462 73.408005 340.567722"></polygon>
                        </g>
                        <g id="Group-14">
                            <mask id="mask-8" fill="white">
                                <use xlink:href="#path-7"></use>
                            </mask>
                            <g id="Clip-13"></g>
                            <polygon id="Fill-12" fill="#FF9DB4" mask="url(#mask-8)" points="166.563045 249.242499 142.741665 373.542939 68.970825 359.403759 92.792205 235.105299"></polygon>
                        </g>
                        <g id="Group-17">
                            <mask id="mask-10" fill="white">
                                <use xlink:href="#path-9"></use>
                            </mask>
                            <g id="Clip-16"></g>
                            <path d="M166.563045,249.242499 L158.027265,293.779629 C142.191225,301.683789 123.747525,304.623099 105.037515,301.038309 C96.680925,299.436489 88.871805,296.657559 81.718065,292.894569 L92.792205,235.105299 L166.563045,249.242499 Z" id="Fill-15" fill="#F987A5" mask="url(#mask-10)"></path>
                        </g>
                        <g id="Group-20">
                            <mask id="mask-12" fill="white">
                                <use xlink:href="#path-11"></use>
                            </mask>
                            <g id="Clip-19"></g>
                            <path d="M240.025104,513.750402 L-73.259406,453.710862 C-66.105666,435.108762 -58.664826,418.903452 -50.934906,404.800902 C-21.914046,351.617112 10.925244,328.045212 47.442384,317.066112 C48.402684,316.771092 49.388724,316.482012 50.370804,316.218672 C53.324964,315.374202 56.315754,314.617842 59.316444,313.943652 L67.768074,312.026022 L67.793814,312.030972 L103.107114,385.180092 L162.072504,330.471702 L162.098244,330.476652 L168.516414,334.870272 C171.220104,336.719592 173.879244,338.664942 176.477004,340.651872 C179.074764,342.638802 181.611144,344.667312 184.076244,346.788882 C186.546294,348.884712 188.977734,351.051822 191.345814,353.261502 C193.710924,355.495932 196.017624,357.747192 198.255024,360.090522 C200.496384,362.408112 202.672404,364.793022 204.787044,367.219512 C211.156704,374.503932 216.961074,382.237812 222.153624,390.387492 C223.009974,391.747752 223.866324,393.109002 224.687034,394.515792 C233.436654,409.223232 240.045894,426.499722 241.365564,460.819062 C241.916994,475.153272 241.528914,492.444612 240.025104,513.750402" id="Fill-18" fill="#E73348" mask="url(#mask-12)"></path>
                        </g>
                        <g id="Group-23">
                            <mask id="mask-14" fill="white">
                                <use xlink:href="#path-13"></use>
                            </mask>
                            <g id="Clip-22"></g>
                            <path d="M98.97624,402.362829 C92.36403,401.095629 90.39492,411.355989 97.0101,412.623189 C103.62132,413.891379 105.59142,403.630029 98.97624,402.362829" id="Fill-21" fill="#FFFFFF" mask="url(#mask-14)"></path>
                        </g>
                        <g id="Group-26">
                            <mask id="mask-16" fill="white">
                                <use xlink:href="#path-15"></use>
                            </mask>
                            <g id="Clip-25"></g>
                            <path d="M90.334926,447.454161 C83.722716,446.186961 81.753606,456.447321 88.368786,457.714521 C94.980006,458.982711 96.949116,448.721361 90.334926,447.454161" id="Fill-24" fill="#FFFFFF" mask="url(#mask-16)"></path>
                        </g>
                        <g id="Group-29">
                            <mask id="mask-18" fill="white">
                                <use xlink:href="#path-17"></use>
                            </mask>
                            <g id="Clip-28"></g>
                            <path d="M43.603857,354.543057 C45.460107,352.953117 58.035087,279.240687 58.035087,279.240687 L86.900517,300.646467 C95.496687,307.020087 100.720917,316.961667 101.095137,327.655647 L103.106817,385.179597 L43.603857,354.543057 Z" id="Fill-27" fill="#E73348" mask="url(#mask-18)"></path>
                        </g>
                        <g id="Group-32">
                            <mask id="mask-20" fill="white">
                                <use xlink:href="#path-19"></use>
                            </mask>
                            <g id="Clip-31"></g>
                            <path d="M169.720551,378.713016 C168.584031,376.548876 184.151781,303.410646 184.151781,303.410646 L149.417631,312.627546 C139.075101,315.371826 130.545261,322.677036 126.243711,332.476056 L103.107411,385.179696 L169.720551,378.713016 Z" id="Fill-30" fill="#E73348" mask="url(#mask-20)"></path>
                        </g>
                        <g id="Group-35">
                            <mask id="mask-22" fill="white">
                                <use xlink:href="#path-21"></use>
                            </mask>
                            <g id="Clip-34"></g>
                            <path d="M346.636719,321.469929 C343.494459,320.398749 340.065099,322.156989 338.686029,325.176489 L331.892649,340.041339 C330.712569,342.625239 327.041649,342.627219 325.858599,340.043319 C324.855729,337.848489 324.587439,335.390319 325.095309,333.033129 L332.741079,297.538659 C333.524169,293.901399 331.020459,290.321559 327.226779,289.892889 C323.929089,289.521639 320.956119,291.975849 320.257179,295.221069 L312.899499,329.376069 C312.351039,331.921359 309.843369,333.539019 307.299069,332.989569 C305.305209,332.558919 303.921189,330.742269 304.035039,328.706829 L306.210069,289.660239 C306.415989,285.944769 303.385599,282.798549 299.570139,282.966849 C296.253639,283.114359 293.701419,286.002189 293.516289,289.315719 L291.279879,329.455269 C291.187809,331.117479 289.823589,332.422299 288.161379,332.444079 L287.177319,332.457939 C285.742809,332.475759 284.493429,331.486749 284.179599,330.086889 L277.180299,298.791009 C276.401169,295.311159 272.845089,292.496589 269.278119,292.539159 C265.857669,293.304429 263.705409,296.697159 264.469689,300.118599 C264.469689,300.118599 274.552839,345.025989 274.602339,345.186369 C275.085459,348.827589 275.131989,353.353869 273.525219,357.242589 C272.421369,359.914599 268.529679,359.694819 267.625809,356.946579 C265.463649,350.356149 262.172889,340.354179 262.172889,340.354179 C261.003699,336.823839 257.029839,335.007189 253.543059,336.561489 C250.511679,337.912839 249.192999,341.536239 250.237449,344.687409 L256.006179,362.120319 C255.946779,362.080719 257.917869,378.153369 264.459789,390.663999 L260.805699,398.294919 L256.619979,406.614879 L256.797189,406.666359 L192.400659,504.622899 L112.003749,535.140639 L164.934099,599.414409 C187.082379,630.048969 216.686349,626.416659 234.589509,611.631999 C240.086979,607.092849 244.517229,601.028109 247.161519,593.640729 L308.756349,421.597539 L308.892969,421.637139 L311.455089,414.057699 L311.751099,413.231049 C316.487259,406.378269 326.805039,389.740329 336.270429,362.864799 L350.380899,330.122529 C351.927279,326.737719 350.249229,322.702479 346.636719,321.469929" id="Fill-33" fill="#FF9DB4" mask="url(#mask-22)"></path>
                        </g>
                        <g id="Group-38">
                            <mask id="mask-24" fill="white">
                                <use xlink:href="#path-23"></use>
                            </mask>
                            <g id="Clip-37"></g>
                            <path d="M283.657572,385.168311 C283.597182,385.167321 283.537782,385.163361 283.477392,385.155441 C282.351762,385.030701 281.536992,384.013971 281.661732,382.886361 C282.989322,370.916271 272.100312,365.059431 271.636992,364.815891 C270.634122,364.288221 270.243072,363.046761 270.766782,362.042901 C271.290492,361.039041 272.526012,360.646011 273.532842,361.166751 C274.100112,361.459791 287.391852,368.527401 285.748452,383.338791 C285.629652,384.407991 284.712912,385.195041 283.657572,385.168311" id="Fill-36" fill="#EF7394" mask="url(#mask-24)"></path>
                        </g>
                        <g id="Group-41">
                            <mask id="mask-26" fill="white">
                                <use xlink:href="#path-25"></use>
                            </mask>
                            <g id="Clip-40"></g>
                            <path d="M227.338749,223.744158 L255.134979,169.059528 C263.969739,151.679088 257.976279,130.426758 241.362099,120.223818 L222.679809,108.749718 L191.624499,210.605868 L227.338749,223.744158 Z" id="Fill-39" fill="#311746" mask="url(#mask-26)"></path>
                        </g>
                        <g id="Group-44">
                            <mask id="mask-28" fill="white">
                                <use xlink:href="#path-27"></use>
                            </mask>
                            <g id="Clip-43"></g>
                            <path d="M54.634041,171.086652 L62.077851,110.195712 C64.442961,90.843192 81.272961,76.550562 100.754181,77.351472 L122.660901,78.253362 L91.604601,180.108522 L54.634041,171.086652 Z" id="Fill-42" fill="#311746" mask="url(#mask-28)"></path>
                        </g>
                        <g id="Group-47">
                            <mask id="mask-30" fill="white">
                                <use xlink:href="#path-29"></use>
                            </mask>
                            <g id="Clip-46"></g>
                            <path d="M105.114339,97.7328 C100.851399,51.78591 136.363689,28.38528 183.913389,48.49416 C195.524109,53.40456 205.987419,54.92223 215.215209,54.14805 C236.340819,52.37298 253.954899,70.13655 262.207539,88.01001 C268.145559,100.87209 267.120909,131.71158 234.454869,121.75218 L218.284209,121.59972 L105.114339,97.7328 Z" id="Fill-45" fill="#311746" mask="url(#mask-30)"></path>
                        </g>
                        <g id="Group-50">
                            <mask id="mask-32" fill="white">
                                <use xlink:href="#path-31"></use>
                            </mask>
                            <g id="Clip-49"></g>
                            <path d="M101.722896,88.766766 C101.740716,78.839046 104.448366,69.122196 109.189476,60.640866 C113.909796,52.145676 120.839796,44.913726 129.128076,40.012236 C137.407446,35.076096 147.036186,32.687226 156.489696,32.883246 C161.219916,32.969376 165.915486,33.610896 170.466516,34.761276 C175.013586,35.931456 179.416116,37.546146 183.680046,39.438036 C179.313156,37.787706 174.847266,36.434376 170.295246,35.532486 C165.740256,34.650396 161.102106,34.287066 156.507516,34.462296 C147.317346,34.792956 138.305376,37.622376 130.810086,42.685236 C123.302916,47.719386 117.273816,54.798876 113.381136,62.847576 C109.465686,70.878456 107.554986,79.844886 108.037116,88.585596 L101.722896,88.766766 Z" id="Fill-48" fill="#311746" mask="url(#mask-32)"></path>
                        </g>
                        <g id="Group-53">
                            <mask id="mask-34" fill="white">
                                <use xlink:href="#path-33"></use>
                            </mask>
                            <g id="Clip-52"></g>
                            <path d="M101.733489,88.407099 C102.203739,85.781619 102.249279,83.156139 101.371149,80.928639 C100.548459,78.683319 98.585289,76.904289 96.053859,75.776679 C93.513519,74.659959 90.565299,74.148129 87.598269,73.955079 C84.618369,73.773909 81.583029,73.908549 78.559569,74.219409 C81.485019,73.393749 84.476799,72.725499 87.558669,72.377019 C90.634599,72.050319 93.823389,72.001809 97.055739,72.781929 C98.664489,73.185849 100.282149,73.827369 101.773089,74.814399 C103.268979,75.785589 104.598549,77.139909 105.559839,78.716979 C106.536969,80.287119 107.165619,82.031499 107.533899,83.764989 C107.903169,85.504419 108.027909,87.240879 108.026925,88.945659 L101.733489,88.407099 Z" id="Fill-51" fill="#311746" mask="url(#mask-34)"></path>
                        </g>
                        <g id="Group-56">
                            <mask id="mask-36" fill="white">
                                <use xlink:href="#path-35"></use>
                            </mask>
                            <g id="Clip-55"></g>
                            <path d="M237.12183,187.045551 L226.05165,223.351821 L55.91619,171.476811 L66.98637,135.171531 C73.90449,112.482711 88.52184,94.297401 106.9497,82.875771 C127.94463,69.809751 153.87669,65.498301 178.89498,73.126251 C202.37778,80.285931 220.64229,96.606081 231.17886,117.249561 C241.69761,137.856411 244.52406,162.767781 237.12183,187.045551" id="Fill-54" fill="#311746" mask="url(#mask-36)"></path>
                        </g>
                        <g id="Group-59">
                            <mask id="mask-38" fill="white">
                                <use xlink:href="#path-37"></use>
                            </mask>
                            <g id="Clip-58"></g>
                            <path d="M232.209549,185.338197 L218.299059,230.961357 C217.847619,232.440417 217.378359,233.884827 216.852669,235.312407 C213.739119,243.856107 209.371239,251.599887 203.973759,258.399207 C201.199779,261.895887 198.175329,265.136157 194.927139,268.129917 C192.547179,270.338607 189.998919,272.406717 187.384329,274.304547 C186.458679,274.981707 185.541939,275.630157 184.579659,276.235047 C164.463849,289.658457 138.718899,294.237207 113.783769,286.634997 C88.847649,279.032787 70.037649,260.868267 60.834609,238.505157 C60.372279,237.465657 59.973309,236.416257 59.583249,235.339137 C58.443759,232.295877 57.512169,229.166487 56.768679,226.004427 C55.734129,221.736537 55.032219,217.359747 54.681759,212.910687 L54.690669,212.881977 C54.004599,204.227397 54.700569,195.365907 56.882529,186.537087 C57.243879,185.060007 57.658689,183.598767 58.110129,182.119707 L72.019629,136.495557 C75.738069,124.302717 81.968139,113.592897 89.996049,104.751207 C111.087999,81.442647 144.503469,71.055567 176.535909,80.822907 C185.606289,83.587977 193.860909,87.751917 201.118599,93.019707 C211.607649,100.560537 220.081059,110.391237 226.023039,121.546557 C236.099259,140.462487 238.952439,163.224567 232.209549,185.338197" id="Fill-57" fill="#FF9DB4" mask="url(#mask-38)"></path>
                        </g>
                        <g id="Group-62">
                            <mask id="mask-40" fill="white">
                                <use xlink:href="#path-39"></use>
                            </mask>
                            <g id="Clip-61"></g>
                            <polyline id="Stroke-60" stroke="#F987A5" stroke-width="3.54222" mask="url(#mask-40)" points="174.859146 86.317902 145.088856 228.971952 119.975526 221.314302"></polyline>
                        </g>
                        <g id="Group-65">
                            <mask id="mask-42" fill="white">
                                <use xlink:href="#path-41"></use>
                            </mask>
                            <g id="Clip-64"></g>
                            <path d="M230.673267,120.599523 L225.343107,138.080943 C224.090757,142.191423 223.683867,146.470203 224.082837,150.664833 C224.507547,154.867383 225.710397,158.977863 227.757717,162.776493 C231.794937,170.356923 232.649307,179.242173 230.143617,187.463133 L220.409937,219.385683 L227.373597,223.754553 L238.443777,187.448283 C245.361897,164.759463 243.374967,141.512283 234.455067,121.751883 L230.673267,120.599523 Z" id="Fill-63" fill="#311746" mask="url(#mask-42)"></path>
                        </g>
                        <g id="Group-68">
                            <mask id="mask-44" fill="white">
                                <use xlink:href="#path-43"></use>
                            </mask>
                            <g id="Clip-67"></g>
                            <path d="M109.414701,83.62728 L124.711191,78.87825 C128.300931,83.7243 113.247981,121.4532 88.303941,120.25629 C79.724601,119.84544 75.055761,131.19183 72.550071,139.41279 L62.816391,171.33534 L54.600381,171.07596 L65.669571,134.7687 C72.587691,112.08087 87.206031,93.89655 105.633891,82.47393 L109.414701,83.62728 Z" id="Fill-66" fill="#311746" mask="url(#mask-44)"></path>
                        </g>
                        <g id="Group-71">
                            <mask id="mask-46" fill="white">
                                <use xlink:href="#path-45"></use>
                            </mask>
                            <g id="Clip-70"></g>
                            <path d="M232.464771,184.540554 L229.632381,193.829724 C236.374281,171.717084 233.521101,148.955004 223.446861,130.039074 C217.503891,118.883754 209.030481,109.052064 198.541431,101.512224 C191.282751,96.244434 183.028131,92.079504 173.958741,89.314434 C141.926301,79.547094 108.511821,89.934174 87.417891,113.241744 C79.391961,122.085414 73.160901,132.794244 69.443451,144.988074 L72.274851,135.698904 C75.993291,123.506064 82.223361,112.796244 90.251271,103.953564 C111.343221,80.645994 144.758691,70.257924 176.791131,80.026254 C185.861511,82.791324 194.115141,86.955264 201.373821,92.223054 C211.862871,99.762894 220.335291,109.594584 226.278261,120.749904 C236.354481,139.664844 239.207661,162.427914 232.464771,184.540554" id="Fill-69" fill="#311746" mask="url(#mask-46)"></path>
                        </g>
                        <g id="Group-74">
                            <mask id="mask-48" fill="white">
                                <use xlink:href="#path-47"></use>
                            </mask>
                            <g id="Clip-73"></g>
                            <path d="M192.474117,236.626731 C188.312157,251.675721 198.494307,262.343961 213.542307,266.505921 C228.591297,270.668871 243.230427,265.225851 247.393377,250.176861 C251.555337,235.127871 250.478217,218.055321 235.430217,213.893361 C220.380237,209.730411 196.637067,221.577741 192.474117,236.626731" id="Fill-72" fill="#FF9DB4" mask="url(#mask-48)"></path>
                        </g>
                        <g id="Group-77">
                            <mask id="mask-50" fill="white">
                                <use xlink:href="#path-49"></use>
                            </mask>
                            <g id="Clip-76"></g>
                            <line x1="236.056392" y1="230.123124" x2="215.715852" y2="243.067374" id="Stroke-75" stroke="#F987A5" stroke-width="2.36907" mask="url(#mask-50)"></line>
                        </g>
                        <g id="Group-80">
                            <mask id="mask-52" fill="white">
                                <use xlink:href="#path-51"></use>
                            </mask>
                            <g id="Clip-79"></g>
                            <path d="M76.379292,201.22938 C71.437212,216.04077 57.035682,219.21174 42.224292,214.27065 C27.412902,209.32857 18.300942,196.64469 23.243022,181.8333 C28.185102,167.02191 38.603862,153.45495 53.415252,158.39604 C68.226642,163.33911 81.320382,186.41799 76.379292,201.22938" id="Fill-78" fill="#FF9DB4" mask="url(#mask-52)"></path>
                        </g>
                        <g id="Group-83">
                            <mask id="mask-54" fill="white">
                                <use xlink:href="#path-53"></use>
                            </mask>
                            <g id="Clip-82"></g>
                            <line x1="43.840764" y1="171.515916" x2="53.498214" y2="193.606776" id="Stroke-81" stroke="#F987A5" stroke-width="2.36907" mask="url(#mask-54)"></line>
                        </g>
                        <g id="Group-86">
                            <mask id="mask-56" fill="white">
                                <use xlink:href="#path-55"></use>
                            </mask>
                            <g id="Clip-85"></g>
                            <path d="M113.337972,186.736176 C111.794562,191.796066 107.119782,194.855166 102.895452,193.567176 C98.672112,192.280176 96.498072,187.132176 98.041482,182.071296 C99.583902,177.011406 104.259672,173.952306 108.484002,175.240296 C112.707342,176.528286 114.881382,181.675296 113.337972,186.736176" id="Fill-84" fill="#311746" mask="url(#mask-56)"></path>
                        </g>
                        <g id="Group-89">
                            <mask id="mask-58" fill="white">
                                <use xlink:href="#path-57"></use>
                            </mask>
                            <g id="Clip-88"></g>
                            <path d="M185.18643,208.641807 C183.64302,213.702687 178.96824,216.761787 174.74292,215.473797 C170.51958,214.185807 168.34554,209.038797 169.88895,203.977917 C171.43137,198.918027 176.10714,195.858927 180.33147,197.146917 C184.55481,198.433917 186.72984,203.581917 185.18643,208.641807" id="Fill-87" fill="#311746" mask="url(#mask-58)"></path>
                        </g>
                        <g id="Group-92">
                            <mask id="mask-60" fill="white">
                                <use xlink:href="#path-59"></use>
                            </mask>
                            <g id="Clip-91"></g>
                            <path d="M209.64834,176.658273 C211.31055,167.808663 188.21187,156.698883 180.31662,163.184373 C172.42236,169.668873 207.22482,189.567873 209.64834,176.658273" id="Fill-90" fill="#311746" mask="url(#mask-60)"></path>
                        </g>
                        <g id="Group-95">
                            <mask id="mask-62" fill="white">
                                <use xlink:href="#path-61"></use>
                            </mask>
                            <g id="Clip-94"></g>
                            <path d="M95.584698,141.880662 C99.143748,133.609212 124.511508,137.277162 127.444878,147.063312 C130.378248,156.849462 90.394128,153.946782 95.584698,141.880662" id="Fill-93" fill="#311746" mask="url(#mask-62)"></path>
                        </g>
                        <g id="Group-98">
                            <mask id="mask-64" fill="white">
                                <use xlink:href="#path-63"></use>
                            </mask>
                            <g id="Clip-97"></g>
                            <path d="M105.298083,233.090154 C105.298083,233.090154 120.016413,260.106264 150.698493,246.932334" id="Stroke-96" stroke="#311746" stroke-width="2.36907" mask="url(#mask-64)"></path>
                        </g>
                        <g id="Group-101">
                            <mask id="mask-66" fill="white">
                                <use xlink:href="#path-65"></use>
                            </mask>
                            <g id="Clip-100"></g>
                            <path d="M105.111468,216.927315 C101.749428,223.906815 89.958528,225.197775 78.775488,219.812175 C67.592448,214.426575 61.251498,204.401835 64.612548,197.422335 C67.973598,190.442835 79.764498,189.150885 90.948528,194.538465 C102.131568,199.924065 108.473508,209.947815 105.111468,216.927315" id="Fill-99" fill="#F987A5" mask="url(#mask-66)"></path>
                        </g>
                        <g id="Group-104">
                            <mask id="mask-68" fill="white">
                                <use xlink:href="#path-67"></use>
                            </mask>
                            <g id="Clip-103"></g>
                            <path d="M205.598448,240.287949 C204.862878,247.999059 194.249088,253.296549 181.892898,252.117459 C169.535718,250.939359 160.114878,243.732159 160.850448,236.020059 C161.586018,228.308949 172.199808,223.013439 184.555998,224.190549 C196.913178,225.369639 206.334018,232.575849 205.598448,240.287949" id="Fill-102" fill="#F987A5" mask="url(#mask-68)"></path>
                        </g>
                        <g id="Group-107">
                            <mask id="mask-70" fill="white">
                                <use xlink:href="#path-69"></use>
                            </mask>
                            <g id="Clip-106"></g>
                            <path d="M189.797058,117.830592 C183.734298,126.857412 163.707588,124.026012 145.067868,111.505482 C126.428148,98.985942 116.233128,81.518382 122.296878,72.490572 C128.360628,63.463752 148.387338,66.295152 167.026068,78.815682 C185.665788,91.335222 195.860808,108.802782 189.797058,117.830592" id="Fill-105" fill="#311746" mask="url(#mask-70)"></path>
                        </g>
                        <g id="Group-110">
                            <mask id="mask-72" fill="white">
                                <use xlink:href="#path-71"></use>
                            </mask>
                            <g id="Clip-109"></g>
                            <path d="M222.570513,153.108054 C212.773473,157.827384 196.932483,145.252404 187.187913,125.023734 C177.443343,104.794074 177.486903,84.569364 187.283943,79.850034 C197.080983,75.130704 212.922963,87.704694 222.667533,107.934354 C232.411113,128.164014 232.367553,148.388724 222.570513,153.108054" id="Fill-108" fill="#311746" mask="url(#mask-72)"></path>
                        </g>
                    </g>
                </g>
                <path d="M283,112 C283,93.2223185 298.222319,78 317,78 L559,78 C577.777681,78 593,93.2223185 593,112 L593,152 C593,170.777681 577.777681,186 559,186 L312.904,186 L283,228 L283,112 Z" id="Combined-Shape" fill="#B59ECE"></path>
            </g>
        </g>
    </g>
</svg>