<?xml version="1.0" encoding="UTF-8"?>
<svg width="971px" height="584px" viewBox="0 0 971 584" version="1.1" xmlns="http://www.w3.org/2000/svg" xmlns:xlink="http://www.w3.org/1999/xlink">
    <title>2D353F97-629E-45BD-A196-9981E420CEB6</title>
    <defs>
        <polygon id="path-1" points="0.803665786 0.696542856 970.995666 0.696542856 970.995666 274.19 0.803665786 274.19"></polygon>
        <polygon id="path-3" points="0.1104 0.894223396 189.663892 0.894223396 189.663892 58.19 0.1104 58.19"></polygon>
        <polygon id="path-5" points="0.3926 0.328363232 270.812959 0.328363232 270.812959 92.19 0.3926 92.19"></polygon>
        <polygon id="path-7" points="0.32013151 0.222132958 181.328412 0.222132958 181.328412 183.19 0.32013151 183.19"></polygon>
        <polygon id="path-9" points="0 500.79 971 500.79 971 0 0 0"></polygon>
    </defs>
    <g id="Page-1" stroke="none" stroke-width="1" fill="none" fill-rule="evenodd">
        <g id="Main" transform="translate(-115.000000, -139.000000)">
            <g id="Image-bg" transform="translate(115.000000, 142.000000)">
                <g id="Group-2" transform="translate(0.000000, 79.000000)">
                    <g id="Group-3" transform="translate(0.000000, 226.600000)">
                        <mask id="mask-2" fill="white">
                            <use xlink:href="#path-1"></use>
                        </mask>
                        <g id="Clip-2"></g>
                        <path d="M527.248,883.8223 C615.433,863.6113 667.742,772.0953 684.38,627.3973 C693.432,548.6883 747.148,483.8163 822.619,438.9153 C926.486,377.1133 993.89,285.8403 963.78,176.0773 C933.674,66.3143 809.769,-84.3317 583.375,60.1193 C501.064,112.6363 374.704,131.0393 262.892,105.4343 C144.302,78.2793 80.753,119.8703 36.766,182.8073 C11.015,219.6553 -30.126,326.0463 38.431,414.1543 C118.012,516.4363 242.636,516.0603 299.379,677.4233 C353.307,830.7763 424.715,907.3193 527.248,883.8223" id="Fill-1" fill="#FFEBEF" mask="url(#mask-2)"></path>
                    </g>
                    <g id="Group-6" transform="translate(285.000000, 442.600000)">
                        <mask id="mask-4" fill="white">
                            <use xlink:href="#path-3"></use>
                        </mask>
                        <g id="Clip-5"></g>
                        <path d="M0.1104,68.1729 C0.1424,68.1409 0.3764,68.1729 0.4194,68.1729 L50.4594,68.1729 L139.2574,68.1729 C161.0994,68.1729 167.8504,67.4749 189.6524,68.1099 C189.8994,54.6579 186.1514,41.9809 179.7154,35.1889 C174.4324,29.6119 165.3374,26.5649 157.9104,28.5279 C148.5074,31.0149 142.1284,37.3089 136.0304,41.9809 C133.8744,23.4509 126.2184,6.5649 117.9904,2.8779 C103.8264,-3.4661 89.0234,6.5899 82.3784,16.3599 C76.9034,24.4099 73.9004,33.9749 72.7884,43.6469 C63.8954,33.8189 44.0104,26.3199 36.8474,41.9069 C34.0334,48.0299 34.2634,55.0569 34.5484,61.7889 C22.8904,58.6489 9.8824,61.1029 0.1104,68.1729" id="Fill-4" fill="#FFFFFF" mask="url(#mask-4)"></path>
                    </g>
                    <path d="M451.6182,451.1654 C451.6182,456.6984 447.1322,461.1854 441.5972,461.1854 C436.0632,461.1854 431.5782,456.6984 431.5782,451.1654 C431.5782,445.6314 436.0632,441.1444 441.5972,441.1444 C447.1322,441.1444 451.6182,445.6314 451.6182,451.1654 Z" id="Stroke-7" stroke="#6B3F9E" stroke-width="5.284"></path>
                    <path d="M312.791,278.0209 C312.791,283.5549 308.305,288.0419 302.77,288.0419 C297.236,288.0419 292.75,283.5549 292.75,278.0209 C292.75,272.4869 297.236,267.9999 302.77,267.9999 C308.305,267.9999 312.791,272.4869 312.791,278.0209 Z" id="Stroke-9" stroke="#E73348" stroke-width="5.284"></path>
                    <path d="M915.0996,371.0199 C915.0996,376.5539 910.6136,381.0409 905.0786,381.0409 C899.5456,381.0409 895.0596,376.5539 895.0596,371.0199 C895.0596,365.4869 899.5456,360.9999 905.0786,360.9999 C910.6136,360.9999 915.0996,365.4869 915.0996,371.0199 Z" id="Stroke-11" stroke="#6B3F9E" stroke-width="5.284"></path>
                    <g id="Group-15" transform="translate(513.000000, 408.600000)">
                        <mask id="mask-6" fill="white">
                            <use xlink:href="#path-5"></use>
                        </mask>
                        <g id="Clip-14"></g>
                        <path d="M0.3926,96.3086 C0.4396,96.2626 0.7716,96.3086 0.8326,96.3086 L72.2206,96.3086 L198.9036,96.3086 C230.0626,96.3086 239.6936,95.3126 270.7966,96.2176 C271.1486,77.0286 265.8006,58.9416 256.6216,49.2526 C249.0826,41.2976 236.1076,36.9496 225.5126,39.7506 C212.0986,43.2976 202.9976,52.2766 194.2986,58.9416 C191.2216,32.5076 180.3016,8.4166 168.5616,3.1586 C148.3556,-5.8924 127.2376,8.4536 117.7576,22.3916 C109.9476,33.8756 105.6636,47.5216 104.0766,61.3196 C91.3896,47.2996 63.0226,36.6016 52.8026,58.8376 C48.7886,67.5726 49.1166,77.5966 49.5236,87.2016 C32.8916,82.7206 14.3346,86.2216 0.3926,96.3086" id="Fill-13" fill="#FFFFFF" mask="url(#mask-6)"></path>
                    </g>
                    <path d="M560.5557,494.0063 C560.5327,493.8603 560.5117,493.7213 560.4887,493.5723 C560.5057,493.6843 560.5207,493.7863 560.5387,493.9003 C560.5447,493.9363 560.5497,493.9703 560.5557,494.0063" id="Fill-16" fill="#FFB1A4"></path>
                    <path d="M560.4883,493.5727 C560.4673,493.4367 560.4433,493.2897 560.4263,493.1727 C560.4253,493.1617 560.4233,493.1507 560.4213,493.1407 C560.4233,493.1507 560.4253,493.1617 560.4263,493.1727 C560.4433,493.2897 560.4673,493.4357 560.4883,493.5727" id="Fill-18" fill="#FFB1A4"></path>
                    <g id="Group-22" transform="translate(529.000000, 317.600000)">
                        <mask id="mask-8" fill="white">
                            <use xlink:href="#path-7"></use>
                        </mask>
                        <g id="Clip-21"></g>
                        <path d="M23.5107,120.416 L24.8837,120.108 C24.3347,120.231 23.8737,120.335 23.5107,120.416 M67.4857,110.562 L68.1857,110.405 C68.1277,110.419 67.8877,110.473 67.4857,110.562 M5.4077,85.829 C14.6607,96.428 18.8647,104.327 20.7617,109.562 C21.6547,115.317 23.3177,125.238 25.1627,136.377 C25.2447,136.87 25.3257,137.364 25.4087,137.862 C25.4557,138.151 25.5047,138.44 25.5527,138.73 C25.6817,139.513 25.8127,140.302 25.9437,141.093 C25.9897,141.38 26.0367,141.665 26.0847,141.953 C26.2527,142.976 26.4217,144.001 26.5917,145.032 C26.6787,145.562 26.7657,146.09 26.8527,146.62 C26.9357,147.125 27.0177,147.629 27.1007,148.136 C27.2217,148.873 27.3417,149.61 27.4617,150.348 C27.5577,150.935 27.6527,151.52 27.7477,152.105 C27.8507,152.739 27.9527,153.372 28.0557,154.005 C28.1247,154.433 28.1947,154.86 28.2627,155.288 C28.4137,156.225 28.5647,157.159 28.7137,158.089 C28.7677,158.429 28.8217,158.765 28.8757,159.103 C28.9997,159.877 29.1217,160.647 29.2437,161.414 C29.2917,161.717 29.3397,162.02 29.3877,162.322 C29.5417,163.296 29.6947,164.261 29.8447,165.218 C29.8867,165.49 29.9287,165.761 29.9707,166.031 C30.1057,166.895 30.2387,167.748 30.3687,168.594 C30.3977,168.781 30.4277,168.972 30.4557,169.159 C30.6037,170.121 30.7477,171.065 30.8897,171.999 C30.9277,172.249 30.9647,172.495 31.0017,172.742 C31.1457,173.69 31.2857,174.627 31.4207,175.541 C31.4537,175.766 31.4977,176.039 31.5387,176.3 C31.5477,176.355 31.5557,176.406 31.5647,176.462 C31.6837,177.229 31.8197,178.069 31.9857,179.051 C32.0617,179.502 32.1417,179.977 32.2277,180.473 C32.5687,182.456 32.9817,184.784 33.4507,187.376 C33.8017,189.32 34.1847,191.413 34.5917,193.619 C34.6577,193.973 34.7237,194.329 34.7897,194.688 C35.5337,198.706 36.3487,203.057 37.1977,207.556 C37.4627,208.959 37.7317,210.378 38.0007,211.802 C38.4117,213.968 38.8247,216.15 39.2397,218.329 C39.6987,220.736 40.1567,223.138 40.6087,225.503 C41.0177,227.642 41.4197,229.745 41.8147,231.804 C42.2707,234.19 42.7147,236.51 43.1407,238.728 C43.5657,240.944 43.9707,243.06 44.3497,245.037 C44.5527,246.099 44.7487,247.121 44.9367,248.099 C46.2447,254.943 47.1297,259.61 47.2247,260.301 L48.0127,263.121 C48.0967,263.427 48.1967,263.738 48.2827,264.045 C48.7927,265.828 49.3537,267.63 50.0037,269.452 C50.3847,270.52 50.7917,271.594 51.2277,272.671 C51.8867,274.301 52.6347,275.939 53.4317,277.579 C53.9757,278.696 54.5537,279.812 55.1657,280.929 C56.2157,282.839 57.3687,284.741 58.6417,286.632 C59.1377,287.369 59.6257,288.106 60.1577,288.838 C60.6327,289.552 61.1127,290.217 61.5967,290.833 C62.0797,291.449 62.5697,292.018 63.0617,292.536 C64.4897,294.255 65.9967,295.959 67.6627,297.625 C67.6917,297.654 67.7167,297.684 67.7457,297.713 C69.0367,299.01 70.4177,300.242 71.8747,301.41 C72.4127,301.856 72.9697,302.291 73.5287,302.725 C72.9697,302.291 72.4127,301.856 71.8757,301.411 C84.3817,311.438 102.5947,316.628 119.6187,315.288 C119.3397,315.323 119.0667,315.373 118.7847,315.404 C119.0677,315.373 119.3397,315.323 119.6197,315.288 C130.5957,314.424 141.0667,310.84 149.2017,304.073 L149.2027,304.073 C150.1447,303.29 151.0657,302.48 151.9417,301.612 C163.3377,290.305 166.0307,273.82 170.3397,259.045 C171.3967,255.422 184.2437,224.391 180.7177,222.878 C180.4837,222.777 109.9547,192.601 109.4247,193.234 L104.0947,181.243 L68.2267,110.396 L68.2257,110.396 L67.1597,107.574 C68.0317,102.864 76.0617,58.681 72.2887,49.024 C69.9137,42.944 64.2987,40.866 60.1487,40.18 C57.4197,39.728 54.6307,40.183 52.1857,41.472 L51.9407,41.601 L47.5947,7.429 C47.0197,2.911 42.8917,-0.286 38.3737,0.289 L37.9857,0.338 C33.4677,0.912 30.2717,5.04 30.8457,9.558 L34.9227,41.616 L19.0997,14.09 C16.8297,10.142 11.7897,8.78 7.8407,11.049 L7.5017,11.243 C3.5527,13.513 2.1917,18.555 4.4617,22.503 L20.5127,50.426 C11.6007,55.248 -9.2743,69.012 5.4077,85.829" id="Fill-20" fill="#FF9DB4" mask="url(#mask-8)"></path>
                    </g>
                    <polygon id="Fill-23" fill="#FF9DB4" points="555.2197 381.0072 564.6427 398.8302 575.2057 381.8982"></polygon>
                    <path d="M562.9395,418.7904 C562.9395,418.7904 559.6985,387.6074 579.7245,380.6264 L566.6715,384.2984 C560.1785,386.1254 553.5365,381.9104 552.4265,375.2564 L579.4875,358.8874 C581.8525,357.4564 584.6105,356.8384 587.3605,357.1274 C591.5435,357.5684 597.2715,359.3114 600.0005,365.2414" id="Fill-25" fill="#FF9DB4"></path>
                    <path d="M562.9346,419.9301 C562.3606,419.9281 561.8686,419.4941 561.8066,418.9091 C561.6906,417.7891 559.5156,395.1401 571.7256,384.0581 L566.9816,385.3951 C563.5676,386.3521 559.9096,385.8161 556.9186,383.9191 C553.9326,382.0231 551.8846,378.9341 551.3026,375.4431 L551.1736,374.6821 L578.8976,357.9131 C581.4946,356.3451 584.4516,355.6791 587.4806,355.9961 C592.0436,356.4761 598.0996,358.3901 601.0346,364.7661 C601.2966,365.3371 601.0476,366.0131 600.4756,366.2771 C599.8996,366.5341 599.2286,366.2881 598.9646,365.7181 C596.4766,360.3151 591.2166,358.6821 587.2406,358.2601 C584.7296,358.0081 582.2466,358.5541 580.0776,359.8621 L553.7026,375.8141 C554.3266,378.3581 555.9146,380.5821 558.1416,381.9941 C560.5826,383.5411 563.5846,383.9831 566.3626,383.2011 L579.4146,379.5291 L580.0986,381.7011 C561.1636,388.3021 564.0406,418.3701 564.0716,418.6721 C564.1366,419.2981 563.6816,419.8581 563.0566,419.9231 C563.0146,419.9271 562.9746,419.9301 562.9346,419.9301" id="Fill-27" fill="#EF7394"></path>
                    <path d="M534.4082,403.4291 L543.9172,414.1871 C545.7272,416.2351 548.9482,416.1521 550.6502,414.0141 C553.3342,410.6441 553.4042,405.8891 550.8232,402.4411 L540.1902,388.2381 L552.3392,402.6161 C554.5362,405.2171 558.4872,405.3851 560.8972,402.9801 C562.9292,400.9531 563.3902,397.8341 562.0342,395.3061 L551.8662,376.3641" id="Fill-29" fill="#FF9DB4"></path>
                    <path d="M547.2012,416.81 C545.6172,416.807 544.1162,416.13 543.0642,414.941 L533.5552,404.184 C533.1382,403.711 533.1842,402.993 533.6542,402.576 C534.1222,402.163 534.8432,402.2 535.2622,402.674 L544.7712,413.431 C545.4102,414.156 546.3242,414.551 547.2942,414.531 C548.2602,414.505 549.1592,414.06 549.7612,413.305 C552.1192,410.342 552.1802,406.157 549.9142,403.124 L539.2782,388.919 L541.0582,387.501 L553.2082,401.88 C554.0642,402.892 555.2622,403.482 556.5862,403.538 C557.9402,403.584 559.1562,403.106 560.0942,402.174 C561.7812,400.491 562.1572,397.947 561.0292,395.845 L550.8612,376.901 C550.5642,376.347 550.7722,375.658 551.3272,375.358 C551.8772,375.068 552.5702,375.265 552.8692,375.824 L563.0372,394.768 C564.6442,397.762 564.1082,401.387 561.7012,403.788 C560.3282,405.157 558.4252,405.904 556.4882,405.813 C555.3812,405.766 554.3062,405.453 553.3572,404.915 C554.3992,408.211 553.7872,411.902 551.5422,414.723 C550.5182,416.007 548.9912,416.767 547.3522,416.809 C547.3012,416.808 547.2502,416.81 547.2012,416.81" id="Fill-31" fill="#EF7394"></path>
                    <path d="M900.4902,477.5717 L657.8472,477.5717 C671.2132,434.1387 690.6772,412.0187 714.3052,397.5697 C714.8162,397.2507 715.3472,396.9527 715.8572,396.6337 C716.6652,396.1457 717.4712,395.6997 718.2792,395.2317 C719.0452,394.8067 719.8092,394.3827 720.5742,393.9577 C721.1052,393.6807 721.6362,393.3837 722.1682,393.1067 C725.5472,391.3217 729.0112,389.6647 732.5382,388.1137 L777.7562,368.3097 L822.9732,388.1137 C826.0122,389.4527 829.0092,390.8767 831.9402,392.3837 C832.8762,392.8737 833.8102,393.3617 834.7242,393.8507 C834.9362,393.9577 835.1282,394.0627 835.3412,394.1907 C836.1902,394.6367 837.0192,395.1047 837.8472,395.5927 C839.9302,396.7617 841.9912,398.0147 844.0312,399.2907 C845.1362,399.9917 846.2412,400.7147 847.3452,401.4587 C848.3872,402.1597 849.4282,402.8607 850.4692,403.6037 C850.5542,403.6467 850.6182,403.7107 850.7032,403.7537 C851.7452,404.4967 852.7642,405.2407 853.7842,406.0057 C854.8262,406.7497 855.8242,407.5357 856.8442,408.3217 C859.1612,410.1277 861.4342,411.9977 863.6232,413.9307 C864.3872,414.6107 865.1742,415.3117 865.9182,415.9927 C866.9372,416.9057 867.9362,417.8417 868.9142,418.7977 C869.8062,419.6687 870.7192,420.5397 871.5912,421.4317 L874.3322,424.2367 L874.3322,424.2587 C875.2242,425.1927 876.0952,426.1487 876.9882,427.1267 C877.5192,427.7217 878.0302,428.3167 878.5402,428.9117 C878.8152,429.2307 879.0712,429.5497 879.3472,429.8677 C887.6132,439.8547 894.7102,452.6897 900.4902,477.5717" id="Fill-33" fill="#FF9DB4"></path>
                    <mask id="mask-10" fill="white">
                        <use xlink:href="#path-9"></use>
                    </mask>
                    <g id="Clip-36"></g>
                    <polygon id="Fill-35" fill="#FF9DB4" mask="url(#mask-10)" points="747.208 422.941 808.316 422.941 808.316 319.975 747.208 319.975"></polygon>
                    <path d="M808.3164,319.975 L808.3164,356.869 C796.8734,365.608 782.5874,370.782 767.0874,370.782 C760.1664,370.782 753.5014,369.756 747.2084,367.845 L747.2084,319.975 L808.3164,319.975 Z" id="Fill-37" fill="#F987A5" mask="url(#mask-10)"></path>
                    <path d="M626.833,337.6645 C626.833,337.6645 639.208,324.4965 628.768,304.7095 C612.127,273.1765 665.917,273.8985 658.156,238.9165 C650.395,203.9575 680.344,219.0135 693.068,186.0355 C705.816,153.0575 736.348,152.3115 757.766,165.6195" id="Stroke-38" stroke="#E73348" stroke-width="5.139" mask="url(#mask-10)"></path>
                    <path d="M890.5391,337.6645 L636.1551,337.6645 C636.1551,337.6645 648.5301,324.4965 638.0901,304.7095 C621.4491,273.1765 675.2391,273.8985 667.4781,238.9165 C659.7181,203.9575 689.6661,219.0135 702.3911,186.0355 C715.1391,153.0575 745.6701,152.3115 767.0881,165.6195 L845.8861,195.2655 L890.5391,337.6645 Z" id="Fill-39" fill="#E73348" mask="url(#mask-10)"></path>
                    <polygon id="Fill-40" fill="#CE253D" mask="url(#mask-10)" points="890.5391 337.6645 808.1991 337.6645 801.8141 215.5405 852.2481 215.5405"></polygon>
                    <path d="M728.3906,297.0443 C728.0586,309.7423 717.6036,315.6273 704.9056,315.2963 C692.2066,314.9653 682.1066,307.2563 682.4386,294.5583 C682.7696,281.8583 687.6586,268.8293 700.3566,269.1603 C713.0556,269.4923 728.7216,284.3453 728.3906,297.0443" id="Fill-41" fill="#FF9DB4" mask="url(#mask-10)"></path>
                    <path d="M827.1338,297.0443 C827.4648,309.7423 837.9198,315.6273 850.6178,315.2963 C863.3168,314.9653 873.4168,307.2563 873.0848,294.5583 C872.7538,281.8583 867.8648,268.8293 855.1668,269.1603 C842.4678,269.4923 826.8018,284.3453 827.1338,297.0443" id="Fill-42" fill="#FF9DB4" mask="url(#mask-10)"></path>
                    <path d="M845.8799,247.7001 L845.8799,286.5001 C845.8799,287.7761 845.8589,289.0081 845.7949,290.2411 C845.3919,297.6351 843.8399,304.6901 841.2479,311.2551 C839.9089,314.6341 838.3369,317.8851 836.5089,320.9881 C835.1919,323.2611 833.7039,325.4711 832.1099,327.5751 C831.5589,328.3191 830.9839,329.0411 830.3899,329.7421 C817.9159,344.9561 798.9619,354.6241 777.7559,354.6241 C756.5489,354.6241 737.6159,344.9561 725.1429,329.7421 C724.5259,329.0411 723.9749,328.3191 723.4219,327.5751 C721.8069,325.4711 720.3409,323.2611 719.0019,320.9881 C717.1959,317.9071 715.6029,314.6561 714.2849,311.2771 L714.2849,311.2551 C711.6929,304.6901 710.1199,297.6351 709.7369,290.2411 C709.6519,289.0081 709.6309,287.7761 709.6309,286.5001 L709.6309,247.7001 C709.6309,237.3301 711.9469,227.5131 716.0909,218.7381 C724.9309,199.9321 742.1629,185.8231 762.9239,181.2121 C767.7049,180.1281 772.6559,179.5751 777.7559,179.5751 C785.4689,179.5751 792.8849,180.8721 799.7909,183.2301 C809.7349,186.6091 818.6599,192.2611 825.9269,199.5281 C838.2729,211.8531 845.8799,228.8941 845.8799,247.7001" id="Fill-43" fill="#FF9DB4" mask="url(#mask-10)"></path>
                    <path d="M845.8799,254.4145 L845.8799,267.0665 C843.9189,265.5495 841.6089,264.0785 838.9469,262.6315 C809.3009,246.5015 822.1869,234.2225 804.4449,220.1925 C791.1399,209.6885 774.2859,226.5655 752.8569,203.9225 C751.3389,202.3115 749.7749,200.4915 748.1879,198.4365 C747.8839,198.0405 747.5339,197.5965 747.2069,197.1765 L750.5919,190.1035 C750.5919,190.0805 750.6149,190.0335 750.6389,189.9865 L754.7469,181.3725 C759.9989,180.1825 765.4389,179.5755 771.0409,179.5755 C779.5149,179.5755 787.6609,180.9995 795.2479,183.5905 C806.1729,187.3025 815.9769,193.5115 823.9599,201.4955 C837.5229,215.0345 845.8799,233.7555 845.8799,254.4145" id="Fill-44" fill="#F987A5" mask="url(#mask-10)"></path>
                    <g id="Group-47" mask="url(#mask-10)" fill="#F987A5">
                        <g transform="translate(709.000000, 280.600000)">
                            <path d="M136.792,9.6367 C136.396,17.0247 134.835,24.0857 132.248,30.6577 C130.919,34.0377 129.334,37.2777 127.517,40.3767 C126.188,42.6607 124.696,44.8747 123.111,46.9727 C122.553,47.7187 121.993,48.4417 121.387,49.1397 C120.198,49.3257 118.963,49.4197 117.705,49.4197 C104.211,49.4197 93.257,38.4657 93.257,24.9487 C93.257,11.4307 104.211,0.5007 117.705,0.5007 C125.419,0.5007 132.294,4.0667 136.792,9.6367" id="Fill-45"></path>
                            <path d="M44.2676,24.9482 C44.2676,38.4662 33.3136,49.4202 19.8196,49.4202 C18.5616,49.4202 17.3266,49.3262 16.1376,49.1392 C15.5316,48.4412 14.9726,47.7192 14.4136,46.9722 C12.8046,44.8752 11.3366,42.6612 10.0076,40.3772 C8.1906,37.3012 6.6056,34.0612 5.2776,30.6812 L5.2776,30.6582 C2.6896,24.0862 1.1286,17.0242 0.7326,9.6362 C5.2306,4.0662 12.1056,0.5012 19.8196,0.5012 C33.3136,0.5012 44.2676,11.4302 44.2676,24.9482" id="Fill-46"></path>
                        </g>
                    </g>
                    <polyline id="Stroke-48" stroke="#F987A5" stroke-width="3" mask="url(#mask-10)" points="777.7617 184.2548 788.4417 302.3298 767.0817 302.3298"></polyline>
                    <path d="M753.7129,276.9955 C753.7129,281.3005 750.7999,284.7895 747.2069,284.7895 C743.6139,284.7895 740.7019,281.3005 740.7019,276.9955 C740.7019,272.6915 743.6139,269.2015 747.2069,269.2015 C750.7999,269.2015 753.7129,272.6915 753.7129,276.9955" id="Fill-49" fill="#311746" mask="url(#mask-10)"></path>
                    <path d="M814.8213,276.9955 C814.8213,281.3005 811.9093,284.7895 808.3163,284.7895 C804.7233,284.7895 801.8103,281.3005 801.8103,276.9955 C801.8103,272.6915 804.7233,269.2015 808.3163,269.2015 C811.9093,269.2015 814.8213,272.6915 814.8213,276.9955" id="Fill-50" fill="#311746" mask="url(#mask-10)"></path>
                    <path d="M826.2695,246.3021 C825.4615,239.0211 804.8515,235.8561 800.2475,242.7761 C795.6415,249.6961 827.4465,256.9231 826.2695,246.3021" id="Fill-51" fill="#E73348" mask="url(#mask-10)"></path>
                    <path d="M729.2539,246.3021 C730.0609,239.0211 750.6719,235.8561 755.2759,242.7761 C759.8809,249.6961 728.0769,256.9231 729.2539,246.3021" id="Fill-52" fill="#E73348" mask="url(#mask-10)"></path>
                    <path d="M758.4541,314.976 C758.4541,314.976 776.3181,332.507 797.0691,314.976" id="Stroke-53" stroke="#311746" stroke-width="1.927" mask="url(#mask-10)"></path>
                    <path d="M767.2158,185.5985 C751.4928,212.9865 740.7018,199.2975 730.1738,211.1915 C723.1348,219.1435 728.9188,228.7735 716.8618,243.0255 C706.4168,255.3715 709.6388,271.6325 709.6388,271.6325 L705.4128,265.8635 L705.4128,223.6055 L736.3148,174.4115 L767.2158,178.8845 L767.2158,185.5985 Z" id="Fill-54" fill="#E73348" mask="url(#mask-10)"></path>
                    <path d="M946.1943,337.6645 L869.9143,337.6645 C869.9143,337.6645 880.8673,324.8225 861.7333,308.5555 C838.8243,289.0945 878.3273,263.5745 841.9703,243.8345 C814.9823,229.1515 826.7053,217.9645 810.5533,205.1925 C798.4583,195.6375 783.0993,210.9965 763.5913,190.3935 C762.2163,188.9255 760.7963,187.2705 759.3503,185.4065 C759.0713,185.0335 758.7673,184.6375 758.4653,184.2415 L761.5413,177.8085 C761.5413,177.7855 761.5643,177.7385 761.5883,177.7155 L765.4803,169.5355 L767.0883,166.1555 C788.0633,142.4775 817.6853,140.2625 840.3153,172.9615 C862.9683,205.6595 895.8773,189.2055 891.7753,226.2385 C887.6493,263.2955 940.3443,244.3475 929.6473,280.5645 C918.9263,316.8055 950.2263,306.5275 946.1943,337.6645" id="Fill-55" fill="#E73348" mask="url(#mask-10)"></path>
                    <path d="M907.5234,520.0697 L647.9874,520.0697 C650.7504,503.9847 654.0654,489.9177 657.8474,477.5717 C671.2124,434.1387 690.6764,412.0187 714.3054,397.5697 C714.6574,397.3497 715.0184,397.1397 715.3764,396.9267 C716.0864,396.5037 716.7854,396.0617 717.5074,395.6607 C719.0484,394.8047 720.5884,393.9497 722.1284,393.0927 C722.1444,393.0987 722.1524,393.1017 722.1684,393.1067 C742.7944,441.1147 810.8284,441.1977 831.5704,393.2407 L831.9404,392.3837 C832.8764,392.8737 833.8104,393.3617 834.7244,393.8507 C834.9364,393.9577 835.1274,394.0627 835.3404,394.1907 C836.1904,394.6367 837.0194,395.1047 837.8474,395.5927 C839.9304,396.7617 841.9914,398.0147 844.0314,399.2907 C845.1364,399.9917 846.2414,400.7147 847.3454,401.4587 C848.3874,402.1597 849.4284,402.8607 850.4694,403.6037 C850.5544,403.6467 850.6184,403.7107 850.7034,403.7537 C851.7454,404.4967 852.7644,405.2407 853.7844,406.0057 C854.8074,406.7367 855.7914,407.5077 856.7934,408.2817 C859.1974,410.1357 861.5344,412.0727 863.8024,414.0907 C864.5104,414.7207 865.2324,415.3657 865.9184,415.9927 C866.9374,416.9057 867.9364,417.8407 868.9144,418.7977 C869.8064,419.6687 870.7194,420.5397 871.5904,421.4317 L874.3324,424.2367 L874.3324,424.2577 C875.2244,425.1927 876.0954,426.1487 876.9884,427.1267 C877.5194,427.7217 878.0304,428.3167 878.5404,428.9117 C878.8154,429.2307 879.0714,429.5487 879.3474,429.8677 C887.6134,439.8547 894.7104,452.6897 900.4904,477.5717 C903.1254,488.9397 905.4614,502.8157 907.5234,520.0697" id="Fill-56" fill="#6B3F9E" mask="url(#mask-10)"></path>
                    <path d="M718.0225,401.9682 C718.3545,402.7402 718.6975,403.5002 719.0505,404.2492" id="Stroke-57" stroke="#FFFFFF" mask="url(#mask-10)"></path>
                    <path d="M721.3564,408.6938 C746.0974,452.3308 810.9314,451.3798 833.8894,405.7398" id="Stroke-58" stroke="#FFFFFF" stroke-dasharray="5.006,5.006" mask="url(#mask-10)"></path>
                    <path d="M834.9746,403.4809 C835.1816,403.0289 835.3846,402.5729 835.5836,402.1119 L835.9816,401.1919" id="Stroke-59" stroke="#FFFFFF" mask="url(#mask-10)"></path>
                    <line x1="835.4209" y1="520.0697" x2="850.1099" y2="396.0167" id="Stroke-60" stroke="#E73348" stroke-width="10.278" mask="url(#mask-10)"></line>
                    <line x1="719.7715" y1="520.0697" x2="698.8575" y2="399.1547" id="Stroke-61" stroke="#E73348" stroke-width="10.278" mask="url(#mask-10)"></line>
                    <path d="M705.6592,293.0668 C704.8152,290.1308 701.8492,282.3788 694.1442,282.8228 C692.2732,282.9918 690.5982,283.7128 689.1792,284.6658 C690.8192,284.2018 692.5432,284.0868 694.0592,284.4508 C695.5862,284.8028 696.8012,285.6468 697.6092,286.7448 C698.3562,287.6638 698.7272,288.8958 699.0382,290.1008 C696.7362,290.9428 695.2812,293.3198 695.6952,295.8258 C696.1642,298.6598 698.8412,300.5768 701.6752,300.1088 C704.5092,299.6398 706.4262,296.9628 705.9572,294.1288 C705.8952,293.7568 705.7922,293.4038 705.6592,293.0668" id="Fill-62" fill="#EF7394" mask="url(#mask-10)"></path>
                    <path d="M704.4697,313.392 C704.4697,315.716 702.5847,317.601 700.2607,317.601 C697.9357,317.601 696.0517,315.716 696.0517,313.392 C696.0517,311.067 697.9357,309.183 700.2607,309.183 C702.5847,309.183 704.4697,311.067 704.4697,313.392" id="Fill-63" fill="#FFFFFF" mask="url(#mask-10)"></path>
                    <path d="M856.7187,313.392 C856.7187,315.716 854.8347,317.601 852.5097,317.601 C850.1857,317.601 848.3007,315.716 848.3007,313.392 C848.3007,311.067 850.1857,309.183 852.5097,309.183 C854.8347,309.183 856.7187,311.067 856.7187,313.392" id="Fill-64" fill="#FFFFFF" mask="url(#mask-10)"></path>
                    <path d="M727.7666,291.433 C727.7666,292.437 726.9546,293.249 725.9506,293.249 C724.9476,293.249 724.1336,292.437 724.1336,291.433 C724.1336,290.43 724.9476,289.617 725.9506,289.617 C726.9546,289.617 727.7666,290.43 727.7666,291.433" id="Fill-65" fill="#E73348" mask="url(#mask-10)"></path>
                    <path d="M736.8848,291.433 C736.8848,292.437 736.0728,293.249 735.0688,293.249 C734.0658,293.249 733.2518,292.437 733.2518,291.433 C733.2518,290.43 734.0658,289.617 735.0688,289.617 C736.0728,289.617 736.8848,290.43 736.8848,291.433" id="Fill-66" fill="#E73348" mask="url(#mask-10)"></path>
                    <path d="M732.791,297.8734 C732.791,298.8774 731.978,299.6894 730.975,299.6894 C729.971,299.6894 729.158,298.8774 729.158,297.8734 C729.158,296.8704 729.971,296.0574 730.975,296.0574 C731.978,296.0574 732.791,296.8704 732.791,297.8734" id="Fill-67" fill="#E73348" mask="url(#mask-10)"></path>
                    <path d="M744.2705,297.8734 C744.2705,298.8774 743.4575,299.6894 742.4545,299.6894 C741.4515,299.6894 740.6375,298.8774 740.6375,297.8734 C740.6375,296.8704 741.4515,296.0574 742.4545,296.0574 C743.4575,296.0574 744.2705,296.8704 744.2705,297.8734" id="Fill-68" fill="#E73348" mask="url(#mask-10)"></path>
                    <path d="M830.4346,291.433 C830.4346,292.437 831.2476,293.249 832.2506,293.249 C833.2546,293.249 834.0686,292.437 834.0686,291.433 C834.0686,290.43 833.2546,289.617 832.2506,289.617 C831.2476,289.617 830.4346,290.43 830.4346,291.433" id="Fill-69" fill="#E73348" mask="url(#mask-10)"></path>
                    <path d="M821.3164,291.433 C821.3164,292.437 822.1294,293.249 823.1334,293.249 C824.1364,293.249 824.9504,292.437 824.9504,291.433 C824.9504,290.43 824.1364,289.617 823.1334,289.617 C822.1294,289.617 821.3164,290.43 821.3164,291.433" id="Fill-70" fill="#E73348" mask="url(#mask-10)"></path>
                    <path d="M825.4111,297.8734 C825.4111,298.8774 826.2241,299.6894 827.2271,299.6894 C828.2301,299.6894 829.0441,298.8774 829.0441,297.8734 C829.0441,296.8704 828.2301,296.0574 827.2271,296.0574 C826.2241,296.0574 825.4111,296.8704 825.4111,297.8734" id="Fill-71" fill="#E73348" mask="url(#mask-10)"></path>
                    <path d="M813.9316,297.8734 C813.9316,298.8774 814.7446,299.6894 815.7476,299.6894 C816.7506,299.6894 817.5646,298.8774 817.5646,297.8734 C817.5646,296.8704 816.7506,296.0574 815.7476,296.0574 C814.7446,296.0574 813.9316,296.8704 813.9316,297.8734" id="Fill-72" fill="#E73348" mask="url(#mask-10)"></path>
                    <path d="M383.7598,355.184 C380.7318,354.76 377.9348,356.946 377.2088,359.916 L373.6418,374.543 C373.0218,377.085 369.6998,377.723 368.1818,375.59 C366.8948,373.78 366.2248,371.602 366.2758,369.38 L367.0388,335.942 C367.1168,332.516 364.2308,329.71 360.7238,329.981 C357.6758,330.217 355.4118,332.953 355.3418,336.01 L354.6078,368.188 C354.5538,370.584 352.5648,372.484 350.1668,372.427 C348.2888,372.383 346.7208,370.98 346.4718,369.119 L341.6688,333.413 C341.2118,330.017 337.9238,327.696 334.5018,328.51 C331.5278,329.218 329.7178,332.274 330.1248,335.304 L335.0618,372.007 C335.2668,373.527 334.2588,374.945 332.7578,375.252 L331.8698,375.435 C330.5758,375.7 329.2728,375.022 328.7468,373.81 L316.9878,346.708 C315.6798,343.695 311.9748,341.766 308.7548,342.423 C305.7928,343.708 304.4338,347.151 305.7188,350.113 C305.7188,350.113 322.6278,388.995 322.7008,389.132 C323.7688,392.342 324.5958,396.429 323.8168,400.226 C323.2808,402.835 319.7208,403.311 318.4278,400.981 C315.3278,395.393 310.6168,386.915 310.6168,386.915 C308.9468,383.923 305.0358,382.968 302.1508,384.98 C299.6438,386.729 299.0788,390.234 300.5698,392.905 L308.8118,407.676 C308.7508,407.652 313.3208,421.851 321.4098,432.036 L319.4258,439.573 L317.0818,447.827 L317.2508,447.842 L283.6168,529.156 L260.4938,509.685 L208.5278,589.185 L267.5598,638.159 C292.9098,662.035 319.0648,653.615 332.6978,637.134 C336.8848,632.075 339.8418,625.819 340.9528,618.676 L366.8498,452.341 L366.9808,452.354 L367.9848,445.053 L368.1098,444.254 C371.2048,437.232 377.6558,420.39 381.5598,394.434 L388.6488,362.363 C389.4598,359.034 387.2428,355.673 383.7598,355.184" id="Fill-73" fill="#FF9DB4" mask="url(#mask-10)"></path>
                    <path d="M338.1748,419.1527 C338.1198,419.1627 338.0648,419.1697 338.0088,419.1737 C336.9688,419.2557 336.0558,418.4757 335.9738,417.4337 C335.0988,406.3747 324.2318,402.9627 323.7698,402.8237 C322.7708,402.5197 322.2018,401.4657 322.5018,400.4647 C322.8018,399.4657 323.8508,398.8967 324.8528,399.1927 C325.4158,399.3597 338.6678,403.4507 339.7488,417.1347 C339.8268,418.1237 339.1348,418.9937 338.1748,419.1527" id="Fill-74" fill="#EF7394" mask="url(#mask-10)"></path>
                    <polygon id="Fill-75" fill="#6B3F9E" mask="url(#mask-10)" points="91.3027 373.5463 145.6817 349.8053 200.0607 373.5463 176.7937 422.1083 113.8667 422.1083"></polygon>
                    <path d="M221.4453,288.3725 L230.4563,237.2055 C233.3203,220.9425 223.2163,205.2065 207.2363,201.0435 L189.2663,196.3635 L189.2663,286.5505 L221.4453,288.3725 Z" id="Fill-76" fill="#311746" mask="url(#mask-10)"></path>
                    <path d="M68.5273,288.3725 L59.5153,237.2055 C56.6523,220.9425 66.7563,205.2065 82.7363,201.0435 L100.7063,196.3635 L100.7063,286.5505 L68.5273,288.3725 Z" id="Fill-77" fill="#311746" mask="url(#mask-10)"></path>
                    <path d="M91.3027,216.4779 C76.4997,180.3089 99.4907,152.5799 142.9777,157.1249 C153.5967,158.2339 162.4477,156.8799 169.7317,153.9729 C186.4077,147.3169 205.0657,157.3569 216.1647,169.7979 C224.1537,178.7509 230.9407,203.9889 202.0177,203.9889 L188.8807,207.8599 L91.3027,216.4779 Z" id="Fill-78" fill="#311746" mask="url(#mask-10)"></path>
                    <path d="M86.3408,210.0526 C83.9028,202.0046 83.6958,193.4646 85.4428,185.4226 C87.1678,177.3746 90.9948,169.8036 96.4988,163.7856 C101.9868,157.7416 109.1978,153.4276 116.9038,151.2516 C120.7578,150.1536 124.7208,149.5126 128.6918,149.3216 C132.6638,149.1456 136.6298,149.3656 140.5508,149.8456 C136.6068,149.5876 132.6538,149.5936 128.7428,149.9886 C124.8348,150.3986 120.9878,151.2496 117.3098,152.5266 C109.9448,155.0646 103.3438,159.5826 98.5228,165.5356 C93.6848,171.4686 90.5488,178.6936 89.3838,186.1746 C88.1948,193.6476 88.8618,201.3846 91.4118,208.3456 L86.3408,210.0526 Z" id="Fill-79" fill="#311746" mask="url(#mask-10)"></path>
                    <path d="M86.2607,209.7582 C85.9747,207.5242 85.3617,205.3992 84.1107,203.7992 C82.9067,202.1532 80.8457,201.2482 78.5297,200.9552 C76.2027,200.6682 73.6887,200.9812 71.2397,201.5582 C68.7827,202.1412 66.3567,202.9942 63.9827,203.9882 C66.1497,202.6002 68.4097,201.3272 70.8207,200.2882 C73.2297,199.2642 75.7997,198.4372 78.6107,198.2812 C78.9617,198.2692 79.3137,198.2342 79.6697,198.2432 L80.7497,198.3292 C81.4777,198.3462 82.1967,198.5782 82.9287,198.7472 C83.6577,198.9322 84.3417,199.3122 85.0557,199.6122 C85.6827,200.0492 86.3887,200.4402 86.9537,200.9682 C89.3177,203.0632 90.6417,205.9022 91.4917,208.6402 L86.2607,209.7582 Z" id="Fill-80" fill="#311746" mask="url(#mask-10)"></path>
                    <path d="M220.3057,256.225 L220.3057,288.372 L69.6617,288.372 L69.6617,256.225 C69.6617,236.136 77.0127,217.794 89.1197,203.989 C102.9017,188.218 122.8447,178.319 144.9957,178.319 C165.7887,178.319 184.6167,187.029 198.2507,201.15 C211.8627,215.246 220.3057,234.729 220.3057,256.225" id="Fill-81" fill="#311746" mask="url(#mask-10)"></path>
                    <path d="M20.6768,495.3588 L272.7438,495.3588 C266.1738,467.0218 257.9228,453.7048 248.3008,442.8658 C247.3938,441.8258 246.4648,440.8308 245.5348,439.8358 C239.9168,433.8838 233.8558,428.3768 227.3968,423.3328 C225.2508,421.6298 223.0608,420.0148 220.8258,418.4438 C218.5918,416.8518 216.3138,415.3468 213.9908,413.8658 C211.6678,412.4048 209.3018,410.9898 206.9118,409.6398 C204.5238,408.2688 202.0898,406.9858 199.6128,405.7468 C197.1348,404.5308 194.6138,403.3358 192.0698,402.2298 L186.0308,399.5748 L186.0078,399.5748 L144.9958,381.6128 L104.6478,399.2648 L104.6248,399.2648 L97.9008,402.2298 C95.5118,403.2688 93.1448,404.3758 90.8228,405.5258 C90.0478,405.9018 89.2738,406.2988 88.5218,406.6978 C86.6188,407.6938 84.7168,408.7328 82.8588,409.8388 L20.6768,495.3588 Z" id="Fill-82" fill="#FF9DB4" mask="url(#mask-10)"></path>
                    <polygon id="Fill-83" fill="#FF9DB4" mask="url(#mask-10)" points="113.179 438.483 176.794 438.483 176.794 331.293 113.179 331.293"></polygon>
                    <path d="M176.7939,331.2924 L176.7939,369.6994 C164.8809,378.7984 150.0089,384.1844 133.8739,384.1844 C126.6679,384.1844 119.7299,383.1164 113.1789,381.1274 L113.1789,331.2924 L176.7939,331.2924 Z" id="Fill-84" fill="#F987A5" mask="url(#mask-10)"></path>
                    <path d="M215.9043,256.0551 L215.9043,296.4521 C215.9043,297.7621 215.8813,299.0481 215.8073,300.3341 C215.3953,308.0251 213.7693,315.3761 211.0763,322.2191 C209.6933,325.7371 208.0443,329.1091 206.1513,332.3351 C204.7683,334.7131 203.2163,337.0181 201.5653,339.2011 C200.9833,339.9791 200.4013,340.7311 199.7703,341.4581 C186.7903,357.3011 167.0643,367.3701 144.9863,367.3701 C122.9073,367.3701 103.1823,357.3011 90.2023,341.4581 C89.5713,340.7311 88.9893,339.9791 88.4063,339.2011 C86.7323,337.0181 85.2043,334.7131 83.8213,332.3351 C81.9283,329.1331 80.2783,325.7611 78.8953,322.2431 L78.8953,322.2191 C76.2033,315.3761 74.5773,308.0251 74.1653,300.3341 C74.0923,299.0481 74.0673,297.7621 74.0673,296.4521 L74.0673,256.0551 C74.0673,245.2591 76.4693,235.0441 80.7883,225.8981 C92.1193,201.8051 116.6243,185.1371 144.9863,185.1371 C153.0163,185.1371 160.7323,186.4721 167.9143,188.9461 C178.2743,192.4641 187.5663,198.3351 195.1363,205.9051 C207.9703,218.7401 215.9043,236.4751 215.9043,256.0551" id="Fill-85" fill="#FF9DB4" mask="url(#mask-10)"></path>
                    <polyline id="Stroke-86" stroke="#F987A5" stroke-width="3" mask="url(#mask-10)" points="144.9854 190.0033 156.1034 312.9233 133.8674 312.9233"></polyline>
                    <path d="M198.6699,203.9887 L198.6699,219.4677 C198.6699,223.1077 199.3979,226.6747 200.7559,229.9737 C202.1399,233.2737 204.1289,236.3057 206.7249,238.8777 C211.8679,244.0207 214.7549,251.0097 214.7549,258.2877 L214.7549,286.5527 L221.4769,288.3727 L221.4769,256.2247 C221.4769,236.1357 214.1249,217.7937 202.0179,203.9887 L198.6699,203.9887 Z" id="Fill-87" fill="#311746" mask="url(#mask-10)"></path>
                    <path d="M91.3027,203.9887 L102.5217,196.3637 C106.6267,199.4017 103.7507,233.6857 83.2477,238.8777 C76.1967,240.6627 75.2167,251.0097 75.2167,258.2877 L75.2167,286.5527 L68.4957,288.3727 L68.4957,256.2247 C68.4957,236.1357 75.8477,217.7937 87.9537,203.9887 L91.3027,203.9887 Z" id="Fill-88" fill="#311746" mask="url(#mask-10)"></path>
                    <path d="M215.9141,255.3471 L215.9141,263.5721 C215.9141,243.9921 207.9801,226.2561 195.1461,213.4211 C187.5761,205.8521 178.2841,199.9801 167.9241,196.4621 C160.7421,193.9881 153.0261,192.6531 144.9961,192.6531 C116.6331,192.6531 92.1291,209.3211 80.7981,233.4141 C76.4791,242.5601 74.0771,252.7751 74.0771,263.5721 L74.0771,255.3471 C74.0771,244.5501 76.4791,234.3361 80.7981,225.1891 C92.1291,201.0971 116.6331,184.4291 144.9961,184.4291 C153.0261,184.4291 160.7421,185.7631 167.9241,188.2381 C178.2841,191.7561 187.5761,197.6271 195.1461,205.1971 C207.9801,218.0311 215.9141,235.7671 215.9141,255.3471" id="Fill-89" fill="#311746" mask="url(#mask-10)"></path>
                    <path d="M196.3828,307.4213 C196.7278,320.6403 207.6118,326.7673 220.8308,326.4223 C234.0508,326.0773 244.5658,318.0523 244.2208,304.8323 C243.8758,291.6123 238.7858,278.0483 225.5678,278.3943 C212.3468,278.7383 196.0378,294.2003 196.3828,307.4213" id="Fill-90" fill="#FF9DB4" mask="url(#mask-10)"></path>
                    <line x1="230.083" y1="291.3861" x2="216.803" y2="306.8971" id="Stroke-91" stroke="#F987A5" stroke-width="2.006" mask="url(#mask-10)"></line>
                    <path d="M93.5879,307.4213 C93.2429,320.6403 82.3589,326.7673 69.1399,326.4223 C55.9199,326.0773 45.4049,318.0523 45.7509,304.8323 C46.0959,291.6123 51.1849,278.0483 64.4039,278.3943 C77.6239,278.7383 93.9339,294.2003 93.5879,307.4213" id="Fill-92" fill="#FF9DB4" mask="url(#mask-10)"></path>
                    <line x1="59.8887" y1="291.3861" x2="73.1687" y2="306.8971" id="Stroke-93" stroke="#F987A5" stroke-width="2.006" mask="url(#mask-10)"></line>
                    <path d="M119.9502,286.5502 C119.9502,291.0302 116.9182,294.6632 113.1782,294.6632 C109.4372,294.6632 106.4052,291.0302 106.4052,286.5502 C106.4052,282.0692 109.4372,278.4362 113.1782,278.4362 C116.9182,278.4362 119.9502,282.0692 119.9502,286.5502" id="Fill-94" fill="#311746" mask="url(#mask-10)"></path>
                    <path d="M183.5664,286.5502 C183.5664,291.0302 180.5344,294.6632 176.7944,294.6632 C173.0534,294.6632 170.0214,291.0302 170.0214,286.5502 C170.0214,282.0692 173.0534,278.4362 176.7944,278.4362 C180.5344,278.4362 183.5664,282.0692 183.5664,286.5502" id="Fill-95" fill="#311746" mask="url(#mask-10)"></path>
                    <path d="M195.4834,254.5971 C194.6434,247.0171 173.1864,243.7221 168.3924,250.9261 C163.5994,258.1291 196.7084,265.6541 195.4834,254.5971" id="Fill-96" fill="#311746" mask="url(#mask-10)"></path>
                    <path d="M94.4873,254.5971 C95.3283,247.0171 116.7843,243.7221 121.5783,250.9261 C126.3723,258.1291 93.2623,265.6541 94.4873,254.5971" id="Fill-97" fill="#311746" mask="url(#mask-10)"></path>
                    <path d="M124.8857,326.0893 C124.8857,326.0893 143.4837,344.3393 165.0847,326.0893" id="Stroke-98" stroke="#311746" stroke-width="2.006" mask="url(#mask-10)"></path>
                    <path d="M280.0664,539.6 L9.9034,539.6 C12.8894,522.988 16.4954,508.322 20.6764,495.359 C36.3374,446.494 59.8964,421.652 88.5214,406.698 C89.2734,406.299 90.0474,405.902 90.8224,405.526 C93.1444,404.353 95.5114,403.247 97.9004,402.207 L104.6254,399.265 L104.6474,399.265 L145.6814,454.482 L186.0074,399.575 L186.0304,399.575 L192.0694,402.207 C194.6134,403.313 197.1344,404.508 199.6124,405.746 C202.0894,406.986 204.5234,408.269 206.9124,409.64 C209.3014,410.99 211.6684,412.405 213.9914,413.866 C216.3134,415.347 218.5914,416.852 220.8264,418.444 C223.0604,420.015 225.2514,421.652 227.3964,423.332 C233.8554,428.376 239.9174,433.884 245.5354,439.835 C246.4644,440.83 247.3934,441.826 248.3004,442.866 C257.9224,453.704 266.1734,467.022 272.7444,495.359 C275.4874,507.193 277.9204,521.638 280.0664,539.6" id="Fill-99" fill="#E73348" mask="url(#mask-10)"></path>
                    <path d="M144.9844,469.433 C139.2834,469.433 139.2804,478.281 144.9844,478.281 C150.6864,478.281 150.6894,469.433 144.9844,469.433" id="Fill-100" fill="#FFFFFF" mask="url(#mask-10)"></path>
                    <path d="M91.3027,438.4828 C92.5937,436.8648 91.3027,373.5458 91.3027,373.5458 L118.7257,386.7498 C126.8917,390.6808 132.8227,398.1178 134.8377,406.9538 L145.6817,454.4818 L91.3027,438.4828 Z" id="Fill-101" fill="#E73348" mask="url(#mask-10)"></path>
                    <path d="M200.0605,438.4828 C198.7695,436.8648 200.0605,373.5458 200.0605,373.5458 L172.6365,386.7498 C164.4715,390.6808 158.5405,398.1178 156.5255,406.9538 L145.6815,454.4818 L200.0605,438.4828 Z" id="Fill-102" fill="#E73348" mask="url(#mask-10)"></path>
                    <path d="M120.7422,313.0414 C119.7432,319.5254 110.5102,323.4834 100.1202,321.8834 C89.7292,320.2814 82.1162,313.7274 83.1162,307.2424 C84.1152,300.7584 93.3472,296.8004 103.7382,298.4004 C114.1292,300.0024 121.7422,306.5574 120.7422,313.0414" id="Fill-103" fill="#F987A5" mask="url(#mask-10)"></path>
                    <path d="M207.9189,307.1449 C209.2289,313.5739 201.9389,320.4859 191.6369,322.5829 C181.3349,324.6809 171.9229,321.1699 170.6139,314.7409 C169.3049,308.3119 176.5949,301.3999 186.8969,299.3019 C197.1979,297.2049 206.6099,300.7159 207.9189,307.1449" id="Fill-104" fill="#F987A5" mask="url(#mask-10)"></path>
                    <path d="M164.8711,211.8422 C162.1881,220.6532 145.2661,223.3052 127.0721,217.7672 C108.8801,212.2282 96.3061,200.5952 98.9881,191.7852 C101.6711,182.9742 118.5941,180.3212 136.7861,185.8602 C154.9791,191.3992 167.5541,203.0312 164.8711,211.8422" id="Fill-105" fill="#311746" mask="url(#mask-10)"></path>
                    <path d="M200.1348,232.3261 C193.3638,238.5691 177.4248,232.2961 164.5328,218.3141 C151.6428,204.3331 146.6818,187.9371 153.4528,181.6941 C160.2248,175.4511 176.1638,181.7241 189.0548,195.7061 C201.9458,209.6881 206.9058,226.0831 200.1348,232.3261" id="Fill-106" fill="#311746" mask="url(#mask-10)"></path>
                    <path d="M560.5557,494.0063 C560.5327,493.8603 560.5117,493.7213 560.4887,493.5723 C560.5057,493.6843 560.5207,493.7863 560.5387,493.9003 C560.5447,493.9363 560.5497,493.9703 560.5557,494.0063" id="Fill-107" fill="#FFB1A4" mask="url(#mask-10)"></path>
                    <path d="M560.4883,493.5727 C560.4673,493.4367 560.4433,493.2897 560.4263,493.1727 C560.4253,493.1617 560.4233,493.1507 560.4213,493.1407 C560.4233,493.1507 560.4253,493.1617 560.4263,493.1727 C560.4433,493.2897 560.4673,493.4357 560.4883,493.5727" id="Fill-108" fill="#FFB1A4" mask="url(#mask-10)"></path>
                    <path d="M552.5107,438.016 L553.8837,437.708 C553.3347,437.831 552.8737,437.935 552.5107,438.016 M596.4857,428.162 L597.1857,428.005 C597.1277,428.019 596.8877,428.073 596.4857,428.162 M534.4077,403.429 C543.6607,414.028 547.8647,421.927 549.7617,427.162 C550.6547,432.917 552.3177,442.838 554.1627,453.977 C554.2447,454.47 554.3257,454.964 554.4087,455.462 C554.4557,455.751 554.5047,456.04 554.5527,456.33 C554.6817,457.113 554.8127,457.902 554.9437,458.693 C554.9897,458.98 555.0367,459.265 555.0847,459.553 C555.2527,460.576 555.4217,461.601 555.5917,462.632 C555.6787,463.162 555.7657,463.69 555.8527,464.22 C555.9357,464.725 556.0177,465.229 556.1007,465.736 C556.2217,466.473 556.3417,467.21 556.4617,467.948 C556.5577,468.535 556.6527,469.12 556.7477,469.705 C556.8507,470.339 556.9527,470.972 557.0557,471.605 C557.1247,472.033 557.1947,472.46 557.2627,472.888 C557.4137,473.825 557.5647,474.759 557.7137,475.689 C557.7677,476.029 557.8217,476.365 557.8757,476.703 C557.9997,477.477 558.1217,478.247 558.2437,479.014 C558.2917,479.317 558.3397,479.62 558.3877,479.922 C558.5417,480.896 558.6947,481.861 558.8447,482.818 C558.8867,483.09 558.9287,483.361 558.9707,483.631 C559.1057,484.495 559.2387,485.348 559.3687,486.194 C559.3977,486.381 559.4277,486.572 559.4557,486.759 C559.6037,487.721 559.7477,488.665 559.8897,489.599 C559.9277,489.849 559.9647,490.095 560.0017,490.342 C560.1457,491.29 560.2857,492.227 560.4207,493.141 C560.4537,493.366 560.4977,493.639 560.5387,493.9 C560.5477,493.955 560.5557,494.006 560.5647,494.062 C560.6837,494.829 560.8197,495.669 560.9857,496.651 C561.0617,497.102 561.1417,497.577 561.2277,498.073 C561.5687,500.056 561.9817,502.384 562.4507,504.976 C562.8017,506.92 563.1847,509.013 563.5917,511.219 C563.6577,511.573 563.7237,511.929 563.7897,512.288 C564.5337,516.306 565.3487,520.657 566.1977,525.156 C566.4627,526.559 566.7317,527.978 567.0007,529.402 C567.4117,531.568 567.8247,533.75 568.2397,535.929 C568.6987,538.336 569.1567,540.738 569.6087,543.103 C570.0177,545.242 570.4197,547.345 570.8147,549.404 C571.2707,551.79 571.7147,554.11 572.1407,556.328 C572.5657,558.544 572.9707,560.66 573.3497,562.637 C573.5527,563.699 573.7487,564.721 573.9367,565.699 C575.2447,572.543 576.1297,577.21 576.2247,577.901 L577.0127,580.721 C577.0967,581.027 577.1967,581.338 577.2827,581.645 C577.7927,583.428 578.3537,585.23 579.0037,587.052 C579.3847,588.12 579.7917,589.194 580.2277,590.271 C580.8867,591.901 581.6347,593.539 582.4317,595.179 C582.9757,596.296 583.5537,597.412 584.1657,598.529 C585.2157,600.439 586.3687,602.341 587.6417,604.232 C588.1377,604.969 588.6257,605.706 589.1577,606.438 C589.6327,607.152 590.1127,607.817 590.5967,608.433 C591.0797,609.049 591.5697,609.618 592.0617,610.136 C593.4897,611.855 594.9967,613.559 596.6627,615.225 C596.6917,615.254 596.7167,615.284 596.7457,615.313 C598.0367,616.61 599.4177,617.842 600.8747,619.01 C601.4127,619.456 601.9697,619.891 602.5287,620.325 C601.9697,619.891 601.4127,619.456 600.8757,619.011 C613.3817,629.038 631.5947,634.228 648.6187,632.888 C648.3397,632.923 648.0667,632.973 647.7847,633.004 C648.0677,632.973 648.3397,632.923 648.6197,632.888 C659.5957,632.024 670.0667,628.44 678.2017,621.673 L678.2027,621.673 C679.1447,620.89 680.0657,620.08 680.9417,619.212 C692.3377,607.905 695.0307,591.42 699.3397,576.645 C700.3967,573.022 713.2437,541.991 709.7177,540.478 C709.4837,540.377 638.9547,510.201 638.4247,510.834 L633.0947,498.843 L597.2267,427.996 L597.2257,427.996 L596.1597,425.174 C597.0317,420.464 605.0617,376.281 601.2887,366.624 C598.9137,360.544 593.2987,358.466 589.1487,357.78 C586.4197,357.328 583.6307,357.783 581.1857,359.072 L580.9407,359.201 L576.5947,325.029 C576.0197,320.511 571.8917,317.314 567.3737,317.889 L566.9857,317.938 C562.4677,318.512 559.2717,322.64 559.8457,327.158 L563.9227,359.216 L548.0997,331.69 C545.8297,327.742 540.7897,326.38 536.8407,328.649 L536.5017,328.843 C532.5527,331.113 531.1917,336.155 533.4617,340.103 L549.5127,368.026 C540.6007,372.848 519.7257,386.612 534.4077,403.429" id="Fill-109" fill="#FF9DB4" mask="url(#mask-10)"></path>
                    <polygon id="Fill-110" fill="#FF9DB4" mask="url(#mask-10)" points="555.2197 381.0072 564.6427 398.8302 575.2057 381.8982"></polygon>
                    <path d="M562.9395,418.7904 C562.9395,418.7904 559.6985,387.6074 579.7245,380.6264 L566.6715,384.2984 C560.1785,386.1254 553.5365,381.9104 552.4265,375.2564 L579.4875,358.8874 C581.8525,357.4564 584.6105,356.8384 587.3605,357.1274 C591.5435,357.5684 597.2715,359.3114 600.0005,365.2414" id="Fill-111" fill="#FF9DB4" mask="url(#mask-10)"></path>
                    <path d="M562.9346,419.9301 C562.3606,419.9281 561.8686,419.4941 561.8066,418.9091 C561.6906,417.7891 559.5156,395.1401 571.7256,384.0581 L566.9816,385.3951 C563.5676,386.3521 559.9096,385.8161 556.9186,383.9191 C553.9326,382.0231 551.8846,378.9341 551.3026,375.4431 L551.1736,374.6821 L578.8976,357.9131 C581.4946,356.3451 584.4516,355.6791 587.4806,355.9961 C592.0436,356.4761 598.0996,358.3901 601.0346,364.7661 C601.2966,365.3371 601.0476,366.0131 600.4756,366.2771 C599.8996,366.5341 599.2286,366.2881 598.9646,365.7181 C596.4766,360.3151 591.2166,358.6821 587.2406,358.2601 C584.7296,358.0081 582.2466,358.5541 580.0776,359.8621 L553.7026,375.8141 C554.3266,378.3581 555.9146,380.5821 558.1416,381.9941 C560.5826,383.5411 563.5846,383.9831 566.3626,383.2011 L579.4146,379.5291 L580.0986,381.7011 C561.1636,388.3021 564.0406,418.3701 564.0716,418.6721 C564.1366,419.2981 563.6816,419.8581 563.0566,419.9231 C563.0146,419.9271 562.9746,419.9301 562.9346,419.9301" id="Fill-112" fill="#EF7394" mask="url(#mask-10)"></path>
                    <path d="M534.4082,403.4291 L543.9172,414.1871 C545.7272,416.2351 548.9482,416.1521 550.6502,414.0141 C553.3342,410.6441 553.4042,405.8891 550.8232,402.4411 L540.1902,388.2381 L552.3392,402.6161 C554.5362,405.2171 558.4872,405.3851 560.8972,402.9801 C562.9292,400.9531 563.3902,397.8341 562.0342,395.3061 L551.8662,376.3641" id="Fill-113" fill="#FF9DB4" mask="url(#mask-10)"></path>
                    <path d="M547.2012,416.81 C545.6172,416.807 544.1162,416.13 543.0642,414.941 L533.5552,404.184 C533.1382,403.711 533.1842,402.993 533.6542,402.576 C534.1222,402.163 534.8432,402.2 535.2622,402.674 L544.7712,413.431 C545.4102,414.156 546.3242,414.551 547.2942,414.531 C548.2602,414.505 549.1592,414.06 549.7612,413.305 C552.1192,410.342 552.1802,406.157 549.9142,403.124 L539.2782,388.919 L541.0582,387.501 L553.2082,401.88 C554.0642,402.892 555.2622,403.482 556.5862,403.538 C557.9402,403.584 559.1562,403.106 560.0942,402.174 C561.7812,400.491 562.1572,397.947 561.0292,395.845 L550.8612,376.901 C550.5642,376.347 550.7722,375.658 551.3272,375.358 C551.8772,375.068 552.5702,375.265 552.8692,375.824 L563.0372,394.768 C564.6442,397.762 564.1082,401.387 561.7012,403.788 C560.3282,405.157 558.4252,405.904 556.4882,405.813 C555.3812,405.766 554.3062,405.453 553.3572,404.915 C554.3992,408.211 553.7872,411.902 551.5422,414.723 C550.5182,416.007 548.9912,416.767 547.3522,416.809 C547.3012,416.808 547.2502,416.81 547.2012,416.81" id="Fill-114" fill="#EF7394" mask="url(#mask-10)"></path>
                </g>
                <path d="M922,176.999501 C922,182.52218 917.522954,187 911.999002,187 C906.477046,187 902,182.52218 902,176.999501 C902,171.47782 906.477046,167 911.999002,167 C917.522954,167 922,171.47782 922,176.999501 Z" id="Stroke-1-Copy" stroke="#FF9DB4" stroke-width="5.284"></path>
                <path d="M87,9.99950102 C87,15.5221795 82.5229541,20 76.999002,20 C71.4770459,20 67,15.5221795 67,9.99950102 C67,4.47782047 71.4770459,0 76.999002,0 C82.5229541,0 87,4.47782047 87,9.99950102 Z" id="Stroke-1-Copy-2" stroke="#FF9DB4" stroke-width="5.284"></path>
            </g>
        </g>
    </g>
</svg>