<?xml version="1.0" encoding="UTF-8"?>
<svg width="696px" height="496px" viewBox="0 0 696 496" version="1.1" xmlns="http://www.w3.org/2000/svg" xmlns:xlink="http://www.w3.org/1999/xlink">
    <!-- Generator: Sketch 63.1 (92452) - https://sketch.com -->
    <title>Illustration W</title>
    <desc>Created with Sketch.</desc>
    <defs>
        <polygon id="path-1" points="0.291111578 0.067 352.887616 0.067 352.887616 495.659549 0.291111578 495.659549"></polygon>
        <path d="M28.289,121.252 C58.3,200.661 47.676,255.928 16.671,310.053 L16.671,310.053 C-14.333,364.178 -6.154,450.975 83.437,484.962 L83.437,484.962 C173.03,518.949 333.922,475.99 351.975,297.642 L351.975,297.642 C360.201,216.371 313.303,85.667 191.286,22.464 L191.286,22.464 C160.99,6.771 133.85,0.0669995528 110.61,0.0669995528 L110.61,0.0669995528 C40.252,0.073 5.728,61.559 28.289,121.252" id="path-3"></path>
        <path d="M28.289,121.252 C58.3,200.661 47.676,255.928 16.671,310.053 L16.671,310.053 C-14.333,364.178 -6.154,450.975 83.437,484.962 L83.437,484.962 C173.03,518.949 333.922,475.99 351.975,297.642 L351.975,297.642 C360.201,216.371 313.303,85.667 191.286,22.464 L191.286,22.464 C160.99,6.771 133.85,0.0669995528 110.61,0.0669995528 L110.61,0.0669995528 C40.252,0.073 5.728,61.559 28.289,121.252" id="path-5"></path>
        <path d="M28.289,121.252 C58.3,200.661 47.676,255.928 16.671,310.053 L16.671,310.053 C-14.333,364.178 -6.154,450.975 83.437,484.962 L83.437,484.962 C173.03,518.949 333.922,475.99 351.975,297.642 L351.975,297.642 C360.201,216.371 313.303,85.667 191.286,22.464 L191.286,22.464 C160.99,6.771 133.85,0.0669995528 110.61,0.0669995528 L110.61,0.0669995528 C40.252,0.073 5.728,61.559 28.289,121.252 L28.289,121.252 Z" id="path-7"></path>
        <path d="M28.289,121.252 C58.3,200.661 47.676,255.928 16.671,310.053 L16.671,310.053 C-14.333,364.178 -6.154,450.975 83.437,484.962 L83.437,484.962 C173.03,518.949 333.922,475.99 351.975,297.642 L351.975,297.642 C360.201,216.371 313.303,85.667 191.286,22.464 L191.286,22.464 C160.99,6.771 133.85,0.0669995528 110.61,0.0669995528 L110.61,0.0669995528 C40.252,0.073 5.728,61.559 28.289,121.252 L28.289,121.252 Z" id="path-9"></path>
        <path d="M28.289,121.252 C58.3,200.661 47.676,255.928 16.671,310.053 L16.671,310.053 C-14.333,364.178 -6.154,450.975 83.437,484.962 L83.437,484.962 C173.03,518.949 333.922,475.99 351.975,297.642 L351.975,297.642 C360.201,216.371 313.303,85.667 191.286,22.464 L191.286,22.464 C160.99,6.771 133.85,0.0669995528 110.61,0.0669995528 L110.61,0.0669995528 C40.252,0.073 5.728,61.559 28.289,121.252" id="path-11"></path>
        <path d="M28.289,121.252 C58.3,200.661 47.676,255.928 16.671,310.053 L16.671,310.053 C-14.333,364.178 -6.154,450.975 83.437,484.962 L83.437,484.962 C173.03,518.949 333.922,475.99 351.975,297.642 L351.975,297.642 C360.201,216.371 313.303,85.667 191.286,22.464 L191.286,22.464 C160.99,6.771 133.85,0.0669995528 110.61,0.0669995528 L110.61,0.0669995528 C40.252,0.073 5.728,61.559 28.289,121.252" id="path-13"></path>
        <path d="M28.289,121.252 C58.3,200.661 47.676,255.928 16.671,310.053 L16.671,310.053 C-14.333,364.178 -6.154,450.975 83.437,484.962 L83.437,484.962 C173.03,518.949 333.922,475.99 351.975,297.642 L351.975,297.642 C360.201,216.371 313.303,85.667 191.286,22.464 L191.286,22.464 C160.99,6.771 133.85,0.0669995528 110.61,0.0669995528 L110.61,0.0669995528 C40.252,0.073 5.728,61.559 28.289,121.252" id="path-15"></path>
        <path d="M28.289,121.252 C58.3,200.661 47.676,255.928 16.671,310.053 L16.671,310.053 C-14.333,364.178 -6.154,450.975 83.437,484.962 L83.437,484.962 C173.03,518.949 333.922,475.99 351.975,297.642 L351.975,297.642 C360.201,216.371 313.303,85.667 191.286,22.464 L191.286,22.464 C160.99,6.771 133.85,0.0669995528 110.61,0.0669995528 L110.61,0.0669995528 C40.252,0.073 5.728,61.559 28.289,121.252" id="path-17"></path>
        <path d="M28.289,121.252 C58.3,200.661 47.676,255.928 16.671,310.053 L16.671,310.053 C-14.333,364.178 -6.154,450.975 83.437,484.962 L83.437,484.962 C173.03,518.949 333.922,475.99 351.975,297.642 L351.975,297.642 C360.201,216.371 313.303,85.667 191.286,22.464 L191.286,22.464 C160.99,6.771 133.85,0.0669995528 110.61,0.0669995528 L110.61,0.0669995528 C40.252,0.073 5.728,61.559 28.289,121.252" id="path-19"></path>
        <path d="M28.289,121.252 C58.3,200.661 47.676,255.928 16.671,310.053 L16.671,310.053 C-14.333,364.178 -6.154,450.975 83.437,484.962 L83.437,484.962 C173.03,518.949 333.922,475.99 351.975,297.642 L351.975,297.642 C360.201,216.371 313.303,85.667 191.286,22.464 L191.286,22.464 C160.99,6.771 133.85,0.0669995528 110.61,0.0669995528 L110.61,0.0669995528 C40.252,0.073 5.728,61.559 28.289,121.252" id="path-21"></path>
        <path d="M28.289,121.252 C58.3,200.661 47.676,255.928 16.671,310.053 L16.671,310.053 C-14.333,364.178 -6.154,450.975 83.437,484.962 L83.437,484.962 C173.03,518.949 333.922,475.99 351.975,297.642 L351.975,297.642 C360.201,216.371 313.303,85.667 191.286,22.464 L191.286,22.464 C160.99,6.771 133.85,0.0669995528 110.61,0.0669995528 L110.61,0.0669995528 C40.252,0.073 5.728,61.559 28.289,121.252 L28.289,121.252 Z" id="path-23"></path>
        <path d="M28.289,121.252 C58.3,200.661 47.676,255.928 16.671,310.053 L16.671,310.053 C-14.333,364.178 -6.154,450.975 83.437,484.962 L83.437,484.962 C173.03,518.949 333.922,475.99 351.975,297.642 L351.975,297.642 C360.201,216.371 313.303,85.667 191.286,22.464 L191.286,22.464 C160.99,6.771 133.85,0.0669995528 110.61,0.0669995528 L110.61,0.0669995528 C40.252,0.073 5.728,61.559 28.289,121.252" id="path-25"></path>
        <polygon id="path-27" points="0.2662 0.747430684 223.016 0.747430684 223.016 193.737 0.2662 193.737"></polygon>
        <polygon id="path-29" points="0 0.579919237 102.719401 0.579919237 102.719401 85.8167 0 85.8167"></polygon>
    </defs>
    <g id="Page-1" stroke="none" stroke-width="1" fill="none" fill-rule="evenodd">
        <g id="Final" transform="translate(-469.000000, -789.000000)">
            <g id="Illustration-W" transform="translate(469.000000, 788.000000)">
                <g id="Group-107" transform="translate(231.000000, 0.000000)">
                    <g id="Group-3" transform="translate(46.000000, 0.933000)">
                        <mask id="mask-2" fill="white">
                            <use xlink:href="#path-1"></use>
                        </mask>
                        <g id="Clip-2"></g>
                        <path d="M83.4371,484.9625 C-6.1549,450.9755 -14.3329,364.1775 16.6701,310.0525 C47.6751,255.9285 58.3001,200.6605 28.2891,121.2525 C-1.7239,41.8425 69.2681,-40.7415 191.2861,22.4635 C313.3031,85.6675 360.2011,216.3705 351.9751,297.6415 C333.9221,475.9895 173.0301,518.9485 83.4371,484.9625" id="Fill-1" fill="#FFEBEF" mask="url(#mask-2)"></path>
                    </g>
                    <g id="Group-40" transform="translate(46.000000, 0.933000)">
                        <g id="Group-6">
                            <mask id="mask-4" fill="white">
                                <use xlink:href="#path-3"></use>
                            </mask>
                            <g id="Clip-5"></g>
                            <path d="M179.5123,492.4341 C185.7793,476.7661 195.8493,461.3161 189.9583,443.8711 C186.7013,434.2261 176.4693,430.0661 168.6643,424.7951 C155.3093,415.7761 149.4443,402.2021 150.6173,386.2551 C151.0863,379.8771 150.0533,372.7741 145.2433,368.5581 C138.0873,362.2851 126.2293,365.2561 118.4633,359.7551 C114.2933,356.8001 112.0063,351.9411 109.1423,347.7071 C102.2143,337.4691 89.5213,332.4111 89.5213,332.4111 C89.5213,332.4111 90.0803,342.9911 84.1663,353.3351 C80.3713,359.9731 77.2133,367.3991 76.5273,375.1431 C75.9913,381.1931 77.8103,386.2391 81.2463,391.1041 C85.2913,396.8301 88.2513,401.5361 88.8063,408.5901 C89.6623,419.4801 75.6553,442.7671 88.6513,448.6601 C92.1873,450.2631 96.4353,450.2551 99.4733,452.8801 C104.9803,457.6361 99.8553,464.9031 100.1503,470.7261 C100.6033,479.6791 104.0603,490.1501 110.5843,495.4421 C126.1493,508.0651 150.5323,513.2461 170.8363,512.8161" id="Fill-4" fill="#F4D4DC" mask="url(#mask-4)"></path>
                        </g>
                        <g id="Group-9">
                            <mask id="mask-6" fill="white">
                                <use xlink:href="#path-5"></use>
                            </mask>
                            <g id="Clip-8"></g>
                            <path d="M390.1637,425.9976 L130.6457,460.7346 C138.7237,412.3676 156.3737,385.9236 179.5777,367.0856 C180.0777,366.6716 180.6027,366.2766 181.1027,365.8636 C181.8957,365.2256 182.6957,364.6326 183.4927,364.0176 C184.2507,363.4526 185.0077,362.8896 185.7657,362.3246 C186.2937,361.9536 186.8187,361.5596 187.3477,361.1876 C190.7057,358.7946 194.1727,356.5256 197.7237,354.3616 L243.2507,326.7076 L294.4487,341.4146 C297.8907,342.4116 301.2987,343.5056 304.6507,344.6996 C305.7207,345.0886 306.7907,345.4766 307.8387,345.8686 C308.0807,345.9516 308.3007,346.0386 308.5457,346.1436 C309.5187,346.4996 310.4727,346.8816 311.4287,347.2856 C313.8227,348.2366 316.2067,349.2826 318.5707,350.3546 C319.8527,350.9466 321.1387,351.5606 322.4267,352.1976 C323.6407,352.7996 324.8537,353.3996 326.0747,354.0466 C326.1717,354.0796 326.2487,354.1386 326.3467,354.1726 C327.5657,354.8176 328.7637,355.4676 329.9637,356.1406 C331.1847,356.7866 332.3647,357.4836 333.5677,358.1796 C336.3047,359.7786 339.0037,361.4536 341.6217,363.2086 C342.5367,363.8266 343.4777,364.4636 344.3707,365.0846 C345.5927,365.9156 346.7947,366.7726 347.9767,367.6556 C349.0567,368.4596 350.1577,369.2606 351.2177,370.0906 L354.5517,372.6976 L354.5547,372.7206 C355.6427,373.5926 356.7107,374.4906 357.8057,375.4086 C358.4587,375.9686 359.0897,376.5316 359.7207,377.0956 C360.0607,377.3966 360.3797,377.7006 360.7207,378.0026 C370.9907,387.5006 380.4197,400.2116 390.1637,425.9976" id="Fill-7" fill="#FF9DB4" mask="url(#mask-6)"></path>
                        </g>
                        <g id="Group-12">
                            <mask id="mask-8" fill="white">
                                <use xlink:href="#path-7"></use>
                            </mask>
                            <g id="Clip-11"></g>
                            <polygon id="Fill-10" fill="#FF9DB4" mask="url(#mask-8)" points="269.0172 270.6363 283.7582 380.7623 218.4002 389.5113 203.6592 279.3843"></polygon>
                        </g>
                        <g id="Group-15">
                            <mask id="mask-10" fill="white">
                                <use xlink:href="#path-9"></use>
                            </mask>
                            <g id="Clip-14"></g>
                            <path d="M269.0172,270.6363 L274.2982,310.0953 C263.3112,321.0813 248.7712,328.6593 232.1952,330.8783 C224.7912,331.8693 217.5162,331.7273 210.5122,330.5843 L203.6592,279.3843 L269.0172,270.6363 Z" id="Fill-13" fill="#F987A5" mask="url(#mask-10)"></path>
                        </g>
                        <g id="Group-18">
                            <mask id="mask-12" fill="white">
                                <use xlink:href="#path-11"></use>
                            </mask>
                            <g id="Clip-17"></g>
                            <path d="M403.7701,470.4439 L126.1851,507.5999 C126.8361,490.0009 128.3681,474.4809 130.6461,460.7349 C138.7231,412.3679 156.3741,385.9229 179.5781,367.0859 C179.9211,366.7999 180.2781,366.5249 180.6301,366.2459 C181.3291,365.6909 182.0131,365.1179 182.7291,364.5859 C184.2541,363.4509 185.7791,362.3149 187.3031,361.1789 C187.3221,361.1819 187.3301,361.1839 187.3471,361.1879 C216.2811,409.5819 289.0581,399.9299 304.3771,345.6689 L304.6511,344.6999 C305.7201,345.0889 306.7911,345.4769 307.8381,345.8689 C308.0811,345.9519 308.3001,346.0389 308.5451,346.1439 C309.5191,346.4999 310.4721,346.8809 311.4281,347.2859 C313.8231,348.2369 316.2071,349.2829 318.5711,350.3549 C319.8531,350.9469 321.1381,351.5609 322.4261,352.1979 C323.6401,352.7989 324.8541,353.3999 326.0751,354.0469 C326.1711,354.0799 326.2491,354.1379 326.3461,354.1729 C327.5661,354.8179 328.7631,355.4669 329.9631,356.1399 C331.1641,356.7749 332.3251,357.4609 333.5071,358.1439 C336.3441,359.7829 339.1211,361.5199 341.8361,363.3529 C342.6831,363.9249 343.5471,364.5119 344.3711,365.0849 C345.5921,365.9159 346.7941,366.7729 347.9771,367.6559 C349.0561,368.4599 350.1581,369.2599 351.2171,370.0899 L354.5511,372.6979 L354.5541,372.7199 C355.6421,373.5919 356.7101,374.4909 357.8051,375.4089 C358.4581,375.9679 359.0891,376.5319 359.7201,377.0949 C360.0611,377.3969 360.3791,377.7009 360.7201,378.0029 C370.9911,387.5009 380.4191,400.2119 390.1641,425.9979 C394.6091,437.7789 399.0951,452.2849 403.7701,470.4439" id="Fill-16" fill="#6B3F9E" mask="url(#mask-12)"></path>
                        </g>
                        <g id="Group-21">
                            <mask id="mask-14" fill="white">
                                <use xlink:href="#path-13"></use>
                            </mask>
                            <g id="Clip-20"></g>
                            <path d="M184.1822,371.2584 C184.6472,372.0364 185.1222,372.8014 185.6092,373.5514" id="Stroke-19" stroke="#FFFFFF" stroke-width="1.079" mask="url(#mask-14)"></path>
                        </g>
                        <g id="Group-24">
                            <mask id="mask-16" fill="white">
                                <use xlink:href="#path-15"></use>
                            </mask>
                            <g id="Clip-23"></g>
                            <path d="M188.7106,377.9742 C221.4196,421.1032 290.6266,410.8042 308.6476,358.7042" id="Stroke-22" stroke="#FFFFFF" stroke-width="1.079" stroke-dasharray="5.402,5.402" mask="url(#mask-16)"></path>
                        </g>
                        <g id="Group-27">
                            <mask id="mask-18" fill="white">
                                <use xlink:href="#path-17"></use>
                            </mask>
                            <g id="Clip-26"></g>
                            <path d="M309.484,356.1334 C309.641,355.6194 309.793,355.1024 309.94,354.5814 L310.234,353.5404" id="Stroke-25" stroke="#FFFFFF" stroke-width="1.079" mask="url(#mask-18)"></path>
                        </g>
                        <g id="Group-30">
                            <mask id="mask-20" fill="white">
                                <use xlink:href="#path-19"></use>
                            </mask>
                            <g id="Clip-29"></g>
                            <line x1="326.653" y1="480.7662" x2="324.604" y2="345.9842" id="Stroke-28" stroke="#E73348" stroke-width="11.091" mask="url(#mask-20)"></line>
                        </g>
                        <g id="Group-33">
                            <mask id="mask-22" fill="white">
                                <use xlink:href="#path-21"></use>
                            </mask>
                            <g id="Clip-32"></g>
                            <line x1="202.9615" y1="497.3228" x2="163.2815" y2="370.9928" id="Stroke-31" stroke="#E73348" stroke-width="11.091" mask="url(#mask-22)"></line>
                        </g>
                        <g id="Group-36">
                            <mask id="mask-24" fill="white">
                                <use xlink:href="#path-23"></use>
                            </mask>
                            <g id="Clip-35"></g>
                            <polygon id="Fill-34" fill="#FF9DB4" mask="url(#mask-24)" points="56.1119 388.481 31.0959 396.344 46.7269 445.02 79.5199 430.332"></polygon>
                        </g>
                        <g id="Group-39">
                            <mask id="mask-26" fill="white">
                                <use xlink:href="#path-25"></use>
                            </mask>
                            <g id="Clip-38"></g>
                            <path d="M129.4918,507.8834 L99.2548,421.4914 L79.5198,430.3314 L46.7268,445.0204 L30.1408,452.4484 L76.8928,577.9154 C89.1118,610.7074 130.7828,620.7294 156.3688,596.8544 C176.9048,577.6904 194.5968,407.8874 129.4918,507.8834" id="Fill-37" fill="#6B3F9E" mask="url(#mask-26)"></path>
                        </g>
                    </g>
                    <g id="Group-106" transform="translate(0.000000, 87.933000)">
                        <path d="M123.4449,228.5377 C123.4449,228.5377 134.7959,212.6827 120.7959,193.0147 C98.4839,161.6707 156.1179,154.7427 142.8089,118.4387 C129.5039,82.1597 163.6899,93.9747 172.5789,56.8817 C181.4919,19.7847 214.0399,14.6167 238.8519,25.7837" id="Stroke-41" stroke="#E73348" stroke-width="5.546"></path>
                        <path d="M405.4908,190.7838 L133.4158,227.2028 C133.4158,227.2028 144.7658,211.3468 130.7658,191.6798 C108.4548,160.3358 166.0888,153.4078 152.7798,117.1038 C139.4738,80.8248 173.6608,92.6398 182.5498,55.5468 C191.4628,18.4508 224.0108,13.2818 248.8228,24.4488 L337.3448,44.8748 L405.4908,190.7838 Z" id="Fill-43" fill="#E73348"></path>
                        <polygon id="Fill-45" fill="#CE253D" points="405.4908 190.7838 317.4248 202.5718 293.1108 72.8698 347.0528 65.6498"></polygon>
                        <path d="M226.2496,170.5533 C227.7126,184.1823 217.3736,191.9733 203.7446,193.4373 C190.1146,194.9013 178.2086,188.1023 176.7456,174.4723 C175.2816,160.8433 178.6456,146.2073 192.2736,144.7443 C205.9036,143.2803 224.7856,156.9243 226.2496,170.5533" id="Fill-47" fill="#FF9DB4"></path>
                        <path d="M331.86,156.4166 C334.032,169.9506 346.056,174.7486 359.59,172.5756 C373.125,170.4036 382.824,160.7126 380.651,147.1786 C378.479,133.6446 371.385,120.4076 357.851,122.5806 C344.317,124.7526 329.687,142.8816 331.86,156.4166" id="Fill-49" fill="#FF9DB4"></path>
                        <path d="M344.8453,100.9566 L350.4013,142.4566 C350.5823,143.8196 350.7373,145.1406 350.8453,146.4676 C351.4723,154.4346 350.8233,162.2016 348.9903,169.5956 C348.0423,173.4006 346.8253,177.1026 345.3153,180.6836 C344.2323,183.3036 342.9573,185.8796 341.5543,188.3576 C341.0703,189.2326 340.5593,190.0876 340.0243,190.9226 C328.8613,208.9806 309.9733,222.0346 287.2913,225.0706 C264.6103,228.1066 242.9763,220.4776 227.4573,205.9906 C226.6983,205.3286 226.0033,204.6346 225.3063,203.9186 C223.2783,201.8996 221.3933,199.7466 219.6363,197.5056 C217.2633,194.4696 215.0933,191.2206 213.2003,187.7956 L213.1983,187.7716 C209.4853,181.1206 206.7933,173.8016 205.3253,165.9466 C205.0583,164.6416 204.8593,163.3256 204.6763,161.9626 L199.1213,120.4626 C197.6373,109.3726 198.7083,98.5406 201.8843,88.5616 C208.6463,67.1826 225.0573,49.6246 246.6013,41.7216 C251.5603,39.8776 256.7763,38.5776 262.2313,37.8476 C270.4803,36.7436 278.5973,37.0686 286.3223,38.6026 C297.4413,40.7916 307.7953,45.5596 316.6093,52.2916 C331.5773,63.7056 342.1533,80.8436 344.8453,100.9566" id="Fill-51" fill="#FF9DB4"></path>
                        <path d="M345.8073,108.1382 L347.6183,121.6702 C345.3033,120.3282 342.6213,119.0862 339.5683,117.9192 C305.5513,104.9112 317.5753,89.9342 296.5913,77.4692 C280.8573,68.1382 265.2463,88.6022 239.0853,67.4522 C237.2323,65.9472 235.2983,64.2232 233.3063,62.2542 C232.9253,61.8732 232.4873,61.4492 232.0773,61.0462 L234.6853,52.9962 C234.6813,52.9712 234.7003,52.9182 234.7183,52.8652 L237.8793,43.0642 C243.3273,41.0382 249.0573,39.6112 255.0483,38.8092 C264.1123,37.5962 273.0293,37.9522 281.5143,39.6382 C293.7303,42.0432 305.1053,47.2812 314.7863,54.6772 C331.2313,67.2162 342.8493,86.0422 345.8073,108.1382" id="Fill-53" fill="#F987A5"></path>
                        <g id="Group-59" transform="translate(205.000000, 139.000000)" fill="#F987A5">
                            <path d="M145.8414,7.4644 C146.4754,15.4224 145.8174,23.1984 143.9904,30.5994 C143.0534,34.4034 141.8214,38.0954 140.3214,41.6704 C139.2284,44.3034 137.9494,46.8854 136.5554,49.3564 C136.0634,50.2334 135.5694,51.0864 135.0214,51.9204 C133.7764,52.2904 132.4684,52.5674 131.1224,52.7464 C116.6904,54.6794 103.4054,44.5304 101.4704,30.0734 C99.5354,15.6164 109.6864,2.3574 124.1184,0.4254 C132.3694,-0.6786 140.2334,2.1504 145.8414,7.4644" id="Fill-55"></path>
                            <path d="M49.0748,37.0875 C51.0098,51.5445 40.8628,64.8285 26.4298,66.7605 C25.0838,66.9415 23.7498,67.0185 22.4518,66.9885 C21.7028,66.3275 21.0018,65.6355 20.2968,64.9175 C18.2758,62.9035 16.3888,60.7465 14.6408,58.4935 C12.2568,55.4635 10.0968,52.2265 8.1928,48.8015 L8.1898,48.7765 C4.4818,42.1175 1.8008,34.7875 0.3188,26.9425 C4.3328,20.3415 11.1758,15.5445 19.4268,14.4395 C33.8588,12.5075 47.1388,22.6295 49.0748,37.0875" id="Fill-57"></path>
                        </g>
                        <polyline id="Stroke-60" stroke="#F987A5" stroke-width="3.237" points="262.9069 42.8511 291.2339 167.6091 268.3879 170.6661"></polyline>
                        <path d="M250.4625,145.4854 C251.0785,150.0894 248.4635,154.2384 244.6205,154.7524 C240.7775,155.2674 237.1635,151.9514 236.5465,147.3484 C235.9305,142.7444 238.5465,138.5954 242.3895,138.0804 C246.2325,137.5664 249.8465,140.8814 250.4625,145.4854" id="Fill-62" fill="#311746"></path>
                        <path d="M315.8209,136.7364 C316.4379,141.3404 313.8219,145.4894 309.9789,146.0044 C306.1359,146.5184 302.5219,143.2034 301.9059,138.5994 C301.2899,133.9954 303.9049,129.8464 307.7479,129.3324 C311.5909,128.8184 315.2049,132.1324 315.8209,136.7364" id="Fill-64" fill="#311746"></path>
                        <path d="M323.6705,102.2696 C321.7655,94.5976 299.2685,94.1636 295.3335,102.2236 C291.3995,110.2836 326.4505,113.4606 323.6705,102.2696" id="Fill-66" fill="#E73348"></path>
                        <path d="M219.9088,116.1588 C219.7288,108.2558 241.3208,101.9198 247.2368,108.6618 C253.1518,115.4038 220.1708,127.6868 219.9088,116.1588" id="Fill-68" fill="#E73348"></path>
                        <path d="M251.8199,45.7989 C238.9239,77.3419 225.4239,64.2459 215.8659,78.4739 C209.4749,87.9869 217.0409,97.4589 206.1859,114.4279 C196.7819,129.1279 202.5559,146.0589 202.5559,146.0589 L197.2099,140.4939 L191.1599,95.2979 L217.1679,38.2579 L250.8579,38.6169 L251.8199,45.7989 Z" id="Fill-70" fill="#E73348"></path>
                        <g id="Group-74" transform="translate(242.000000, 0.000000)">
                            <mask id="mask-28" fill="white">
                                <use xlink:href="#path-27"></use>
                            </mask>
                            <g id="Clip-73"></g>
                            <path d="M223.0162,182.816 L141.4312,193.737 C141.4312,193.737 151.3082,178.434 128.5142,163.774 C101.2252,146.24 139.8232,113.29 98.1112,97.382 C67.1432,85.542 78.0792,71.899 58.9772,60.551 C44.6722,52.063 30.4442,70.689 6.6312,51.446 C4.9502,50.073 3.1932,48.506 1.3802,46.719 C1.0282,46.36 0.6472,45.98 0.2662,45.6 L2.6352,38.279 C2.6322,38.254 2.6512,38.201 2.6722,38.173 L5.6632,28.866 L6.9002,25.022 C25.9442,-3.307 57.3092,-9.915 86.1942,21.817 C115.1042,53.546 147.9452,31.236 148.8602,71.432 C149.7532,111.656 203.4002,83.847 197.1432,124.115 C190.8662,164.411 222.8702,148.937 223.0162,182.816" id="Fill-72" fill="#E73348" mask="url(#mask-28)"></path>
                        </g>
                        <path d="M201.3688,169.5543 C200.0458,166.5343 195.7638,158.6663 187.5868,160.2453 C185.6098,160.6943 183.9208,161.7043 182.5388,162.9273 C184.2268,162.1963 186.0548,161.8253 187.7288,161.9983 C189.4108,162.1583 190.8318,162.8853 191.8528,163.9443 C192.7838,164.8203 193.3568,166.0843 193.8618,167.3293 C191.5208,168.5593 190.3048,171.3103 191.1058,173.9313 C192.0138,176.8953 195.1508,178.5623 198.1148,177.6563 C201.0788,176.7483 202.7458,173.6113 201.8398,170.6473 C201.7208,170.2583 201.5578,169.8953 201.3688,169.5543" id="Fill-75" fill="#EF7394"></path>
                        <path d="M203.0055,191.4625 C203.3385,193.9485 201.5925,196.2335 199.1065,196.5665 C196.6195,196.8995 194.3345,195.1535 194.0025,192.6675 C193.6695,190.1815 195.4145,187.8965 197.9015,187.5635 C200.3875,187.2315 202.6725,188.9765 203.0055,191.4625" id="Fill-77" fill="#FFFFFF"></path>
                        <path d="M365.8434,169.6656 C366.1764,172.1516 364.4304,174.4366 361.9444,174.7696 C359.4574,175.1026 357.1724,173.3566 356.8404,170.8706 C356.5074,168.3846 358.2524,166.0996 360.7394,165.7666 C363.2254,165.4346 365.5104,167.1796 365.8434,169.6656" id="Fill-79" fill="#FFFFFF"></path>
                        <path d="M269.0211,185.2779 C269.0141,185.4989 268.9921,185.7149 268.9921,185.9369 C268.9921,195.8469 276.0241,203.8809 284.6981,203.8809 C293.3721,203.8809 300.4031,195.8469 300.4031,185.9369 C300.4031,183.3119 299.8981,180.8259 299.0111,178.5789 C291.3611,186.6129 278.4941,190.0279 269.0211,185.2779" id="Fill-81" fill="#B2475F"></path>
                        <path d="M297.9225,195.5894 C297.5105,195.1424 297.0745,194.7224 296.5835,194.3744 C295.0285,193.2744 293.1335,192.8484 291.2725,192.7444 C287.0655,192.5114 282.7285,193.9034 279.5715,196.8944 C278.2995,198.1014 277.2535,199.5814 276.4775,201.2044 C278.8695,202.8914 281.6795,203.8804 284.6975,203.8804 C290.2575,203.8804 295.1315,200.5694 297.9225,195.5894" id="Fill-83" fill="#FF4B7C"></path>
                        <g id="Group-87" transform="translate(0.000000, 249.000000)">
                            <mask id="mask-30" fill="white">
                                <use xlink:href="#path-29"></use>
                            </mask>
                            <g id="Clip-86"></g>
                            <path d="M101.0875,46.9927 L99.0945,40.4747 C96.4165,31.7187 91.7185,23.7137 85.3785,17.1047 L74.2165,5.4717 C71.5645,2.7077 67.0635,2.9907 64.7765,6.0657 C62.8475,8.6627 62.6905,12.1717 64.3775,14.9307 L73.3075,29.5287 L21.5595,1.2297 C19.0595,-0.2213 15.8545,0.8517 14.7325,3.5147 L13.9795,5.3027 C13.0935,7.4047 13.8125,9.8417 15.6975,11.1277 L49.8225,31.4107 L7.4015,13.5327 C4.8215,12.2527 1.7035,13.5187 0.7465,16.2357 L0.2735,17.5807 C-0.5315,19.8647 0.4925,22.3897 2.6615,23.4687 L39.2735,41.3837 L8.4935,33.8887 C5.5405,33.0727 2.5905,35.1967 2.4275,38.2567 L2.3955,38.8737 C2.2825,40.9707 3.5495,42.8967 5.5195,43.6257 L36.9395,53.6907 L19.5915,52.2387 C16.1455,51.4477 13.0575,54.5297 13.8415,57.9767 C14.2145,59.6177 15.4195,60.9417 17.0175,61.4687 L96.5295,85.8167 L101.4345,67.6167 C103.2585,60.8467 103.1385,53.6987 101.0875,46.9927" id="Fill-85" fill="#FF9DB4" mask="url(#mask-30)"></path>
                        </g>
                        <path d="M73.3073,278.5289 C73.3073,278.5289 69.2493,291.1699 78.8233,304.7509" id="Stroke-88" stroke="#F987A5" stroke-width="2.591" stroke-linecap="round" stroke-linejoin="round"></path>
                        <path d="M229.7916,172.5777 C229.9746,173.5637 229.3226,174.5117 228.3356,174.6937 C227.3496,174.8767 226.4016,174.2247 226.2196,173.2377 C226.0366,172.2517 226.6886,171.3047 227.6756,171.1217 C228.6616,170.9387 229.6096,171.5917 229.7916,172.5777" id="Fill-90" fill="#E73348"></path>
                        <path d="M238.7584,170.9195 C238.9404,171.9055 238.2884,172.8545 237.3024,173.0365 C236.3164,173.2185 235.3674,172.5665 235.1854,171.5805 C235.0034,170.5945 235.6544,169.6465 236.6414,169.4635 C237.6284,169.2815 238.5754,169.9335 238.7584,170.9195" id="Fill-92" fill="#E73348"></path>
                        <path d="M235.9029,177.9976 C236.0859,178.9836 235.4329,179.9316 234.4469,180.1136 C233.4609,180.2966 232.5129,179.6436 232.3309,178.6576 C232.1479,177.6716 232.7999,176.7236 233.7869,176.5416 C234.7729,176.3586 235.7199,177.0106 235.9029,177.9976" id="Fill-94" fill="#E73348"></path>
                        <path d="M247.191,175.9097 C247.374,176.8957 246.722,177.8447 245.735,178.0267 C244.749,178.2087 243.801,177.5567 243.619,176.5707 C243.436,175.5847 244.088,174.6367 245.075,174.4537 C246.061,174.2717 247.008,174.9237 247.191,175.9097" id="Fill-96" fill="#E73348"></path>
                        <path d="M330.7487,153.9107 C330.9317,154.8967 331.8787,155.5487 332.8647,155.3667 C333.8517,155.1837 334.5037,154.2367 334.3207,153.2497 C334.1387,152.2637 333.1907,151.6117 332.2047,151.7937 C331.2187,151.9767 330.5657,152.9237 330.7487,153.9107" id="Fill-98" fill="#E73348"></path>
                        <path d="M321.7828,155.5684 C321.9648,156.5544 322.9128,157.2064 323.8988,157.0244 C324.8858,156.8414 325.5378,155.8944 325.3548,154.9074 C325.1728,153.9214 324.2248,153.2694 323.2378,153.4514 C322.2518,153.6344 321.5998,154.5824 321.7828,155.5684" id="Fill-100" fill="#E73348"></path>
                        <path d="M326.9791,161.1568 C327.1621,162.1428 328.1091,162.7958 329.0961,162.6128 C330.0831,162.4298 330.7341,161.4828 330.5521,160.4968 C330.3701,159.5098 329.4211,158.8578 328.4351,159.0408 C327.4491,159.2228 326.7971,160.1708 326.9791,161.1568" id="Fill-102" fill="#E73348"></path>
                        <path d="M315.691,163.2437 C315.874,164.2307 316.821,164.8827 317.808,164.6997 C318.795,164.5177 319.446,163.5697 319.263,162.5837 C319.082,161.5977 318.133,160.9457 317.147,161.1277 C316.161,161.3097 315.508,162.2577 315.691,163.2437" id="Fill-104" fill="#E73348"></path>
                    </g>
                </g>
                <path d="M332,346 L307.095,304 L34,304 C15.2223185,304 2.29960275e-15,288.777681 0,270 L0,212 C-2.29960275e-15,193.222319 15.2223185,178 34,178 L298,178 C316.777681,178 332,193.222319 332,212 L332,346 Z" id="Combined-Shape" fill="#B59ECE"></path>
            </g>
        </g>
    </g>
</svg>