<?xml version="1.0" encoding="UTF-8"?>
<svg width="1376px" height="1741px" viewBox="0 0 1376 1741" version="1.1" xmlns="http://www.w3.org/2000/svg" xmlns:xlink="http://www.w3.org/1999/xlink">
    <title>E790F135-1E26-4E63-975B-38821D4F4063</title>
    <defs>
        <polygon id="path-1" points="0 0.0642 6.9362 0.0642 6.9362 7.0002 0 7.0002"></polygon>
        <polygon id="path-3" points="-0.0008 0.0642 6.936 0.0642 6.936 7.0002 -0.0008 7.0002"></polygon>
        <polygon id="path-5" points="0 0.0642 6.9362 0.0642 6.9362 7.0002 0 7.0002"></polygon>
        <polygon id="path-7" points="-0.0008 0.0642 6.936 0.0642 6.936 7.0002 -0.0008 7.0002"></polygon>
        <polygon id="path-9" points="0 0.0642 6.9362 0.0642 6.9362 7.0002 0 7.0002"></polygon>
        <polygon id="path-11" points="-0.0008 0.0642 6.936 0.0642 6.936 7.0002 -0.0008 7.0002"></polygon>
        <polygon id="path-13" points="0 0.0642 6.9362 0.0642 6.9362 7.0002 0 7.0002"></polygon>
        <polygon id="path-15" points="-0.0008 0.0642 6.936 0.0642 6.936 7.0002 -0.0008 7.0002"></polygon>
        <polygon id="path-17" points="0 0.0642 6.9362 0.0642 6.9362 7 0 7"></polygon>
        <polygon id="path-19" points="-0.0008 0.0642 6.9362 0.0642 6.9362 7 -0.0008 7"></polygon>
        <polygon id="path-21" points="-0.0008 0.0642 6.9362 0.0642 6.9362 7 -0.0008 7"></polygon>
        <polygon id="path-23" points="-0.0008 0.0642 6.9362 0.0642 6.9362 7 -0.0008 7"></polygon>
        <polygon id="path-25" points="-0.0008 0.0642 6.936 0.0642 6.936 7 -0.0008 7"></polygon>
        <polygon id="path-27" points="0 0.0642 6.9362 0.0642 6.9362 7.0002 0 7.0002"></polygon>
        <polygon id="path-29" points="-0.0008 0.0642 6.936 0.0642 6.936 7.0002 -0.0008 7.0002"></polygon>
        <polygon id="path-31" points="0 0.0642 6.9362 0.0642 6.9362 7.0002 0 7.0002"></polygon>
        <polygon id="path-33" points="-0.0008 0.0642 6.936 0.0642 6.936 7.0002 -0.0008 7.0002"></polygon>
        <polygon id="path-35" points="0 0.0642 6.9362 0.0642 6.9362 7.0002 0 7.0002"></polygon>
        <polygon id="path-37" points="-0.0008 0.0642 6.936 0.0642 6.936 7.0002 -0.0008 7.0002"></polygon>
        <polygon id="path-39" points="0 0.0642 6.9362 0.0642 6.9362 7.0002 0 7.0002"></polygon>
        <polygon id="path-41" points="-0.0008 0.0642 6.936 0.0642 6.936 7.0002 -0.0008 7.0002"></polygon>
        <polygon id="path-43" points="0 0.0642 6.9362 0.0642 6.9362 7 0 7"></polygon>
        <polygon id="path-45" points="-0.0008 0.0642 6.9362 0.0642 6.9362 7 -0.0008 7"></polygon>
        <polygon id="path-47" points="-0.0008 0.0642 6.9362 0.0642 6.9362 7 -0.0008 7"></polygon>
        <polygon id="path-49" points="-0.0008 0.0642 6.9362 0.0642 6.9362 7 -0.0008 7"></polygon>
        <polygon id="path-51" points="-0.0008 0.0642 6.936 0.0642 6.936 7 -0.0008 7"></polygon>
        <polygon id="path-53" points="0.292475074 352.408039 350.292475 352.408039 350.292475 0.408039001 0.292475074 0.408039001"></polygon>
    </defs>
    <g id="Page-1" stroke="none" stroke-width="1" fill="none" fill-rule="evenodd">
        <g id="Test-1" transform="translate(109.000000, -78.000000)">
            <g id="Illustation" transform="translate(-109.000000, 81.000000)">
                <path d="M719.090598,1138.44249 C815.256851,1116.39338 872.300119,1016.55437 890.443955,858.696667 C900.315213,772.8294 958.892822,702.057553 1041.19439,653.072988 C1154.46195,585.650345 1227.9664,486.076433 1195.13127,366.330931 C1162.30051,246.585428 1027.18139,82.2387809 780.297417,239.827018 C690.536794,297.120227 552.740482,317.196906 430.808848,289.263234 C301.485765,259.638596 232.185212,305.01213 184.217134,373.672997 C156.135519,413.872174 111.27102,529.939007 186.032826,626.060075 C272.816368,737.644211 408.719562,737.234015 470.598133,913.27233 C529.406929,1080.57217 607.277767,1164.07645 719.090598,1138.44249" id="Fill-1" fill="#FFEBEF" transform="translate(674.000000, 659.000000) rotate(16.000000) translate(-674.000000, -659.000000) "></path>
                <path d="M733.28591,1514.16242 C829.452164,1492.11331 886.495432,1392.2743 904.639267,1234.4166 C914.510526,1148.54933 973.088135,1077.77748 1055.3897,1028.79292 C1168.65726,961.370276 1242.16172,861.796364 1209.32659,742.050861 C1176.49582,622.305358 1041.3767,457.958711 794.492729,615.546948 C704.732107,672.840158 566.935794,692.916836 445.00416,664.983165 C315.681078,635.358527 246.380525,680.732061 198.412446,749.392927 C170.330832,789.592105 125.466333,905.658938 200.228139,1001.78001 C287.01168,1113.36414 422.914875,1112.95395 484.793445,1288.99226 C543.602242,1456.2921 621.47308,1539.79638 733.28591,1514.16242" id="Fill-1-Copy" fill="#FFEBEF" transform="translate(688.195312, 1034.719930) rotate(-59.000000) translate(-688.195312, -1034.719930) "></path>
                <g id="Group-64" transform="translate(1075.195312, 231.425781)">
                    <g id="Group-3" transform="translate(0.000000, 0.936000)">
                        <mask id="mask-2" fill="white">
                            <use xlink:href="#path-1"></use>
                        </mask>
                        <g id="Clip-2"></g>
                        <path d="M6.9362,3.5322 C6.9362,5.4472 5.3832,7.0002 3.4672,7.0002 C1.5522,7.0002 -0.0008,5.4472 -0.0008,3.5322 C-0.0008,1.6162 1.5522,0.0642 3.4672,0.0642 C5.3832,0.0642 6.9362,1.6162 6.9362,3.5322" id="Fill-1" fill="#E73348" mask="url(#mask-2)"></path>
                    </g>
                    <path d="M40.9362,4.4682 C40.9362,6.3832 39.3832,7.9362 37.4672,7.9362 C35.5522,7.9362 33.9992,6.3832 33.9992,4.4682 C33.9992,2.5522 35.5522,1.0002 37.4672,1.0002 C39.3832,1.0002 40.9362,2.5522 40.9362,4.4682" id="Fill-4" fill="#E73348"></path>
                    <path d="M74.9362,4.4682 C74.9362,6.3832 73.3832,7.9362 71.4672,7.9362 C69.5522,7.9362 67.9992,6.3832 67.9992,4.4682 C67.9992,2.5522 69.5522,1.0002 71.4672,1.0002 C73.3832,1.0002 74.9362,2.5522 74.9362,4.4682" id="Fill-6" fill="#E73348"></path>
                    <path d="M108.9362,4.4682 C108.9362,6.3832 107.3832,7.9362 105.4672,7.9362 C103.5522,7.9362 101.9992,6.3832 101.9992,4.4682 C101.9992,2.5522 103.5522,1.0002 105.4672,1.0002 C107.3832,1.0002 108.9362,2.5522 108.9362,4.4682" id="Fill-8" fill="#E73348"></path>
                    <g id="Group-12" transform="translate(136.000000, 0.936000)">
                        <mask id="mask-4" fill="white">
                            <use xlink:href="#path-3"></use>
                        </mask>
                        <g id="Clip-11"></g>
                        <path d="M6.9362,3.5322 C6.9362,5.4472 5.3832,7.0002 3.4672,7.0002 C1.5522,7.0002 -0.0008,5.4472 -0.0008,3.5322 C-0.0008,1.6162 1.5522,0.0642 3.4672,0.0642 C5.3832,0.0642 6.9362,1.6162 6.9362,3.5322" id="Fill-10" fill="#E73348" mask="url(#mask-4)"></path>
                    </g>
                    <g id="Group-15" transform="translate(0.000000, 34.936000)">
                        <mask id="mask-6" fill="white">
                            <use xlink:href="#path-5"></use>
                        </mask>
                        <g id="Clip-14"></g>
                        <path d="M6.9362,3.5322 C6.9362,5.4472 5.3832,7.0002 3.4672,7.0002 C1.5522,7.0002 -0.0008,5.4472 -0.0008,3.5322 C-0.0008,1.6162 1.5522,0.0642 3.4672,0.0642 C5.3832,0.0642 6.9362,1.6162 6.9362,3.5322" id="Fill-13" fill="#E73348" mask="url(#mask-6)"></path>
                    </g>
                    <path d="M40.9362,38.4682 C40.9362,40.3832 39.3832,41.9362 37.4672,41.9362 C35.5522,41.9362 33.9992,40.3832 33.9992,38.4682 C33.9992,36.5522 35.5522,35.0002 37.4672,35.0002 C39.3832,35.0002 40.9362,36.5522 40.9362,38.4682" id="Fill-16" fill="#E73348"></path>
                    <path d="M74.9362,38.4682 C74.9362,40.3832 73.3832,41.9362 71.4672,41.9362 C69.5522,41.9362 67.9992,40.3832 67.9992,38.4682 C67.9992,36.5522 69.5522,35.0002 71.4672,35.0002 C73.3832,35.0002 74.9362,36.5522 74.9362,38.4682" id="Fill-18" fill="#E73348"></path>
                    <path d="M108.9362,38.4682 C108.9362,40.3832 107.3832,41.9362 105.4672,41.9362 C103.5522,41.9362 101.9992,40.3832 101.9992,38.4682 C101.9992,36.5522 103.5522,35.0002 105.4672,35.0002 C107.3832,35.0002 108.9362,36.5522 108.9362,38.4682" id="Fill-20" fill="#E73348"></path>
                    <g id="Group-24" transform="translate(136.000000, 34.936000)">
                        <mask id="mask-8" fill="white">
                            <use xlink:href="#path-7"></use>
                        </mask>
                        <g id="Clip-23"></g>
                        <path d="M6.9362,3.5322 C6.9362,5.4472 5.3832,7.0002 3.4672,7.0002 C1.5522,7.0002 -0.0008,5.4472 -0.0008,3.5322 C-0.0008,1.6162 1.5522,0.0642 3.4672,0.0642 C5.3832,0.0642 6.9362,1.6162 6.9362,3.5322" id="Fill-22" fill="#E73348" mask="url(#mask-8)"></path>
                    </g>
                    <g id="Group-27" transform="translate(0.000000, 68.936000)">
                        <mask id="mask-10" fill="white">
                            <use xlink:href="#path-9"></use>
                        </mask>
                        <g id="Clip-26"></g>
                        <path d="M6.9362,3.5322 C6.9362,5.4472 5.3832,7.0002 3.4672,7.0002 C1.5522,7.0002 -0.0008,5.4472 -0.0008,3.5322 C-0.0008,1.6172 1.5522,0.0642 3.4672,0.0642 C5.3832,0.0642 6.9362,1.6172 6.9362,3.5322" id="Fill-25" fill="#E73348" mask="url(#mask-10)"></path>
                    </g>
                    <path d="M40.9362,72.4682 C40.9362,74.3832 39.3832,75.9362 37.4672,75.9362 C35.5522,75.9362 33.9992,74.3832 33.9992,72.4682 C33.9992,70.5532 35.5522,69.0002 37.4672,69.0002 C39.3832,69.0002 40.9362,70.5532 40.9362,72.4682" id="Fill-28" fill="#E73348"></path>
                    <path d="M74.9362,72.4682 C74.9362,74.3832 73.3832,75.9362 71.4672,75.9362 C69.5522,75.9362 67.9992,74.3832 67.9992,72.4682 C67.9992,70.5532 69.5522,69.0002 71.4672,69.0002 C73.3832,69.0002 74.9362,70.5532 74.9362,72.4682" id="Fill-30" fill="#E73348"></path>
                    <path d="M108.9362,72.4682 C108.9362,74.3832 107.3832,75.9362 105.4672,75.9362 C103.5522,75.9362 101.9992,74.3832 101.9992,72.4682 C101.9992,70.5532 103.5522,69.0002 105.4672,69.0002 C107.3832,69.0002 108.9362,70.5532 108.9362,72.4682" id="Fill-32" fill="#E73348"></path>
                    <g id="Group-36" transform="translate(136.000000, 68.936000)">
                        <mask id="mask-12" fill="white">
                            <use xlink:href="#path-11"></use>
                        </mask>
                        <g id="Clip-35"></g>
                        <path d="M6.9362,3.5322 C6.9362,5.4472 5.3832,7.0002 3.4672,7.0002 C1.5522,7.0002 -0.0008,5.4472 -0.0008,3.5322 C-0.0008,1.6172 1.5522,0.0642 3.4672,0.0642 C5.3832,0.0642 6.9362,1.6172 6.9362,3.5322" id="Fill-34" fill="#E73348" mask="url(#mask-12)"></path>
                    </g>
                    <g id="Group-39" transform="translate(0.000000, 102.936000)">
                        <mask id="mask-14" fill="white">
                            <use xlink:href="#path-13"></use>
                        </mask>
                        <g id="Clip-38"></g>
                        <path d="M6.9362,3.5322 C6.9362,5.4472 5.3832,7.0002 3.4672,7.0002 C1.5522,7.0002 -0.0008,5.4472 -0.0008,3.5322 C-0.0008,1.6172 1.5522,0.0642 3.4672,0.0642 C5.3832,0.0642 6.9362,1.6172 6.9362,3.5322" id="Fill-37" fill="#E73348" mask="url(#mask-14)"></path>
                    </g>
                    <path d="M40.9362,106.4682 C40.9362,108.3832 39.3832,109.9362 37.4672,109.9362 C35.5522,109.9362 33.9992,108.3832 33.9992,106.4682 C33.9992,104.5532 35.5522,103.0002 37.4672,103.0002 C39.3832,103.0002 40.9362,104.5532 40.9362,106.4682" id="Fill-40" fill="#E73348"></path>
                    <path d="M74.9362,106.4682 C74.9362,108.3832 73.3832,109.9362 71.4672,109.9362 C69.5522,109.9362 67.9992,108.3832 67.9992,106.4682 C67.9992,104.5532 69.5522,103.0002 71.4672,103.0002 C73.3832,103.0002 74.9362,104.5532 74.9362,106.4682" id="Fill-42" fill="#E73348"></path>
                    <path d="M108.9362,106.4682 C108.9362,108.3832 107.3832,109.9362 105.4672,109.9362 C103.5522,109.9362 101.9992,108.3832 101.9992,106.4682 C101.9992,104.5532 103.5522,103.0002 105.4672,103.0002 C107.3832,103.0002 108.9362,104.5532 108.9362,106.4682" id="Fill-44" fill="#E73348"></path>
                    <g id="Group-48" transform="translate(136.000000, 102.936000)">
                        <mask id="mask-16" fill="white">
                            <use xlink:href="#path-15"></use>
                        </mask>
                        <g id="Clip-47"></g>
                        <path d="M6.9362,3.5322 C6.9362,5.4472 5.3832,7.0002 3.4672,7.0002 C1.5522,7.0002 -0.0008,5.4472 -0.0008,3.5322 C-0.0008,1.6172 1.5522,0.0642 3.4672,0.0642 C5.3832,0.0642 6.9362,1.6172 6.9362,3.5322" id="Fill-46" fill="#E73348" mask="url(#mask-16)"></path>
                    </g>
                    <g id="Group-51" transform="translate(0.000000, 136.936000)">
                        <mask id="mask-18" fill="white">
                            <use xlink:href="#path-17"></use>
                        </mask>
                        <g id="Clip-50"></g>
                        <path d="M6.9362,3.5322 C6.9362,5.4472 5.3832,7.0002 3.4672,7.0002 C1.5522,7.0002 -0.0008,5.4472 -0.0008,3.5322 C-0.0008,1.6172 1.5522,0.0642 3.4672,0.0642 C5.3832,0.0642 6.9362,1.6172 6.9362,3.5322" id="Fill-49" fill="#E73348" mask="url(#mask-18)"></path>
                    </g>
                    <g id="Group-54" transform="translate(34.000000, 136.936000)">
                        <mask id="mask-20" fill="white">
                            <use xlink:href="#path-19"></use>
                        </mask>
                        <g id="Clip-53"></g>
                        <path d="M6.9362,3.5322 C6.9362,5.4472 5.3832,7.0002 3.4672,7.0002 C1.5522,7.0002 -0.0008,5.4472 -0.0008,3.5322 C-0.0008,1.6172 1.5522,0.0642 3.4672,0.0642 C5.3832,0.0642 6.9362,1.6172 6.9362,3.5322" id="Fill-52" fill="#E73348" mask="url(#mask-20)"></path>
                    </g>
                    <g id="Group-57" transform="translate(68.000000, 136.936000)">
                        <mask id="mask-22" fill="white">
                            <use xlink:href="#path-21"></use>
                        </mask>
                        <g id="Clip-56"></g>
                        <path d="M6.9362,3.5322 C6.9362,5.4472 5.3832,7.0002 3.4672,7.0002 C1.5522,7.0002 -0.0008,5.4472 -0.0008,3.5322 C-0.0008,1.6172 1.5522,0.0642 3.4672,0.0642 C5.3832,0.0642 6.9362,1.6172 6.9362,3.5322" id="Fill-55" fill="#E73348" mask="url(#mask-22)"></path>
                    </g>
                    <g id="Group-60" transform="translate(102.000000, 136.936000)">
                        <mask id="mask-24" fill="white">
                            <use xlink:href="#path-23"></use>
                        </mask>
                        <g id="Clip-59"></g>
                        <path d="M6.9362,3.5322 C6.9362,5.4472 5.3832,7.0002 3.4672,7.0002 C1.5522,7.0002 -0.0008,5.4472 -0.0008,3.5322 C-0.0008,1.6172 1.5522,0.0642 3.4672,0.0642 C5.3832,0.0642 6.9362,1.6172 6.9362,3.5322" id="Fill-58" fill="#E73348" mask="url(#mask-24)"></path>
                    </g>
                    <g id="Group-63" transform="translate(136.000000, 136.936000)">
                        <mask id="mask-26" fill="white">
                            <use xlink:href="#path-25"></use>
                        </mask>
                        <g id="Clip-62"></g>
                        <path d="M6.9362,3.5322 C6.9362,5.4472 5.3832,7.0002 3.4672,7.0002 C1.5522,7.0002 -0.0008,5.4472 -0.0008,3.5322 C-0.0008,1.6172 1.5522,0.0642 3.4672,0.0642 C5.3832,0.0642 6.9362,1.6172 6.9362,3.5322" id="Fill-61" fill="#E73348" mask="url(#mask-26)"></path>
                    </g>
                </g>
                <g id="Group-64-Copy" transform="translate(193.195312, 994.719930)">
                    <g id="Group-3" transform="translate(0.000000, 0.936000)">
                        <mask id="mask-28" fill="white">
                            <use xlink:href="#path-27"></use>
                        </mask>
                        <g id="Clip-2"></g>
                        <path d="M6.9362,3.5322 C6.9362,5.4472 5.3832,7.0002 3.4672,7.0002 C1.5522,7.0002 -0.0008,5.4472 -0.0008,3.5322 C-0.0008,1.6162 1.5522,0.0642 3.4672,0.0642 C5.3832,0.0642 6.9362,1.6162 6.9362,3.5322" id="Fill-1" fill="#E73348" mask="url(#mask-28)"></path>
                    </g>
                    <path d="M40.9362,4.4682 C40.9362,6.3832 39.3832,7.9362 37.4672,7.9362 C35.5522,7.9362 33.9992,6.3832 33.9992,4.4682 C33.9992,2.5522 35.5522,1.0002 37.4672,1.0002 C39.3832,1.0002 40.9362,2.5522 40.9362,4.4682" id="Fill-4" fill="#E73348"></path>
                    <path d="M74.9362,4.4682 C74.9362,6.3832 73.3832,7.9362 71.4672,7.9362 C69.5522,7.9362 67.9992,6.3832 67.9992,4.4682 C67.9992,2.5522 69.5522,1.0002 71.4672,1.0002 C73.3832,1.0002 74.9362,2.5522 74.9362,4.4682" id="Fill-6" fill="#E73348"></path>
                    <path d="M108.9362,4.4682 C108.9362,6.3832 107.3832,7.9362 105.4672,7.9362 C103.5522,7.9362 101.9992,6.3832 101.9992,4.4682 C101.9992,2.5522 103.5522,1.0002 105.4672,1.0002 C107.3832,1.0002 108.9362,2.5522 108.9362,4.4682" id="Fill-8" fill="#E73348"></path>
                    <g id="Group-12" transform="translate(136.000000, 0.936000)">
                        <mask id="mask-30" fill="white">
                            <use xlink:href="#path-29"></use>
                        </mask>
                        <g id="Clip-11"></g>
                        <path d="M6.9362,3.5322 C6.9362,5.4472 5.3832,7.0002 3.4672,7.0002 C1.5522,7.0002 -0.0008,5.4472 -0.0008,3.5322 C-0.0008,1.6162 1.5522,0.0642 3.4672,0.0642 C5.3832,0.0642 6.9362,1.6162 6.9362,3.5322" id="Fill-10" fill="#E73348" mask="url(#mask-30)"></path>
                    </g>
                    <g id="Group-15" transform="translate(0.000000, 34.936000)">
                        <mask id="mask-32" fill="white">
                            <use xlink:href="#path-31"></use>
                        </mask>
                        <g id="Clip-14"></g>
                        <path d="M6.9362,3.5322 C6.9362,5.4472 5.3832,7.0002 3.4672,7.0002 C1.5522,7.0002 -0.0008,5.4472 -0.0008,3.5322 C-0.0008,1.6162 1.5522,0.0642 3.4672,0.0642 C5.3832,0.0642 6.9362,1.6162 6.9362,3.5322" id="Fill-13" fill="#E73348" mask="url(#mask-32)"></path>
                    </g>
                    <path d="M40.9362,38.4682 C40.9362,40.3832 39.3832,41.9362 37.4672,41.9362 C35.5522,41.9362 33.9992,40.3832 33.9992,38.4682 C33.9992,36.5522 35.5522,35.0002 37.4672,35.0002 C39.3832,35.0002 40.9362,36.5522 40.9362,38.4682" id="Fill-16" fill="#E73348"></path>
                    <path d="M74.9362,38.4682 C74.9362,40.3832 73.3832,41.9362 71.4672,41.9362 C69.5522,41.9362 67.9992,40.3832 67.9992,38.4682 C67.9992,36.5522 69.5522,35.0002 71.4672,35.0002 C73.3832,35.0002 74.9362,36.5522 74.9362,38.4682" id="Fill-18" fill="#E73348"></path>
                    <path d="M108.9362,38.4682 C108.9362,40.3832 107.3832,41.9362 105.4672,41.9362 C103.5522,41.9362 101.9992,40.3832 101.9992,38.4682 C101.9992,36.5522 103.5522,35.0002 105.4672,35.0002 C107.3832,35.0002 108.9362,36.5522 108.9362,38.4682" id="Fill-20" fill="#E73348"></path>
                    <g id="Group-24" transform="translate(136.000000, 34.936000)">
                        <mask id="mask-34" fill="white">
                            <use xlink:href="#path-33"></use>
                        </mask>
                        <g id="Clip-23"></g>
                        <path d="M6.9362,3.5322 C6.9362,5.4472 5.3832,7.0002 3.4672,7.0002 C1.5522,7.0002 -0.0008,5.4472 -0.0008,3.5322 C-0.0008,1.6162 1.5522,0.0642 3.4672,0.0642 C5.3832,0.0642 6.9362,1.6162 6.9362,3.5322" id="Fill-22" fill="#E73348" mask="url(#mask-34)"></path>
                    </g>
                    <g id="Group-27" transform="translate(0.000000, 68.936000)">
                        <mask id="mask-36" fill="white">
                            <use xlink:href="#path-35"></use>
                        </mask>
                        <g id="Clip-26"></g>
                        <path d="M6.9362,3.5322 C6.9362,5.4472 5.3832,7.0002 3.4672,7.0002 C1.5522,7.0002 -0.0008,5.4472 -0.0008,3.5322 C-0.0008,1.6172 1.5522,0.0642 3.4672,0.0642 C5.3832,0.0642 6.9362,1.6172 6.9362,3.5322" id="Fill-25" fill="#E73348" mask="url(#mask-36)"></path>
                    </g>
                    <path d="M40.9362,72.4682 C40.9362,74.3832 39.3832,75.9362 37.4672,75.9362 C35.5522,75.9362 33.9992,74.3832 33.9992,72.4682 C33.9992,70.5532 35.5522,69.0002 37.4672,69.0002 C39.3832,69.0002 40.9362,70.5532 40.9362,72.4682" id="Fill-28" fill="#E73348"></path>
                    <path d="M74.9362,72.4682 C74.9362,74.3832 73.3832,75.9362 71.4672,75.9362 C69.5522,75.9362 67.9992,74.3832 67.9992,72.4682 C67.9992,70.5532 69.5522,69.0002 71.4672,69.0002 C73.3832,69.0002 74.9362,70.5532 74.9362,72.4682" id="Fill-30" fill="#E73348"></path>
                    <path d="M108.9362,72.4682 C108.9362,74.3832 107.3832,75.9362 105.4672,75.9362 C103.5522,75.9362 101.9992,74.3832 101.9992,72.4682 C101.9992,70.5532 103.5522,69.0002 105.4672,69.0002 C107.3832,69.0002 108.9362,70.5532 108.9362,72.4682" id="Fill-32" fill="#E73348"></path>
                    <g id="Group-36" transform="translate(136.000000, 68.936000)">
                        <mask id="mask-38" fill="white">
                            <use xlink:href="#path-37"></use>
                        </mask>
                        <g id="Clip-35"></g>
                        <path d="M6.9362,3.5322 C6.9362,5.4472 5.3832,7.0002 3.4672,7.0002 C1.5522,7.0002 -0.0008,5.4472 -0.0008,3.5322 C-0.0008,1.6172 1.5522,0.0642 3.4672,0.0642 C5.3832,0.0642 6.9362,1.6172 6.9362,3.5322" id="Fill-34" fill="#E73348" mask="url(#mask-38)"></path>
                    </g>
                    <g id="Group-39" transform="translate(0.000000, 102.936000)">
                        <mask id="mask-40" fill="white">
                            <use xlink:href="#path-39"></use>
                        </mask>
                        <g id="Clip-38"></g>
                        <path d="M6.9362,3.5322 C6.9362,5.4472 5.3832,7.0002 3.4672,7.0002 C1.5522,7.0002 -0.0008,5.4472 -0.0008,3.5322 C-0.0008,1.6172 1.5522,0.0642 3.4672,0.0642 C5.3832,0.0642 6.9362,1.6172 6.9362,3.5322" id="Fill-37" fill="#E73348" mask="url(#mask-40)"></path>
                    </g>
                    <path d="M40.9362,106.4682 C40.9362,108.3832 39.3832,109.9362 37.4672,109.9362 C35.5522,109.9362 33.9992,108.3832 33.9992,106.4682 C33.9992,104.5532 35.5522,103.0002 37.4672,103.0002 C39.3832,103.0002 40.9362,104.5532 40.9362,106.4682" id="Fill-40" fill="#E73348"></path>
                    <path d="M74.9362,106.4682 C74.9362,108.3832 73.3832,109.9362 71.4672,109.9362 C69.5522,109.9362 67.9992,108.3832 67.9992,106.4682 C67.9992,104.5532 69.5522,103.0002 71.4672,103.0002 C73.3832,103.0002 74.9362,104.5532 74.9362,106.4682" id="Fill-42" fill="#E73348"></path>
                    <path d="M108.9362,106.4682 C108.9362,108.3832 107.3832,109.9362 105.4672,109.9362 C103.5522,109.9362 101.9992,108.3832 101.9992,106.4682 C101.9992,104.5532 103.5522,103.0002 105.4672,103.0002 C107.3832,103.0002 108.9362,104.5532 108.9362,106.4682" id="Fill-44" fill="#E73348"></path>
                    <g id="Group-48" transform="translate(136.000000, 102.936000)">
                        <mask id="mask-42" fill="white">
                            <use xlink:href="#path-41"></use>
                        </mask>
                        <g id="Clip-47"></g>
                        <path d="M6.9362,3.5322 C6.9362,5.4472 5.3832,7.0002 3.4672,7.0002 C1.5522,7.0002 -0.0008,5.4472 -0.0008,3.5322 C-0.0008,1.6172 1.5522,0.0642 3.4672,0.0642 C5.3832,0.0642 6.9362,1.6172 6.9362,3.5322" id="Fill-46" fill="#E73348" mask="url(#mask-42)"></path>
                    </g>
                    <g id="Group-51" transform="translate(0.000000, 136.936000)">
                        <mask id="mask-44" fill="white">
                            <use xlink:href="#path-43"></use>
                        </mask>
                        <g id="Clip-50"></g>
                        <path d="M6.9362,3.5322 C6.9362,5.4472 5.3832,7.0002 3.4672,7.0002 C1.5522,7.0002 -0.0008,5.4472 -0.0008,3.5322 C-0.0008,1.6172 1.5522,0.0642 3.4672,0.0642 C5.3832,0.0642 6.9362,1.6172 6.9362,3.5322" id="Fill-49" fill="#E73348" mask="url(#mask-44)"></path>
                    </g>
                    <g id="Group-54" transform="translate(34.000000, 136.936000)">
                        <mask id="mask-46" fill="white">
                            <use xlink:href="#path-45"></use>
                        </mask>
                        <g id="Clip-53"></g>
                        <path d="M6.9362,3.5322 C6.9362,5.4472 5.3832,7.0002 3.4672,7.0002 C1.5522,7.0002 -0.0008,5.4472 -0.0008,3.5322 C-0.0008,1.6172 1.5522,0.0642 3.4672,0.0642 C5.3832,0.0642 6.9362,1.6172 6.9362,3.5322" id="Fill-52" fill="#E73348" mask="url(#mask-46)"></path>
                    </g>
                    <g id="Group-57" transform="translate(68.000000, 136.936000)">
                        <mask id="mask-48" fill="white">
                            <use xlink:href="#path-47"></use>
                        </mask>
                        <g id="Clip-56"></g>
                        <path d="M6.9362,3.5322 C6.9362,5.4472 5.3832,7.0002 3.4672,7.0002 C1.5522,7.0002 -0.0008,5.4472 -0.0008,3.5322 C-0.0008,1.6172 1.5522,0.0642 3.4672,0.0642 C5.3832,0.0642 6.9362,1.6172 6.9362,3.5322" id="Fill-55" fill="#E73348" mask="url(#mask-48)"></path>
                    </g>
                    <g id="Group-60" transform="translate(102.000000, 136.936000)">
                        <mask id="mask-50" fill="white">
                            <use xlink:href="#path-49"></use>
                        </mask>
                        <g id="Clip-59"></g>
                        <path d="M6.9362,3.5322 C6.9362,5.4472 5.3832,7.0002 3.4672,7.0002 C1.5522,7.0002 -0.0008,5.4472 -0.0008,3.5322 C-0.0008,1.6172 1.5522,0.0642 3.4672,0.0642 C5.3832,0.0642 6.9362,1.6172 6.9362,3.5322" id="Fill-58" fill="#E73348" mask="url(#mask-50)"></path>
                    </g>
                    <g id="Group-63" transform="translate(136.000000, 136.936000)">
                        <mask id="mask-52" fill="white">
                            <use xlink:href="#path-51"></use>
                        </mask>
                        <g id="Clip-62"></g>
                        <path d="M6.9362,3.5322 C6.9362,5.4472 5.3832,7.0002 3.4672,7.0002 C1.5522,7.0002 -0.0008,5.4472 -0.0008,3.5322 C-0.0008,1.6172 1.5522,0.0642 3.4672,0.0642 C5.3832,0.0642 6.9362,1.6172 6.9362,3.5322" id="Fill-61" fill="#E73348" mask="url(#mask-52)"></path>
                    </g>
                </g>
                <path d="M631,9.99950102 C631,15.5221795 626.522954,20 620.999002,20 C615.477046,20 611,15.5221795 611,9.99950102 C611,4.47782047 615.477046,0 620.999002,0 C626.522954,0 631,4.47782047 631,9.99950102 Z" id="Stroke-1" stroke-opacity="0.5" stroke="#6B3F9E" stroke-width="5.284"></path>
                <g id="Group-4" transform="translate(216.000000, 0.000000)">
                    <path d="M297.782675,329.189739 L55.1396751,329.189739 C68.5056751,285.756739 87.9696751,263.636739 111.597675,249.187739 C112.108675,248.868739 112.639675,248.570739 113.149675,248.251739 C113.957675,247.763739 114.763675,247.317739 115.571675,246.849739 C116.337675,246.424739 117.101675,246.000739 117.866675,245.575739 C118.397675,245.298739 118.928675,245.001739 119.460675,244.724739 C122.839675,242.939739 126.303675,241.282739 129.830675,239.731739 L175.048675,219.927739 L220.265675,239.731739 C223.304675,241.070739 226.301675,242.494739 229.232675,244.001739 C230.168675,244.491739 231.102675,244.979739 232.016675,245.468739 C232.228675,245.575739 232.420675,245.680739 232.633675,245.808739 C233.482675,246.254739 234.311675,246.722739 235.139675,247.210739 C237.222675,248.379739 239.283675,249.632739 241.323675,250.908739 C242.428675,251.609739 243.533675,252.332739 244.637675,253.076739 C245.679675,253.777739 246.720675,254.478739 247.761675,255.221739 C247.846675,255.264739 247.910675,255.328739 247.995675,255.371739 C249.037675,256.114739 250.056675,256.858739 251.076675,257.623739 C252.118675,258.367739 253.116675,259.153739 254.136675,259.939739 C256.453675,261.745739 258.726675,263.615739 260.915675,265.548739 C261.679675,266.228739 262.466675,266.929739 263.210675,267.610739 C264.229675,268.523739 265.228675,269.459739 266.206675,270.415739 C267.098675,271.286739 268.011675,272.157739 268.883675,273.049739 L271.624675,275.854739 L271.624675,275.876739 C272.516675,276.810739 273.387675,277.766739 274.280675,278.744739 C274.811675,279.339739 275.322675,279.934739 275.832675,280.529739 C276.107675,280.848739 276.363675,281.167739 276.639675,281.485739 C284.905675,291.472739 292.002675,304.307739 297.782675,329.189739" id="Fill-33" fill="#FF9DB4"></path>
                    <mask id="mask-54" fill="white">
                        <use xlink:href="#path-53"></use>
                    </mask>
                    <g id="Clip-36"></g>
                    <polygon id="Fill-35" fill="#FF9DB4" mask="url(#mask-54)" points="144.500475 274.559039 205.608475 274.559039 205.608475 171.593039 144.500475 171.593039"></polygon>
                    <path d="M205.608875,171.593039 L205.608875,208.487039 C194.165875,217.226039 179.879875,222.400039 164.379875,222.400039 C157.458875,222.400039 150.793875,221.374039 144.500875,219.463039 L144.500875,171.593039 L205.608875,171.593039 Z" id="Fill-37" fill="#F987A5" mask="url(#mask-54)"></path>
                    <path d="M24.1254751,189.282539 C24.1254751,189.282539 36.5004751,176.114539 26.0604751,156.327539 C9.41947507,124.794539 63.2094751,125.516539 55.4484751,90.534539 C47.6874751,55.575539 77.6364751,70.631539 90.3604751,37.653539 C103.108475,4.675539 133.640475,3.929539 155.058475,17.237539" id="Stroke-38" stroke="#E73348" stroke-width="5.139" mask="url(#mask-54)"></path>
                    <path d="M287.831575,189.282539 L33.4475751,189.282539 C33.4475751,189.282539 45.8225751,176.114539 35.3825751,156.327539 C18.7415751,124.794539 72.5315751,125.516539 64.7705751,90.534539 C57.0105751,55.575539 86.9585751,70.631539 99.6835751,37.653539 C112.431575,4.675539 142.962575,3.929539 164.380575,17.237539 L243.178575,46.883539 L287.831575,189.282539 Z" id="Fill-39" fill="#E73348" mask="url(#mask-54)"></path>
                    <polygon id="Fill-40" fill="#CE253D" mask="url(#mask-54)" points="287.831575 189.282539 205.491575 189.282539 199.106575 67.158539 249.540575 67.158539"></polygon>
                    <path d="M125.683075,148.662339 C125.351075,161.360339 114.896075,167.245339 102.198075,166.914339 C89.4990751,166.583339 79.3990751,158.874339 79.7310751,146.176339 C80.0620751,133.476339 84.9510751,120.447339 97.6490751,120.778339 C110.348075,121.110339 126.014075,135.963339 125.683075,148.662339" id="Fill-41" fill="#FF9DB4" mask="url(#mask-54)"></path>
                    <path d="M224.426275,148.662339 C224.757275,161.360339 235.212275,167.245339 247.910275,166.914339 C260.609275,166.583339 270.709275,158.874339 270.377275,146.176339 C270.046275,133.476339 265.157275,120.447339 252.459275,120.778339 C239.760275,121.110339 224.094275,135.963339 224.426275,148.662339" id="Fill-42" fill="#FF9DB4" mask="url(#mask-54)"></path>
                    <path d="M243.172375,99.318139 L243.172375,138.118139 C243.172375,139.394139 243.151375,140.626139 243.087375,141.859139 C242.684375,149.253139 241.132375,156.308139 238.540375,162.873139 C237.201375,166.252139 235.629375,169.503139 233.801375,172.606139 C232.484375,174.879139 230.996375,177.089139 229.402375,179.193139 C228.851375,179.937139 228.276375,180.659139 227.682375,181.360139 C215.208375,196.574139 196.254375,206.242139 175.048375,206.242139 C153.841375,206.242139 134.908375,196.574139 122.435375,181.360139 C121.818375,180.659139 121.267375,179.937139 120.714375,179.193139 C119.099375,177.089139 117.633375,174.879139 116.294375,172.606139 C114.488375,169.525139 112.895375,166.274139 111.577375,162.895139 L111.577375,162.873139 C108.985375,156.308139 107.412375,149.253139 107.029375,141.859139 C106.944375,140.626139 106.923375,139.394139 106.923375,138.118139 L106.923375,99.318139 C106.923375,88.948139 109.239375,79.131139 113.383375,70.356139 C122.223375,51.550139 139.455375,37.441139 160.216375,32.830139 C164.997375,31.746139 169.948375,31.193139 175.048375,31.193139 C182.761375,31.193139 190.177375,32.490139 197.083375,34.848139 C207.027375,38.227139 215.952375,43.879139 223.219375,51.146139 C235.565375,63.471139 243.172375,80.512139 243.172375,99.318139" id="Fill-43" fill="#FF9DB4" mask="url(#mask-54)"></path>
                    <path d="M243.172375,106.032539 L243.172375,118.684539 C241.211375,117.167539 238.901375,115.696539 236.239375,114.249539 C206.593375,98.119539 219.479375,85.840539 201.737375,71.810539 C188.432375,61.306539 171.578375,78.183539 150.149375,55.540539 C148.631375,53.929539 147.067375,52.109539 145.480375,50.054539 C145.176375,49.658539 144.826375,49.214539 144.499375,48.794539 L147.884375,41.721539 C147.884375,41.698539 147.907375,41.651539 147.931375,41.604539 L152.039375,32.990539 C157.291375,31.800539 162.731375,31.193539 168.333375,31.193539 C176.807375,31.193539 184.953375,32.617539 192.540375,35.208539 C203.465375,38.920539 213.269375,45.129539 221.252375,53.113539 C234.815375,66.652539 243.172375,85.373539 243.172375,106.032539" id="Fill-44" fill="#F987A5" mask="url(#mask-54)"></path>
                    <g id="Group-47" mask="url(#mask-54)" fill="#F987A5">
                        <g transform="translate(106.292475, 132.218039)">
                            <path d="M136.792,9.6367 C136.396,17.0247 134.835,24.0857 132.248,30.6577 C130.919,34.0377 129.334,37.2777 127.517,40.3767 C126.188,42.6607 124.696,44.8747 123.111,46.9727 C122.553,47.7187 121.993,48.4417 121.387,49.1397 C120.198,49.3257 118.963,49.4197 117.705,49.4197 C104.211,49.4197 93.257,38.4657 93.257,24.9487 C93.257,11.4307 104.211,0.5007 117.705,0.5007 C125.419,0.5007 132.294,4.0667 136.792,9.6367" id="Fill-45"></path>
                            <path d="M44.2676,24.9482 C44.2676,38.4662 33.3136,49.4202 19.8196,49.4202 C18.5616,49.4202 17.3266,49.3262 16.1376,49.1392 C15.5316,48.4412 14.9726,47.7192 14.4136,46.9722 C12.8046,44.8752 11.3366,42.6612 10.0076,40.3772 C8.1906,37.3012 6.6056,34.0612 5.2776,30.6812 L5.2776,30.6582 C2.6896,24.0862 1.1286,17.0242 0.7326,9.6362 C5.2306,4.0662 12.1056,0.5012 19.8196,0.5012 C33.3136,0.5012 44.2676,11.4302 44.2676,24.9482" id="Fill-46"></path>
                        </g>
                    </g>
                    <polyline id="Stroke-48" stroke="#F987A5" stroke-width="3" mask="url(#mask-54)" points="175.054175 35.872839 185.734175 153.947839 164.374175 153.947839"></polyline>
                    <path d="M151.005375,128.613539 C151.005375,132.918539 148.092375,136.407539 144.499375,136.407539 C140.906375,136.407539 137.994375,132.918539 137.994375,128.613539 C137.994375,124.309539 140.906375,120.819539 144.499375,120.819539 C148.092375,120.819539 151.005375,124.309539 151.005375,128.613539" id="Fill-49" fill="#311746" mask="url(#mask-54)"></path>
                    <path d="M212.113775,128.613539 C212.113775,132.918539 209.201775,136.407539 205.608775,136.407539 C202.015775,136.407539 199.102775,132.918539 199.102775,128.613539 C199.102775,124.309539 202.015775,120.819539 205.608775,120.819539 C209.201775,120.819539 212.113775,124.309539 212.113775,128.613539" id="Fill-50" fill="#311746" mask="url(#mask-54)"></path>
                    <path d="M223.561975,97.920139 C222.753975,90.639139 202.143975,87.474139 197.539975,94.394139 C192.933975,101.314139 224.738975,108.541139 223.561975,97.920139" id="Fill-51" fill="#E73348" mask="url(#mask-54)"></path>
                    <path d="M126.546375,97.920139 C127.353375,90.639139 147.964375,87.474139 152.568375,94.394139 C157.173375,101.314139 125.369375,108.541139 126.546375,97.920139" id="Fill-52" fill="#E73348" mask="url(#mask-54)"></path>
                    <path d="M155.746575,166.594039 C155.746575,166.594039 173.610575,184.125039 194.361575,166.594039" id="Stroke-53" stroke="#311746" stroke-width="1.927" mask="url(#mask-54)"></path>
                    <path d="M164.508275,37.216539 C148.785275,64.604539 137.994275,50.915539 127.466275,62.809539 C120.427275,70.761539 126.211275,80.391539 114.154275,94.643539 C103.709275,106.989539 106.931275,123.250539 106.931275,123.250539 L102.705275,117.481539 L102.705275,75.223539 L133.607275,26.029539 L164.508275,30.502539 L164.508275,37.216539 Z" id="Fill-54" fill="#E73348" mask="url(#mask-54)"></path>
                    <path d="M343.486775,189.282539 L267.206775,189.282539 C267.206775,189.282539 278.159775,176.440539 259.025775,160.173539 C236.116775,140.712539 275.619775,115.192539 239.262775,95.452539 C212.274775,80.769539 223.997775,69.582539 207.845775,56.810539 C195.750775,47.255539 180.391775,62.614539 160.883775,42.011539 C159.508775,40.543539 158.088775,38.888539 156.642775,37.024539 C156.363775,36.651539 156.059775,36.255539 155.757775,35.859539 L158.833775,29.426539 C158.833775,29.403539 158.856775,29.356539 158.880775,29.333539 L162.772775,21.153539 L164.380775,17.773539 C185.355775,-5.904461 214.977775,-8.119461 237.607775,24.579539 C260.260775,57.277539 293.169775,40.823539 289.067775,77.856539 C284.941775,114.913539 337.636775,95.965539 326.939775,132.182539 C316.218775,168.423539 347.518775,158.145539 343.486775,189.282539" id="Fill-55" fill="#E73348" mask="url(#mask-54)"></path>
                    <path d="M304.815875,371.687739 L45.2798751,371.687739 C48.0428751,355.602739 51.3578751,341.535739 55.1398751,329.189739 C68.5048751,285.756739 87.9688751,263.636739 111.597875,249.187739 C111.949875,248.967739 112.310875,248.757739 112.668875,248.544739 C113.378875,248.121739 114.077875,247.679739 114.799875,247.278739 C116.340875,246.422739 117.880875,245.567739 119.420875,244.710739 C119.436875,244.716739 119.444875,244.719739 119.460875,244.724739 C140.086875,292.732739 208.120875,292.815739 228.862875,244.858739 L229.232875,244.001739 C230.168875,244.491739 231.102875,244.979739 232.016875,245.468739 C232.228875,245.575739 232.419875,245.680739 232.632875,245.808739 C233.482875,246.254739 234.311875,246.722739 235.139875,247.210739 C237.222875,248.379739 239.283875,249.632739 241.323875,250.908739 C242.428875,251.609739 243.533875,252.332739 244.637875,253.076739 C245.679875,253.777739 246.720875,254.478739 247.761875,255.221739 C247.846875,255.264739 247.910875,255.328739 247.995875,255.371739 C249.037875,256.114739 250.056875,256.858739 251.076875,257.623739 C252.099875,258.354739 253.083875,259.125739 254.085875,259.899739 C256.489875,261.753739 258.826875,263.690739 261.094875,265.708739 C261.802875,266.338739 262.524875,266.983739 263.210875,267.610739 C264.229875,268.523739 265.228875,269.458739 266.206875,270.415739 C267.098875,271.286739 268.011875,272.157739 268.882875,273.049739 L271.624875,275.854739 L271.624875,275.875739 C272.516875,276.810739 273.387875,277.766739 274.280875,278.744739 C274.811875,279.339739 275.322875,279.934739 275.832875,280.529739 C276.107875,280.848739 276.363875,281.166739 276.639875,281.485739 C284.905875,291.472739 292.002875,304.307739 297.782875,329.189739 C300.417875,340.557739 302.753875,354.433739 304.815875,371.687739" id="Fill-56" fill="#6B3F9E" mask="url(#mask-54)"></path>
                    <path d="M115.314975,253.586239 C115.646975,254.358239 115.989975,255.118239 116.342975,255.867239" id="Stroke-57" stroke="#FFFFFF" mask="url(#mask-54)"></path>
                    <path d="M118.648875,260.311839 C143.389875,303.948839 208.223875,302.997839 231.181875,257.357839" id="Stroke-58" stroke="#FFFFFF" stroke-dasharray="5.006,5.006" mask="url(#mask-54)"></path>
                    <path d="M232.267075,255.098939 C232.474075,254.646939 232.677075,254.190939 232.876075,253.729939 L233.274075,252.809939" id="Stroke-59" stroke="#FFFFFF" mask="url(#mask-54)"></path>
                    <line x1="232.713375" y1="371.687739" x2="247.402375" y2="247.634739" id="Stroke-60" stroke="#E73348" stroke-width="10.278" mask="url(#mask-54)"></line>
                    <line x1="117.063975" y1="371.687739" x2="96.1499751" y2="250.772739" id="Stroke-61" stroke="#E73348" stroke-width="10.278" mask="url(#mask-54)"></line>
                    <path d="M102.951675,144.684839 C102.107675,141.748839 99.1416751,133.996839 91.4366751,134.440839 C89.5656751,134.609839 87.8906751,135.330839 86.4716751,136.283839 C88.1116751,135.819839 89.8356751,135.704839 91.3516751,136.068839 C92.8786751,136.420839 94.0936751,137.264839 94.9016751,138.362839 C95.6486751,139.281839 96.0196751,140.513839 96.3306751,141.718839 C94.0286751,142.560839 92.5736751,144.937839 92.9876751,147.443839 C93.4566751,150.277839 96.1336751,152.194839 98.9676751,151.726839 C101.801675,151.257839 103.718675,148.580839 103.249675,145.746839 C103.187675,145.374839 103.084675,145.021839 102.951675,144.684839" id="Fill-62" fill="#EF7394" mask="url(#mask-54)"></path>
                    <path d="M101.762175,165.010039 C101.762175,167.334039 99.8771751,169.219039 97.5531751,169.219039 C95.2281751,169.219039 93.3441751,167.334039 93.3441751,165.010039 C93.3441751,162.685039 95.2281751,160.801039 97.5531751,160.801039 C99.8771751,160.801039 101.762175,162.685039 101.762175,165.010039" id="Fill-63" fill="#FFFFFF" mask="url(#mask-54)"></path>
                    <path d="M254.011175,165.010039 C254.011175,167.334039 252.127175,169.219039 249.802175,169.219039 C247.478175,169.219039 245.593175,167.334039 245.593175,165.010039 C245.593175,162.685039 247.478175,160.801039 249.802175,160.801039 C252.127175,160.801039 254.011175,162.685039 254.011175,165.010039" id="Fill-64" fill="#FFFFFF" mask="url(#mask-54)"></path>
                    <path d="M125.059075,143.051039 C125.059075,144.055039 124.247075,144.867039 123.243075,144.867039 C122.240075,144.867039 121.426075,144.055039 121.426075,143.051039 C121.426075,142.048039 122.240075,141.235039 123.243075,141.235039 C124.247075,141.235039 125.059075,142.048039 125.059075,143.051039" id="Fill-65" fill="#E73348" mask="url(#mask-54)"></path>
                    <path d="M134.177275,143.051039 C134.177275,144.055039 133.365275,144.867039 132.361275,144.867039 C131.358275,144.867039 130.544275,144.055039 130.544275,143.051039 C130.544275,142.048039 131.358275,141.235039 132.361275,141.235039 C133.365275,141.235039 134.177275,142.048039 134.177275,143.051039" id="Fill-66" fill="#E73348" mask="url(#mask-54)"></path>
                    <path d="M130.083475,149.491439 C130.083475,150.495439 129.270475,151.307439 128.267475,151.307439 C127.263475,151.307439 126.450475,150.495439 126.450475,149.491439 C126.450475,148.488439 127.263475,147.675439 128.267475,147.675439 C129.270475,147.675439 130.083475,148.488439 130.083475,149.491439" id="Fill-67" fill="#E73348" mask="url(#mask-54)"></path>
                    <path d="M141.562975,149.491439 C141.562975,150.495439 140.749975,151.307439 139.746975,151.307439 C138.743975,151.307439 137.929975,150.495439 137.929975,149.491439 C137.929975,148.488439 138.743975,147.675439 139.746975,147.675439 C140.749975,147.675439 141.562975,148.488439 141.562975,149.491439" id="Fill-68" fill="#E73348" mask="url(#mask-54)"></path>
                    <path d="M227.727075,143.051039 C227.727075,144.055039 228.540075,144.867039 229.543075,144.867039 C230.547075,144.867039 231.361075,144.055039 231.361075,143.051039 C231.361075,142.048039 230.547075,141.235039 229.543075,141.235039 C228.540075,141.235039 227.727075,142.048039 227.727075,143.051039" id="Fill-69" fill="#E73348" mask="url(#mask-54)"></path>
                    <path d="M218.608875,143.051039 C218.608875,144.055039 219.421875,144.867039 220.425875,144.867039 C221.428875,144.867039 222.242875,144.055039 222.242875,143.051039 C222.242875,142.048039 221.428875,141.235039 220.425875,141.235039 C219.421875,141.235039 218.608875,142.048039 218.608875,143.051039" id="Fill-70" fill="#E73348" mask="url(#mask-54)"></path>
                    <path d="M222.703575,149.491439 C222.703575,150.495439 223.516575,151.307439 224.519575,151.307439 C225.522575,151.307439 226.336575,150.495439 226.336575,149.491439 C226.336575,148.488439 225.522575,147.675439 224.519575,147.675439 C223.516575,147.675439 222.703575,148.488439 222.703575,149.491439" id="Fill-71" fill="#E73348" mask="url(#mask-54)"></path>
                    <path d="M211.224075,149.491439 C211.224075,150.495439 212.037075,151.307439 213.040075,151.307439 C214.043075,151.307439 214.857075,150.495439 214.857075,149.491439 C214.857075,148.488439 214.043075,147.675439 213.040075,147.675439 C212.037075,147.675439 211.224075,148.488439 211.224075,149.491439" id="Fill-72" fill="#E73348" mask="url(#mask-54)"></path>
                    <path d="M-42.1518249,345.624339 C-42.1748249,345.478339 -42.1958249,345.339339 -42.2188249,345.190339 C-42.2018249,345.302339 -42.1868249,345.404339 -42.1688249,345.518339 C-42.1628249,345.554339 -42.1578249,345.588339 -42.1518249,345.624339" id="Fill-107" fill="#FFB1A4" mask="url(#mask-54)"></path>
                    <path d="M-42.2192249,345.190739 C-42.2402249,345.054739 -42.2642249,344.907739 -42.2812249,344.790739 C-42.2822249,344.779739 -42.2842249,344.768739 -42.2862249,344.758739 C-42.2842249,344.768739 -42.2822249,344.779739 -42.2812249,344.790739 C-42.2642249,344.907739 -42.2402249,345.053739 -42.2192249,345.190739" id="Fill-108" fill="#FFB1A4" mask="url(#mask-54)"></path>
                </g>
            </g>
        </g>
    </g>
</svg>