<?xml version="1.0" encoding="UTF-8"?>
<svg width="617px" height="660px" viewBox="0 0 617 660" version="1.1" xmlns="http://www.w3.org/2000/svg" xmlns:xlink="http://www.w3.org/1999/xlink">
    <title>5109B869-A810-4A6F-BB9D-8D49CDAFB061</title>
    <defs>
        <polygon id="path-1" points="0.385124948 0.0887479839 466.851322 0.0887479839 466.851322 656.54904 0.385124948 656.54904"></polygon>
        <path d="M37.4248244,160.610008 C77.127762,265.794913 63.0727819,339.001403 22.0548357,410.695204 L22.0548357,410.695204 C-18.9617875,482.389004 -8.14141076,597.36003 110.38266,642.379101 L110.38266,642.379101 C228.909377,687.398171 441.760833,630.494819 465.64398,394.255633 L465.64398,394.255633 C476.526535,286.604329 414.483006,113.474232 253.061082,29.7557419 L253.061082,29.7557419 C212.981105,8.96884476 177.076346,0.0887473915 146.331076,0.0887473915 L146.331076,0.0887473915 C53.2512295,0.0966955645 7.57783569,81.5408528 37.4248244,160.610008" id="path-3"></path>
        <path d="M37.4248244,160.610008 C77.127762,265.794913 63.0727819,339.001403 22.0548357,410.695204 L22.0548357,410.695204 C-18.9617875,482.389004 -8.14141076,597.36003 110.38266,642.379101 L110.38266,642.379101 C228.909377,687.398171 441.760833,630.494819 465.64398,394.255633 L465.64398,394.255633 C476.526535,286.604329 414.483006,113.474232 253.061082,29.7557419 L253.061082,29.7557419 C212.981105,8.96884476 177.076346,0.0887473915 146.331076,0.0887473915 L146.331076,0.0887473915 C53.2512295,0.0966955645 7.57783569,81.5408528 37.4248244,160.610008" id="path-5"></path>
        <path d="M37.4248244,160.610008 C77.127762,265.794913 63.0727819,339.001403 22.0548357,410.695204 L22.0548357,410.695204 C-18.9617875,482.389004 -8.14141076,597.36003 110.38266,642.379101 L110.38266,642.379101 C228.909377,687.398171 441.760833,630.494819 465.64398,394.255633 L465.64398,394.255633 C476.526535,286.604329 414.483006,113.474232 253.061082,29.7557419 L253.061082,29.7557419 C212.981105,8.96884476 177.076346,0.0887473915 146.331076,0.0887473915 L146.331076,0.0887473915 C53.2512295,0.0966955645 7.57783569,81.5408528 37.4248244,160.610008 L37.4248244,160.610008 Z" id="path-7"></path>
        <path d="M37.4248244,160.610008 C77.127762,265.794913 63.0727819,339.001403 22.0548357,410.695204 L22.0548357,410.695204 C-18.9617875,482.389004 -8.14141076,597.36003 110.38266,642.379101 L110.38266,642.379101 C228.909377,687.398171 441.760833,630.494819 465.64398,394.255633 L465.64398,394.255633 C476.526535,286.604329 414.483006,113.474232 253.061082,29.7557419 L253.061082,29.7557419 C212.981105,8.96884476 177.076346,0.0887473915 146.331076,0.0887473915 L146.331076,0.0887473915 C53.2512295,0.0966955645 7.57783569,81.5408528 37.4248244,160.610008 L37.4248244,160.610008 Z" id="path-9"></path>
        <path d="M37.4248244,160.610008 C77.127762,265.794913 63.0727819,339.001403 22.0548357,410.695204 L22.0548357,410.695204 C-18.9617875,482.389004 -8.14141076,597.36003 110.38266,642.379101 L110.38266,642.379101 C228.909377,687.398171 441.760833,630.494819 465.64398,394.255633 L465.64398,394.255633 C476.526535,286.604329 414.483006,113.474232 253.061082,29.7557419 L253.061082,29.7557419 C212.981105,8.96884476 177.076346,0.0887473915 146.331076,0.0887473915 L146.331076,0.0887473915 C53.2512295,0.0966955645 7.57783569,81.5408528 37.4248244,160.610008" id="path-11"></path>
        <path d="M37.4248244,160.610008 C77.127762,265.794913 63.0727819,339.001403 22.0548357,410.695204 L22.0548357,410.695204 C-18.9617875,482.389004 -8.14141076,597.36003 110.38266,642.379101 L110.38266,642.379101 C228.909377,687.398171 441.760833,630.494819 465.64398,394.255633 L465.64398,394.255633 C476.526535,286.604329 414.483006,113.474232 253.061082,29.7557419 L253.061082,29.7557419 C212.981105,8.96884476 177.076346,0.0887473915 146.331076,0.0887473915 L146.331076,0.0887473915 C53.2512295,0.0966955645 7.57783569,81.5408528 37.4248244,160.610008" id="path-13"></path>
        <path d="M37.4248244,160.610008 C77.127762,265.794913 63.0727819,339.001403 22.0548357,410.695204 L22.0548357,410.695204 C-18.9617875,482.389004 -8.14141076,597.36003 110.38266,642.379101 L110.38266,642.379101 C228.909377,687.398171 441.760833,630.494819 465.64398,394.255633 L465.64398,394.255633 C476.526535,286.604329 414.483006,113.474232 253.061082,29.7557419 L253.061082,29.7557419 C212.981105,8.96884476 177.076346,0.0887473915 146.331076,0.0887473915 L146.331076,0.0887473915 C53.2512295,0.0966955645 7.57783569,81.5408528 37.4248244,160.610008" id="path-15"></path>
        <path d="M37.4248244,160.610008 C77.127762,265.794913 63.0727819,339.001403 22.0548357,410.695204 L22.0548357,410.695204 C-18.9617875,482.389004 -8.14141076,597.36003 110.38266,642.379101 L110.38266,642.379101 C228.909377,687.398171 441.760833,630.494819 465.64398,394.255633 L465.64398,394.255633 C476.526535,286.604329 414.483006,113.474232 253.061082,29.7557419 L253.061082,29.7557419 C212.981105,8.96884476 177.076346,0.0887473915 146.331076,0.0887473915 L146.331076,0.0887473915 C53.2512295,0.0966955645 7.57783569,81.5408528 37.4248244,160.610008" id="path-17"></path>
        <path d="M37.4248244,160.610008 C77.127762,265.794913 63.0727819,339.001403 22.0548357,410.695204 L22.0548357,410.695204 C-18.9617875,482.389004 -8.14141076,597.36003 110.38266,642.379101 L110.38266,642.379101 C228.909377,687.398171 441.760833,630.494819 465.64398,394.255633 L465.64398,394.255633 C476.526535,286.604329 414.483006,113.474232 253.061082,29.7557419 L253.061082,29.7557419 C212.981105,8.96884476 177.076346,0.0887473915 146.331076,0.0887473915 L146.331076,0.0887473915 C53.2512295,0.0966955645 7.57783569,81.5408528 37.4248244,160.610008" id="path-19"></path>
        <path d="M37.4248244,160.610008 C77.127762,265.794913 63.0727819,339.001403 22.0548357,410.695204 L22.0548357,410.695204 C-18.9617875,482.389004 -8.14141076,597.36003 110.38266,642.379101 L110.38266,642.379101 C228.909377,687.398171 441.760833,630.494819 465.64398,394.255633 L465.64398,394.255633 C476.526535,286.604329 414.483006,113.474232 253.061082,29.7557419 L253.061082,29.7557419 C212.981105,8.96884476 177.076346,0.0887473915 146.331076,0.0887473915 L146.331076,0.0887473915 C53.2512295,0.0966955645 7.57783569,81.5408528 37.4248244,160.610008" id="path-21"></path>
        <path d="M37.4248244,160.610008 C77.127762,265.794913 63.0727819,339.001403 22.0548357,410.695204 L22.0548357,410.695204 C-18.9617875,482.389004 -8.14141076,597.36003 110.38266,642.379101 L110.38266,642.379101 C228.909377,687.398171 441.760833,630.494819 465.64398,394.255633 L465.64398,394.255633 C476.526535,286.604329 414.483006,113.474232 253.061082,29.7557419 L253.061082,29.7557419 C212.981105,8.96884476 177.076346,0.0887473915 146.331076,0.0887473915 L146.331076,0.0887473915 C53.2512295,0.0966955645 7.57783569,81.5408528 37.4248244,160.610008 L37.4248244,160.610008 Z" id="path-23"></path>
        <path d="M37.4248244,160.610008 C77.127762,265.794913 63.0727819,339.001403 22.0548357,410.695204 L22.0548357,410.695204 C-18.9617875,482.389004 -8.14141076,597.36003 110.38266,642.379101 L110.38266,642.379101 C228.909377,687.398171 441.760833,630.494819 465.64398,394.255633 L465.64398,394.255633 C476.526535,286.604329 414.483006,113.474232 253.061082,29.7557419 L253.061082,29.7557419 C212.981105,8.96884476 177.076346,0.0887473915 146.331076,0.0887473915 L146.331076,0.0887473915 C53.2512295,0.0966955645 7.57783569,81.5408528 37.4248244,160.610008" id="path-25"></path>
        <polygon id="path-27" points="0.35245794 0.990486101 295.280841 0.990486101 295.280841 256.737929 0.35245794 256.737929"></polygon>
        <polygon id="path-29" points="0 0.768501958 136.004014 0.768501958 136.004014 113.723253 0 113.723253"></polygon>
        <polygon id="path-31" points="0 0.00854972875 251.96026 0.00854972875 251.96026 196.104297 0 196.104297"></polygon>
        <polygon id="path-33" points="0 0.2978 4.540625 0.2978 4.540625 5.38232 0 5.38232"></polygon>
        <polygon id="path-35" points="0.147125 0.2978 4.688375 0.2978 4.688375 5.38232 0.147125 5.38232"></polygon>
        <polygon id="path-37" points="0.375625 0.2978 4.9175 0.2978 4.9175 5.38232 0.375625 5.38232"></polygon>
        <polygon id="path-39" points="0.227875 0.2978 4.770375 0.2978 4.770375 5.38232 0.227875 5.38232"></polygon>
    </defs>
    <g id="Page-1" stroke="none" stroke-width="1" fill="none" fill-rule="evenodd">
        <g id="Register" transform="translate(-547.000000, -323.000000)">
            <g id="illustration" transform="translate(547.000000, 323.000000)">
                <g id="Group-91">
                    <g id="Group-3" transform="translate(61.000000, 0.000000)">
                        <mask id="mask-2" fill="white">
                            <use xlink:href="#path-1"></use>
                        </mask>
                        <g id="Clip-2"></g>
                        <path d="M110.382792,642.379763 C-8.14260142,597.360693 -18.9616552,482.388342 22.053645,410.694541 C63.0715912,339.002066 77.1278943,265.794251 37.4249567,160.61067 C-2.28062691,55.4244405 91.637968,-53.9660595 253.061214,29.7550796 C414.483138,113.474894 476.526668,286.603666 465.644112,394.254971 C441.760965,630.494156 228.909509,687.397509 110.382792,642.379763" id="Fill-1" fill="#FFEBEF" mask="url(#mask-2)"></path>
                    </g>
                    <g id="Group-40" transform="translate(61.000000, 0.000000)">
                        <g id="Group-6">
                            <mask id="mask-4" fill="white">
                                <use xlink:href="#path-3"></use>
                            </mask>
                            <g id="Clip-5"></g>
                            <path d="M237.485111,652.27662 C245.776014,631.522838 259.098082,611.057818 251.304607,587.950227 C246.995771,575.174491 233.459386,569.664169 223.133791,562.682219 C205.465844,550.735681 197.706765,532.755604 199.258581,511.632259 C199.879043,503.183981 198.512439,493.77537 192.149068,488.19087 C182.682065,479.881675 166.99457,483.817052 156.72057,476.530445 C151.203884,472.616261 148.178306,466.180046 144.389388,460.571703 C135.224017,447.010481 118.431861,440.310671 118.431861,440.310671 C118.431861,440.310671 119.171388,454.324905 111.347485,468.026534 C106.326904,476.819207 102.14904,486.655663 101.241499,496.91334 C100.5324,504.927151 102.938839,511.611066 107.484482,518.055229 C112.835799,525.63987 116.75172,531.873423 117.485955,541.217128 C118.618397,555.641987 100.08789,586.487872 117.280898,594.293721 C121.958836,596.41705 127.578711,596.406453 131.597822,599.88352 C138.883286,606.183302 132.103187,615.809147 132.493456,623.522274 C133.092751,635.381389 137.666176,649.251241 146.297077,656.261007 C166.888734,672.981393 199.146131,679.844128 226.00723,679.274552" id="Fill-4" fill="#F4D4DC" mask="url(#mask-4)"></path>
                        </g>
                        <g id="Group-9">
                            <mask id="mask-6" fill="white">
                                <use xlink:href="#path-5"></use>
                            </mask>
                            <g id="Clip-8"></g>
                            <path d="M516.165575,564.275047 L172.837229,610.287565 C183.523988,546.220793 206.873988,511.193156 237.571631,486.240402 C238.233105,485.692019 238.927651,485.168803 239.589124,484.621744 C240.638221,483.776652 241.696578,482.991166 242.750966,482.176539 C243.753759,481.428142 244.755229,480.682394 245.758022,479.933996 C246.456538,479.442571 247.151085,478.92068 247.850923,478.42793 C252.293376,475.25817 256.880031,472.25266 261.577813,469.386232 L321.807583,432.755833 L389.539782,452.236678 C394.093362,453.557301 398.601963,455.00641 403.036478,456.587978 C404.452031,457.103246 405.867583,457.61719 407.254031,458.136432 C407.574184,458.246373 407.865232,458.361613 408.189354,458.500696 C409.47658,458.972252 410.738671,459.478248 412.003408,460.013385 C415.170541,461.273077 418.324444,462.658605 421.451889,464.078573 C423.147906,464.862734 424.849215,465.676037 426.55317,466.519805 C428.159226,467.317212 429.76396,468.11197 431.379277,468.968984 C431.507603,469.012696 431.60947,469.090847 431.739119,469.135883 C433.35179,469.990248 434.93668,470.851236 436.524215,471.74269 C438.139532,472.598379 439.700609,473.521623 441.292113,474.443543 C444.913017,476.561573 448.483648,478.780273 451.947122,481.10494 C453.157617,481.923541 454.40251,482.767309 455.583901,483.589883 C457.200541,484.690623 458.790722,485.825803 460.354444,486.995422 C461.783226,488.060398 463.23979,489.1214 464.642113,490.220815 L469.052816,493.674039 L469.056784,493.704504 C470.49615,494.859553 471.909056,496.049041 473.357682,497.265021 C474.221566,498.006795 475.056345,498.752543 475.891124,499.499615 C476.340926,499.898319 476.762946,500.300996 477.214071,500.701025 C490.800728,513.282045 503.274787,530.118994 516.165575,564.275047" id="Fill-7" fill="#FF9DB4" mask="url(#mask-6)"></path>
                        </g>
                        <g id="Group-12">
                            <mask id="mask-8" fill="white">
                                <use xlink:href="#path-7"></use>
                            </mask>
                            <g id="Clip-11"></g>
                            <polygon id="Fill-10" fill="#FF9DB4" mask="url(#mask-8)" points="355.895276 358.48397 375.396825 504.356514 288.931709 515.945411 269.43016 370.071543"></polygon>
                        </g>
                        <g id="Group-15">
                            <mask id="mask-10" fill="white">
                                <use xlink:href="#path-9"></use>
                            </mask>
                            <g id="Clip-14"></g>
                            <path d="M355.895276,358.48397 L362.881755,410.751234 C348.346545,425.303254 329.110908,435.341049 307.181752,438.280329 C297.386658,439.593004 287.762225,439.404911 278.49631,437.890897 L269.43016,370.071543 L355.895276,358.48397 Z" id="Fill-13" fill="#F987A5" mask="url(#mask-10)"></path>
                        </g>
                        <g id="Group-18">
                            <mask id="mask-12" fill="white">
                                <use xlink:href="#path-11"></use>
                            </mask>
                            <g id="Clip-17"></g>
                            <path d="M534.16611,623.148472 L166.936095,672.36519 C167.797333,649.053611 169.824087,628.49587 172.837758,610.287962 C183.523195,546.22119 206.874518,511.192228 237.572161,486.240799 C238.025931,485.861964 238.498223,485.4977 238.9639,485.128138 C239.888639,484.392986 240.793535,483.633993 241.740764,482.929307 C243.758257,481.42589 245.77575,479.921148 247.79192,478.416406 C247.817056,478.42038 247.827639,478.423029 247.850129,478.428327 C286.128254,542.530864 382.408308,529.745855 402.67452,457.87191 L403.037008,456.588376 C404.451237,457.103644 405.868112,457.617587 407.253237,458.136829 C407.574713,458.246771 407.864438,458.362011 408.18856,458.501093 C409.47711,458.97265 410.737877,459.477321 412.002614,460.013783 C415.17107,461.273474 418.324974,462.659003 421.452418,464.07897 C423.148435,464.863132 424.848421,465.676434 426.552376,466.520202 C428.158433,467.316285 429.764489,468.112368 431.379807,468.969382 C431.506809,469.013093 431.609999,469.08992 431.738325,469.136281 C433.352319,469.990646 434.935886,470.850309 436.523421,471.741763 C438.11228,472.582882 439.64822,473.491555 441.211942,474.396255 C444.965141,476.567269 448.638962,478.868093 452.230761,481.296079 C453.351297,482.053749 454.494322,482.831287 455.58443,483.590281 C457.199747,484.691021 458.789928,485.8262 460.354974,486.995819 C461.782433,488.060795 463.240319,489.120472 464.641319,490.219888 L469.052022,493.674436 L469.055991,493.703577 C470.495356,494.858626 471.908263,496.049438 473.356889,497.265418 C474.220773,498.005868 475.055552,498.75294 475.890331,499.498688 C476.341455,499.898716 476.762152,500.301394 477.213277,500.701422 C490.801257,513.282442 503.273993,530.119392 516.166104,564.275444 C522.0466,579.880519 527.981336,599.09512 534.16611,623.148472" id="Fill-16" fill="#6B3F9E" mask="url(#mask-12)"></path>
                        </g>
                        <g id="Group-21">
                            <mask id="mask-14" fill="white">
                                <use xlink:href="#path-13"></use>
                            </mask>
                            <g id="Clip-20"></g>
                            <path d="M243.663137,491.767679 C244.278307,492.798215 244.906707,493.811532 245.550981,494.804979" id="Stroke-19" stroke="#FFFFFF" stroke-width="1.079" mask="url(#mask-14)"></path>
                        </g>
                        <g id="Group-24">
                            <mask id="mask-16" fill="white">
                                <use xlink:href="#path-15"></use>
                            </mask>
                            <g id="Clip-23"></g>
                            <path d="M249.653967,500.663406 C292.926213,557.79194 384.483349,544.149918 408.324162,475.138426" id="Stroke-22" stroke="#FFFFFF" stroke-width="1.079" stroke-dasharray="5.402,5.402" mask="url(#mask-16)"></path>
                        </g>
                        <g id="Group-27">
                            <mask id="mask-18" fill="white">
                                <use xlink:href="#path-17"></use>
                            </mask>
                            <g id="Clip-26"></g>
                            <path d="M409.430674,471.733153 C409.638377,471.05231 409.839465,470.367494 410.033938,469.677379 L410.422884,468.298473" id="Stroke-25" stroke="#FFFFFF" stroke-width="1.079" mask="url(#mask-18)"></path>
                        </g>
                        <g id="Group-30">
                            <mask id="mask-20" fill="white">
                                <use xlink:href="#path-19"></use>
                            </mask>
                            <g id="Clip-29"></g>
                            <line x1="432.144337" y1="636.821358" x2="429.43362" y2="458.289555" id="Stroke-28" stroke="#E73348" stroke-width="11.091" mask="url(#mask-20)"></line>
                        </g>
                        <g id="Group-33">
                            <mask id="mask-22" fill="white">
                                <use xlink:href="#path-21"></use>
                            </mask>
                            <g id="Clip-32"></g>
                            <line x1="268.50714" y1="658.752177" x2="216.012636" y2="491.415866" id="Stroke-31" stroke="#E73348" stroke-width="11.091" mask="url(#mask-22)"></line>
                        </g>
                        <g id="Group-36">
                            <mask id="mask-24" fill="white">
                                <use xlink:href="#path-23"></use>
                            </mask>
                            <g id="Clip-35"></g>
                            <polygon id="Fill-34" fill="#FF9DB4" mask="url(#mask-24)" points="74.2330235 514.580679 41.138202 524.995984 61.8171737 589.472056 105.200548 570.016379"></polygon>
                        </g>
                        <g id="Group-39">
                            <mask id="mask-26" fill="white">
                                <use xlink:href="#path-25"></use>
                            </mask>
                            <g id="Clip-38"></g>
                            <path d="M171.310682,672.740713 L131.308758,558.306149 L105.200415,570.015584 L61.8170414,589.472586 L39.8746561,599.311691 L101.725036,765.504875 C117.890115,808.941052 173.018605,822.216161 206.867506,790.591413 C234.035529,765.20684 257.441092,540.286334 171.310682,672.740713" id="Fill-37" fill="#6B3F9E" mask="url(#mask-26)"></path>
                        </g>
                    </g>
                    <g id="Group-90" transform="translate(0.000000, 116.000000)">
                        <path d="M163.445286,302.855395 C163.445286,302.855395 178.4744,281.844541 159.937919,255.780746 C130.396065,214.244056 206.70546,205.063154 189.083887,156.953532 C171.46761,108.877041 216.731048,124.534136 228.500389,75.3789407 C240.301507,26.2184451 283.396177,19.369874 316.248117,34.1682473" id="Stroke-41" stroke="#E73348" stroke-width="5.546"></path>
                        <path d="M536.883742,252.824384 L176.6471,301.086402 C176.6471,301.086402 191.67489,280.074223 173.138409,254.011752 C143.597879,212.475063 219.907274,203.294161 202.285701,155.184539 C184.6681,107.108047 229.932862,122.765142 241.702203,73.6099474 C253.503321,24.450777 296.597991,17.6008807 329.44993,32.399254 L446.656098,59.4675421 L536.883742,252.824384 Z" id="Fill-43" fill="#E73348"></path>
                        <polygon id="Fill-45" fill="#CE253D" points="536.883742 252.824384 420.281334 268.445699 388.088763 96.5661775 459.509823 86.9983208"></polygon>
                        <path d="M299.562239,226.01517 C301.499301,244.076156 287.81011,254.400695 269.764846,256.34077 C251.718258,258.280845 235.954305,249.270892 234.017243,231.208581 C232.078857,213.147595 236.532908,193.752145 254.576848,191.813395 C272.623436,189.87332 297.623852,207.954184 299.562239,226.01517" id="Fill-47" fill="#FF9DB4"></path>
                        <path d="M439.394034,207.281386 C442.269837,225.216479 458.190026,231.574731 476.109506,228.695097 C494.030311,225.816789 506.87212,212.974393 503.994994,195.0393 C501.119191,177.104207 491.726491,159.562695 473.807011,162.442328 C455.88753,165.320636 436.516908,189.344968 439.394034,207.281386" id="Fill-49" fill="#FF9DB4"></path>
                        <path d="M456.587017,133.786465 L463.943352,188.781763 C464.183002,190.587994 464.388228,192.338567 464.531223,194.097092 C465.361393,204.654864 464.502095,214.947598 462.07514,224.746038 C460.819955,229.788377 459.208605,234.694223 457.209314,239.439721 C455.775384,242.911713 454.087241,246.325397 452.22962,249.609213 C451.588788,250.768752 450.912206,251.901788 450.203848,253.00832 C435.423653,276.938563 410.415292,294.237566 380.383545,298.260836 C350.353123,302.284107 321.708964,292.174248 301.161275,272.976251 C300.156333,272.098977 299.236129,271.179296 298.313277,270.230462 C295.628135,267.554908 293.132331,264.701778 290.806002,261.732032 C287.664069,257.708761 284.790914,253.403226 282.284517,248.864457 L282.281869,248.832653 C277.36573,240.018828 273.801429,230.319778 271.857747,219.910427 C271.50423,218.181057 271.240747,216.437109 270.998449,214.630878 L263.643438,159.63558 C261.678571,144.939246 263.096612,130.584811 267.301745,117.360761 C276.254865,89.0295688 297.983592,65.7619196 326.508588,55.2889596 C333.074474,52.8453131 339.980638,51.1225688 347.203245,50.1551817 C358.125204,48.6921742 368.872391,49.1228603 379.100556,51.1556985 C393.822494,54.0565349 407.531545,60.3750308 419.201584,69.2961957 C439.01973,84.4218905 453.022717,107.132961 456.587017,133.786465" id="Fill-51" fill="#FF9DB4"></path>
                        <path d="M457.860738,143.303434 L460.258565,161.235877 C457.193425,159.457475 453.642365,157.811592 449.600088,156.265097 C404.560412,139.027053 420.480601,119.179714 392.697065,102.661247 C371.864708,90.2959184 351.195208,117.414564 316.557146,89.3868395 C314.103711,87.3924317 311.543028,85.1078077 308.905552,82.4985127 C308.401095,81.9936162 307.821168,81.4317365 307.278314,80.8976858 L310.731395,70.2299231 C310.726099,70.1967934 310.751256,70.1265585 310.775088,70.0563235 L314.960361,57.0681569 C322.1737,54.3833262 329.760417,52.4922831 337.692706,51.4294824 C349.693753,49.8220294 361.500168,50.2937963 372.734599,52.5280631 C388.909002,55.71514 403.969893,62.6564743 416.787869,72.457564 C438.561614,89.0740951 453.944245,114.022083 457.860738,143.303434" id="Fill-53" fill="#F987A5"></path>
                        <g id="Group-59" transform="translate(271.427039, 184.201119)" fill="#F987A5">
                            <path d="M193.099021,9.89173258 C193.938459,20.4375779 193.067244,30.742239 190.648233,40.5499547 C189.407613,45.5909695 187.776403,50.4835632 185.790352,55.22111 C184.343182,58.7103297 182.649742,62.1319649 180.804038,65.4065042 C180.152613,66.568694 179.49854,67.6990793 178.77297,68.804286 C177.124547,69.2946055 175.39271,69.6616826 173.61056,69.8988912 C154.502096,72.4604794 136.9123,59.0111474 134.350294,39.8529059 C131.788287,20.6946644 145.22856,3.12399796 164.337023,0.563734934 C175.26163,-0.899272511 185.673836,2.84968407 193.099021,9.89173258" id="Fill-55"></path>
                            <path d="M64.9767202,49.1479064 C67.5387266,68.3061479 54.1037502,85.909944 34.9939627,88.470207 C33.2118124,88.710066 31.4455506,88.8121055 29.7269541,88.7723498 C28.7352524,87.8964006 27.8071043,86.9793706 26.8736601,86.0278857 C24.1977867,83.3589573 21.6993339,80.5005269 19.3849219,77.5148786 C16.228424,73.4995593 13.3685099,69.209926 10.8475485,64.6711574 L10.8435764,64.6380277 C5.93405708,55.8136015 2.38432103,46.0999742 0.422102146,35.7038751 C5.73677597,26.9563097 14.7971429,20.5993834 25.7217502,19.1350507 C44.8302137,16.5747877 62.4133897,29.9883397 64.9767202,49.1479064" id="Fill-57"></path>
                        </g>
                        <polyline id="Stroke-60" stroke="#F987A5" stroke-width="3.237" points="348.097762 56.7857593 385.603683 222.113552 355.354795 226.164651"></polyline>
                        <path d="M331.62095,192.795492 C332.436555,198.896657 328.974205,204.394862 323.885941,205.076008 C318.797677,205.75848 314.012617,201.364157 313.195688,195.264317 C312.380083,189.163152 315.843756,183.664947 320.93202,182.982476 C326.020284,182.301329 330.805344,186.694327 331.62095,192.795492" id="Fill-62" fill="#311746"></path>
                        <path d="M418.157715,181.201423 C418.974644,187.302588 415.510971,192.800793 410.422707,193.483265 C405.334443,194.164411 400.549383,189.771413 399.733777,183.670248 C398.918172,177.569083 402.380522,172.070879 407.468786,171.389732 C412.55705,170.708585 417.34211,175.100258 418.157715,181.201423" id="Fill-64" fill="#311746"></path>
                        <path d="M428.550855,135.526437 C426.02857,125.359595 396.241769,124.784464 391.031694,135.465478 C385.822943,146.146493 432.231671,150.356615 428.550855,135.526437" id="Fill-66" fill="#E73348"></path>
                        <path d="M291.166802,153.932237 C290.928476,143.459277 319.517025,135.062886 327.350012,143.997303 C335.181675,152.93172 291.513699,169.209003 291.166802,153.932237" id="Fill-68" fill="#E73348"></path>
                        <path d="M333.418194,60.6921482 C316.343447,102.49255 298.468983,85.1378895 285.813863,103.992663 C277.35196,116.599175 287.369604,129.151355 272.997211,151.638469 C260.545992,171.118731 268.190966,193.555487 268.190966,193.555487 L261.112679,186.180817 L253.102271,126.287624 L287.537756,50.6989063 L332.144473,51.1746487 L333.418194,60.6921482 Z" id="Fill-70" fill="#E73348"></path>
                        <g id="Group-74" transform="translate(320.416309, 0.000000)">
                            <mask id="mask-28" fill="white">
                                <use xlink:href="#path-27"></use>
                            </mask>
                            <g id="Clip-73"></g>
                            <path d="M295.281106,242.265552 L187.259765,256.737929 C187.259765,256.737929 200.337252,236.458578 170.157213,217.031324 C134.02564,193.795479 185.130718,150.130538 129.902597,129.049448 C88.8999021,113.359224 103.379542,95.279685 78.0878378,80.2414527 C59.1475266,68.9932578 40.3091661,93.6762077 8.77993648,68.1756169 C6.55423476,66.3561339 4.22790644,64.2795644 1.82743219,61.9114536 C1.3613721,61.4357112 0.856915021,60.9321398 0.35245794,60.4285684 L3.48909528,50.7268677 C3.48512318,50.693738 3.51027983,50.6235031 3.53808455,50.5863978 L7.49827124,38.252874 L9.13610172,33.1588517 C34.3510116,-4.3823964 75.8793485,-13.1392381 114.12408,28.9116245 C152.401913,70.9585115 195.884524,41.3935693 197.096016,94.6608223 C198.278379,147.96518 269.308848,111.11303 261.024366,164.475697 C252.713402,217.875468 295.087797,197.369511 295.281106,242.265552" id="Fill-72" fill="#E73348" mask="url(#mask-28)"></path>
                        </g>
                        <path d="M266.619205,224.691307 C264.867508,220.68924 259.197993,210.262661 248.371364,212.355133 C245.753748,212.950142 243.517454,214.288582 241.687639,215.909287 C243.922609,214.940575 246.342943,214.44893 248.559377,214.678187 C250.786403,214.890218 252.667855,215.853629 254.019694,217.257003 C255.25237,218.417868 256.011042,220.092905 256.679679,221.742764 C253.580115,223.372745 251.970089,227.018337 253.030641,230.491655 C254.232864,234.419512 258.38636,236.6286 262.310797,235.42798 C266.235235,234.224709 268.4424,230.067595 267.242825,226.139738 C267.085265,225.62424 266.869448,225.143196 266.619205,224.691307" id="Fill-75" fill="#EF7394"></path>
                        <path d="M268.786252,253.723789 C269.227156,257.018206 266.915392,260.04626 263.623842,260.487548 C260.330969,260.928836 257.30555,258.615057 256.865971,255.32064 C256.425068,252.026223 258.735508,248.998169 262.028381,248.556881 C265.31993,248.116919 268.345349,250.429372 268.786252,253.723789" id="Fill-77" fill="#FFFFFF"></path>
                        <path d="M484.389223,224.838801 C484.830126,228.133218 482.518362,231.161272 479.226813,231.60256 C475.933939,232.043847 472.908521,229.730069 472.468942,226.435652 C472.028038,223.141235 474.338478,220.113181 477.631352,219.671893 C480.922901,219.231931 483.948319,221.544384 484.389223,224.838801" id="Fill-79" fill="#FFFFFF"></path>
                        <path d="M356.193173,245.528032 C356.183905,245.820898 356.154776,246.107139 356.154776,246.401331 C356.154776,259.533943 365.465386,270.180502 376.950059,270.180502 C388.434733,270.180502 397.744019,259.533943 397.744019,246.401331 C397.744019,242.922712 397.075381,239.628295 395.900963,236.650598 C385.7721,247.297158 368.73575,251.822674 356.193173,245.528032" id="Fill-81" fill="#B2475F"></path>
                        <path d="M394.459619,259.192707 C393.914117,258.600348 393.336838,258.043769 392.686737,257.582604 C390.627864,256.124897 388.118819,255.560367 385.654791,255.422547 C380.084578,255.113778 374.342241,256.95844 370.162265,260.922077 C368.478093,262.521579 367.093153,264.482857 366.065703,266.633637 C369.232793,268.869229 372.953329,270.17984 376.949265,270.17984 C384.310896,270.17984 390.764239,265.792143 394.459619,259.192707" id="Fill-83" fill="#FF4B7C"></path>
                        <g id="Group-87" transform="translate(0.000000, 329.971788)">
                            <mask id="mask-30" fill="white">
                                <use xlink:href="#path-29"></use>
                            </mask>
                            <g id="Clip-86"></g>
                            <path d="M133.843321,62.2741576 L131.20452,53.6365828 C127.658756,42.0332375 121.438443,31.4251084 113.044065,22.6669415 L98.2651942,7.25103065 C94.7538552,3.58821128 88.7943766,3.96323946 85.7663101,8.03819226 C83.2122479,11.4797052 83.0043745,16.1297896 85.2380204,19.785983 L97.061647,39.131076 L28.5455182,1.62958356 C25.2354324,-0.293264083 20.9919024,1.12866254 19.5063358,4.65763792 L18.509338,7.02707389 C17.3362436,9.81261887 18.2882242,13.0421018 20.784029,14.7462934 L65.9667006,41.6250797 L9.79984013,17.9333703 C6.38383155,16.2371298 2.25549249,17.9148177 0.988391631,21.5153532 L0.362123391,23.297731 C-0.703724249,26.3244601 0.65208691,29.6705596 3.52391738,31.1004373 L51.9994624,54.8411786 L11.2456856,44.9088953 C7.33581223,43.827542 3.42991094,46.6422411 3.21409335,50.697316 L3.17172425,51.514957 C3.02210837,54.293876 4.69965987,56.8461879 7.30800751,57.8122499 L48.9091663,71.1502661 L25.9398187,69.2260933 C21.3771964,68.1778697 17.2885783,72.2620988 18.3266212,76.8300215 C18.8204861,79.0046548 20.4159474,80.7592036 22.5317543,81.4575777 L127.808372,113.723253 L134.302761,89.6048329 C136.717799,80.6333108 136.558915,71.1608676 133.843321,62.2741576" id="Fill-85" fill="#FF9DB4" mask="url(#mask-30)"></path>
                        </g>
                        <path d="M97.0613822,369.103129 C97.0613822,369.103129 91.6884509,385.854829 104.364756,403.852206" id="Stroke-88" stroke="#F987A5" stroke-width="2.591" stroke-linecap="round" stroke-linejoin="round"></path>
                    </g>
                </g>
                <g id="Group-6" transform="translate(33.000000, 40.000000)">
                    <g id="Group-3">
                        <mask id="mask-32" fill="white">
                            <use xlink:href="#path-31"></use>
                        </mask>
                        <g id="Clip-2"></g>
                        <path d="M153.971386,196.104297 L97.9891247,196.104297 C43.8708514,196.104297 -0.000501071926,152.206586 -0.000501071926,98.0557967 C-0.000501071926,43.9062612 43.8708514,0.00854972875 97.9891247,0.00854972875 L153.971386,0.00854972875 C208.089659,0.00854972875 251.961011,43.9062612 251.961011,98.0557967 C251.961011,152.206586 208.089659,196.104297 153.971386,196.104297" id="Fill-1" fill="#6B3F9E" mask="url(#mask-32)"></path>
                    </g>
                    <polygon id="Fill-4" fill="#6B3F9E" points="233 222 148 178.106184 217.67003 153"></polygon>
                </g>
                <path d="M422.04,30.02 C422.04,35.554 417.554,40.041 412.019,40.041 C406.486,40.041 402,35.554 402,30.02 C402,24.487 406.486,20 412.019,20 C417.554,20 422.04,24.487 422.04,30.02 Z" id="Stroke-1" stroke-opacity="0.5" stroke="#6B3F9E" stroke-width="5.284"></path>
                <path d="M78.04,338.02 C78.04,343.554 73.554,348.041 68.019,348.041 C62.486,348.041 58,343.554 58,338.02 C58,332.487 62.486,328 68.019,328 C73.554,328 78.04,332.487 78.04,338.02 Z" id="Stroke-1-Copy" stroke-opacity="0.5" stroke="#6B3F9E" stroke-width="5.284"></path>
                <g id="Group-21" transform="translate(375.500000, 336.000000) rotate(-10.000000) translate(-375.500000, -336.000000) translate(302.000000, 329.000000)">
                    <g id="Group-3">
                        <mask id="mask-34" fill="white">
                            <use xlink:href="#path-33"></use>
                        </mask>
                        <g id="Clip-2"></g>
                        <path d="M4.540625,2.83992 C4.540625,4.24552 3.525625,5.38232 2.270625,5.38232 C1.016875,5.38232 -0.000625,4.24552 -0.000625,2.83992 C-0.000625,1.43572 1.016875,0.29752 2.270625,0.29752 C3.525625,0.29752 4.540625,1.43572 4.540625,2.83992" id="Fill-1" fill="#E73348" mask="url(#mask-34)"></path>
                    </g>
                    <g id="Group-6" transform="translate(12.000000, 0.000000)">
                        <mask id="mask-36" fill="white">
                            <use xlink:href="#path-35"></use>
                        </mask>
                        <g id="Clip-5"></g>
                        <path d="M4.688375,2.83992 C4.688375,4.24552 3.673375,5.38232 2.418375,5.38232 C1.164625,5.38232 0.147125,4.24552 0.147125,2.83992 C0.147125,1.43572 1.164625,0.29752 2.418375,0.29752 C3.673375,0.29752 4.688375,1.43572 4.688375,2.83992" id="Fill-4" fill="#E73348" mask="url(#mask-36)"></path>
                    </g>
                    <path d="M12,11.5 C12,12.8821586 10.88109,14 9.50068814,14 C8.11890999,14 7,12.8821586 7,11.5 C7,10.1192181 8.11890999,9 9.50068814,9 C10.88109,9 12,10.1192181 12,11.5" id="Fill-7" fill="#E73348"></path>
                    <path d="M27,11.5 C27,12.8821586 25.88109,14 24.5006881,14 C23.1202863,14 22,12.8821586 22,11.5 C22,10.1192181 23.1202863,9 24.5006881,9 C25.88109,9 27,10.1192181 27,11.5" id="Fill-9" fill="#E73348"></path>
                    <g id="Group-13" transform="translate(142.000000, 0.000000)">
                        <mask id="mask-38" fill="white">
                            <use xlink:href="#path-37"></use>
                        </mask>
                        <g id="Clip-12"></g>
                        <path d="M0.375625,2.83992 C0.375625,4.24552 1.391875,5.38232 2.645625,5.38232 C3.900625,5.38232 4.918125,4.24552 4.918125,2.83992 C4.918125,1.43572 3.900625,0.29752 2.645625,0.29752 C1.391875,0.29752 0.375625,1.43572 0.375625,2.83992" id="Fill-11" fill="#E73348" mask="url(#mask-38)"></path>
                    </g>
                    <g id="Group-16" transform="translate(130.000000, 0.000000)">
                        <mask id="mask-40" fill="white">
                            <use xlink:href="#path-39"></use>
                        </mask>
                        <g id="Clip-15"></g>
                        <path d="M0.227875,2.83992 C0.227875,4.24552 1.244125,5.38232 2.499125,5.38232 C3.752875,5.38232 4.770375,4.24552 4.770375,2.83992 C4.770375,1.43572 3.752875,0.29752 2.499125,0.29752 C1.244125,0.29752 0.227875,1.43572 0.227875,2.83992" id="Fill-14" fill="#E73348" mask="url(#mask-40)"></path>
                    </g>
                    <path d="M135,11.5 C135,12.8821586 136.11891,14 137.499312,14 C138.879714,14 140,12.8821586 140,11.5 C140,10.1192181 138.879714,9 137.499312,9 C136.11891,9 135,10.1192181 135,11.5" id="Fill-17" fill="#E73348"></path>
                    <path d="M120,11.5 C120,12.8821586 121.11891,14 122.499312,14 C123.879714,14 125,12.8821586 125,11.5 C125,10.1192181 123.879714,9 122.499312,9 C121.11891,9 120,10.1192181 120,11.5" id="Fill-19" fill="#E73348"></path>
                </g>
                <path d="M551,646.999501 C551,652.52218 546.522954,657 540.999002,657 C535.477046,657 531,652.52218 531,646.999501 C531,641.47782 535.477046,637 540.999002,637 C546.522954,637 551,641.47782 551,646.999501 Z" id="Stroke-1-Copy" stroke="#FF9DB4" stroke-width="5.284"></path>
            </g>
        </g>
    </g>
</svg>