<?xml version="1.0" encoding="UTF-8"?>
<svg width="1001px" height="391px" viewBox="0 0 1001 391" version="1.1" xmlns="http://www.w3.org/2000/svg" xmlns:xlink="http://www.w3.org/1999/xlink">
    <title>728C04BB-0E50-4F2E-926A-AF90FF9CCEFD</title>
    <defs>
        <rect id="path-1" x="0" y="0.568359375" width="1000" height="389"></rect>
        <polygon id="path-3" points="0.53122292 0.880465325 205.531223 0.880465325 205.531223 367.880465 0.53122292 367.880465"></polygon>
        <polygon id="path-5" points="0.825779163 0.188091233 528.825779 0.188091233 528.825779 721.188091 0.825779163 721.188091"></polygon>
        <polygon id="path-7" points="0.53122292 0.880465325 205.531223 0.880465325 205.531223 367.880465 0.53122292 367.880465"></polygon>
        <polygon id="path-9" points="0.000108978609 0.452390295 279.70323 0.452390295 279.70323 250.875556 0.000108978609 250.875556"></polygon>
        <polygon id="path-11" points="0.0991227586 0.213849462 51.890023 0.213849462 51.890023 54.7808535 0.0991227586 54.7808535"></polygon>
        <polygon id="path-13" points="1.13686838e-13 0.3905 5.4495 0.3905 5.4495 5.8382 1.13686838e-13 5.8382"></polygon>
        <polygon id="path-15" points="0.1773 0.3905 5.6268 0.3905 5.6268 5.8382 0.1773 5.8382"></polygon>
        <polygon id="path-17" points="0.4515 0.3905 5.901 0.3905 5.901 5.8382 0.4515 5.8382"></polygon>
        <polygon id="path-19" points="0.2742 0.3905 5.7237 0.3905 5.7237 5.8382 0.2742 5.8382"></polygon>
        <polygon id="path-21" points="0.22825 0.238879676 252.59 0.238879676 252.59 256.857 0.22825 256.857"></polygon>
    </defs>
    <g id="Page-1" stroke="none" stroke-width="1" fill="none" fill-rule="evenodd">
        <g id="Zagluska" transform="translate(-99.000000, -332.000000)">
            <g id="Illustration" transform="translate(99.601563, 332.431641)">
                <mask id="mask-2" fill="white">
                    <use xlink:href="#path-1"></use>
                </mask>
                <g id="Mask"></g>
                <g id="Group" mask="url(#mask-2)">
                    <g transform="translate(-14.000000, -18.000000)">
                        <g id="Group-3" stroke="none" stroke-width="1" fill-rule="evenodd" transform="translate(916.398437, 337.568359) rotate(-315.000000) translate(-916.398437, -337.568359) translate(813.398437, 153.568359)">
                            <mask id="mask-4" fill="white">
                                <use xlink:href="#path-3"></use>
                            </mask>
                            <g id="Clip-2"></g>
                            <path d="M171.258968,331.223932 C187.504562,302.938031 210.983114,276.093278 204.393085,241.134825 C200.750462,221.806835 182.250742,211.09482 168.706615,198.91268 C145.528226,178.064337 137.942818,150.518328 144.496053,120.329572 C147.114248,108.253683 147.050342,94.3869846 138.963372,85.0291849 C126.931679,71.1025998 103.393094,73.5946646 89.9845248,60.9797942 C82.7825505,54.2067872 79.7112058,44.2945514 75.3598113,35.4255055 C64.8366793,13.9744303 41.8596898,0.880465325 41.8596898,0.880465325 C41.8596898,0.880465325 40.080014,21.2709641 25.9471805,39.4688322 C16.8783865,51.1467635 8.81852717,64.501526 5.41216185,79.1293665 C2.75136256,90.5600232 4.88155122,100.704079 10.1586095,110.933135 C16.3710142,122.974251 20.7766317,132.774441 19.9361754,146.42091 C18.6406334,167.481755 -14.5031656,208.260821 8.83014638,223.031617 C15.1781086,227.04983 23.325112,228.17802 28.4433743,234.017952 C37.7193777,244.59667 25.9316883,257.118812 24.9266265,268.336967 C23.3812715,285.588237 27.186563,306.548627 38.2693537,318.427469 C64.708868,346.763597 110.070267,363.23827 149.124372,367.880465" id="Fill-1" fill="#D0B4F9" mask="url(#mask-4)"></path>
                        </g>
                        <g id="Group-3" stroke="none" stroke-width="1" fill-rule="evenodd" transform="translate(458.898437, 492.568359) rotate(-270.000000) translate(-458.898437, -492.568359) translate(194.398437, 131.568359)">
                            <mask id="mask-6" fill="white">
                                <use xlink:href="#path-5"></use>
                            </mask>
                            <g id="Clip-2"></g>
                            <path d="M98.8030624,690.423363 C-22.511267,623.731623 -16.7419606,497.840249 38.4983541,426.609592 C93.7386688,355.377488 120.058782,278.406689 93.1103141,158.694893 C66.1589572,38.9845433 184.325736,-64.9321067 346.142214,50.1121201 C507.957248,165.156347 548.73674,361.690054 520.616788,476.367119 C458.905143,728.022661 220.115947,757.115102 98.8030624,690.423363" id="Fill-1" fill="#FFEBEF" mask="url(#mask-6)"></path>
                        </g>
                        <g id="Group-3-Copy" stroke="none" stroke-width="1" fill-rule="evenodd" transform="translate(165.000000, 270.396484) rotate(-382.000000) translate(-165.000000, -270.396484) translate(62.000000, 86.396484)">
                            <mask id="mask-8" fill="white">
                                <use xlink:href="#path-7"></use>
                            </mask>
                            <g id="Clip-2"></g>
                            <path d="M171.258968,331.223932 C187.504562,302.938031 210.983114,276.093278 204.393085,241.134825 C200.750462,221.806835 182.250742,211.09482 168.706615,198.91268 C145.528226,178.064337 137.942818,150.518328 144.496053,120.329572 C147.114248,108.253683 147.050342,94.3869846 138.963372,85.0291849 C126.931679,71.1025998 103.393094,73.5946646 89.9845248,60.9797942 C82.7825505,54.2067872 79.7112058,44.2945514 75.3598113,35.4255055 C64.8366793,13.9744303 41.8596898,0.880465325 41.8596898,0.880465325 C41.8596898,0.880465325 40.080014,21.2709641 25.9471805,39.4688322 C16.8783865,51.1467635 8.81852717,64.501526 5.41216185,79.1293665 C2.75136256,90.5600232 4.88155122,100.704079 10.1586095,110.933135 C16.3710142,122.974251 20.7766317,132.774441 19.9361754,146.42091 C18.6406334,167.481755 -14.5031656,208.260821 8.83014638,223.031617 C15.1781086,227.04983 23.325112,228.17802 28.4433743,234.017952 C37.7193777,244.59667 25.9316883,257.118812 24.9266265,268.336967 C23.3812715,285.588237 27.186563,306.548627 38.2693537,318.427469 C64.708868,346.763597 110.070267,363.23827 149.124372,367.880465" id="Fill-1" fill="#D0B4F9" mask="url(#mask-8)"></path>
                        </g>
                        <g id="Group-14" stroke="none" stroke-width="1" fill-rule="evenodd" transform="translate(476.898437, 357.568359) rotate(-330.000000) translate(-476.898437, -357.568359) translate(336.398437, 231.568359)">
                            <g id="Group-3" transform="translate(0.861216, 0.017949)">
                                <mask id="mask-10" fill="white">
                                    <use xlink:href="#path-9"></use>
                                </mask>
                                <g id="Clip-2"></g>
                                <path d="M229.488898,250.875556 L111.286973,152.163122 C90.5175615,156.571918 69.7256898,163.500025 40.9306096,151.370227 C12.0576684,160.298524 -10.0862888,139.919627 4.73873797,125.741767 C1.52996791,117.917539 1.46857754,110.842821 7.01167914,105.104057 C2.77574332,99.4909586 2.01809626,92.0826265 6.85296257,86.6251153 C7.54173262,63.7957238 27.1761711,50.3583977 62.8649412,60.2755692 C57.2035508,35.7362173 53.1577754,12.2455812 68.634139,1.42032059 C71.7336043,-0.747424386 76.0444064,0.904190836 76.8424813,4.59788466 C79.5376684,17.0867288 82.2388449,29.4902992 85.0463316,40.270679 C89.363123,56.8421843 98.9505027,71.5047575 112.261733,82.2911214 C118.767615,87.5631251 124.286759,92.5613556 128.143872,97.0958173 L279.70323,163.535929" id="Fill-1" fill="#FF9DB4" mask="url(#mask-10)"></path>
                            </g>
                            <path d="M45.9526101,101.923739 C41.175786,101.923739 36.4138198,100.905686 32.0470745,98.9057775 L6.80642497,87.3467281 L7.49880445,85.7887299 L32.7379682,97.3477793 C39.1833377,100.294854 46.527612,100.997688 53.4202052,99.322048 C60.0468415,97.7127701 62.5786325,94.6842509 63.3601596,93.4565544 C64.47599,91.7009786 64.4447884,87.5216824 62.733155,84.5565087 C61.7971055,82.9366732 59.9755234,81.0317829 56.6220889,81.2685745 L45.6391078,82.2247903 L31.9296969,70.2193058 L33.0306694,68.9237391 L46.2022233,80.460165 L56.4972822,79.5627701 C59.8001998,79.348602 62.5236582,80.8161065 64.1862604,83.6922948 C66.2901432,87.3316458 66.1891092,92.1594795 64.7761202,94.3826056 C63.8846445,95.7852564 61.0319221,99.2345709 53.8139403,100.985622 C51.2331181,101.613044 48.5884067,101.923739 45.9526101,101.923739" id="Fill-4" fill="#F987A5"></path>
                            <path d="M43.8778888,119.67726 C31.0808059,119.67726 8.55930227,106.8295 7.53014552,106.235756 L8.38901015,104.842247 C8.65555434,104.993902 35.2788769,120.196607 46.5033491,117.807324 C58.0980215,115.347937 64.0241874,108.238748 64.7631072,106.064071 C65.3332156,104.38442 63.17865,100.614504 61.6860025,98.6329729 L63.0424163,97.6772598 C63.491099,98.2710037 67.3826443,103.55604 66.3594107,106.571973 C65.2517715,109.833987 58.3941817,116.946038 46.8646645,119.39398 C45.9480487,119.588556 44.9470271,119.67726 43.8778888,119.67726" id="Fill-6" fill="#F987A5"></path>
                            <path d="M38.4507457,135.984628 C22.2030499,135.984628 5.68253274,127.147987 4.91892959,126.734232 L5.72108358,125.260966 C5.92421685,125.370315 26.0492374,136.13092 43.1569135,134.03111 C60.660477,131.884013 65.279164,129.488663 66.8256457,126.556908 C67.540319,125.20038 67.4913891,122.002639 65.5401235,119.520105 C64.0648126,117.649337 61.0904671,115.72094 55.2974622,117.154308 L54.8926784,115.527361 C61.914862,113.785154 65.4037129,116.634158 66.8612311,118.485715 C69.1253516,121.362795 69.3774147,125.320074 68.3143012,127.335655 C66.4223447,130.922031 61.7324869,133.44003 43.3630122,135.694999 C41.7394288,135.893011 40.0950872,135.984628 38.4507457,135.984628" id="Fill-8" fill="#F987A5"></path>
                            <path d="M42.1540449,152.787187 L41.5839931,151.261945 C48.5403183,148.552803 56.9612816,142.064401 56.9838579,138.071981 C56.9852689,137.63414 56.992324,136.307654 54.504697,135.303788 L55.091681,133.787187 C57.9899147,134.952363 58.5895979,136.765659 58.5839931,138.080622 C58.5543224,143.239658 48.9960776,150.122693 42.1540449,152.787187" id="Fill-10" fill="#F987A5"></path>
                            <path d="M74.7399364,128.94873 C65.3658187,125.776767 64.1559364,107.818644 63.3568775,95.9341768 L63.2298187,94.0719849 L64.8265246,93.9487298 L64.9535834,95.8153767 C65.676407,106.551937 66.8877011,124.523425 75.2298187,127.344928 L74.7399364,128.94873 Z" id="Fill-12" fill="#F987A5"></path>
                        </g>
                        <g id="Group-6" stroke="none" stroke-width="1" fill-rule="evenodd" transform="translate(318.689145, 137.993042) rotate(-30.000000) translate(-318.689145, -137.993042) translate(290.689145, 109.993042)">
                            <g id="Group-3" transform="translate(3.076606, 0.053848)">
                                <mask id="mask-12" fill="white">
                                    <use xlink:href="#path-11"></use>
                                </mask>
                                <g id="Clip-2"></g>
                                <path d="M46.8914722,39.6876688 L47.464309,39.6876688 C49.9091457,39.6876688 51.8901664,37.7270667 51.8901664,35.308486 C51.8901664,32.8903785 49.9091457,30.9297763 47.464309,30.9297763 L46.3855779,30.9297763 C48.8299366,30.9297763 50.8114354,28.9691742 50.8114354,26.5505935 C50.8114354,24.1320129 48.6644929,22.1718839 46.2201343,22.1718839 L42.9098262,22.1718839 L37.5209526,22.1718839 C34.8829389,20.9961849 34.0284653,18.9314968 33.9285297,16.6676258 C33.8520239,14.9312817 34.2192515,13.0776043 34.5640055,11.4197978 C35.0129986,9.25764731 35.2472975,6.99661505 34.5439228,4.88650753 C33.840548,2.7764 32.0316653,0.836141935 29.5863503,0.324701075 C28.8203366,0.164313978 27.9830768,0.15295914 27.2763549,0.455754839 C26.1340285,0.944486022 25.5932285,2.13910968 25.5640607,3.2499914 C25.535371,4.36134624 25.9102492,5.44620645 26.1125113,6.54336774 C26.4013205,8.11317419 26.3310308,9.75300215 25.716594,11.2499484 C24.5245389,14.1506366 21.5188193,16.128271 18.7311411,18.0169591 C17.1670768,19.0772172 15.6733021,20.2448731 14.267509,21.4972172 C13.6980193,22.0044 13.5124929,22.4051312 13.2270308,23.1332602 C13.1376147,23.3608301 12.8593251,24.4655613 12.5150492,24.4655613 L0.0991227586,24.4655613 L0.0991227586,51.600314 L6.03740322,51.600314 C8.44781241,51.600314 11.783463,50.8948946 13.572263,52.812443 C13.9772653,53.2462925 14.3110216,53.756314 14.7982676,54.0979054 C16.3527687,55.1879699 19.2853297,54.6471957 21.0616975,54.6434108 C28.3445664,54.6296903 35.6269572,54.6277978 42.9098262,54.6277978 L45.4718124,54.6277978 C47.1974952,54.6277978 48.5961159,53.2439269 48.5961159,51.5369161 C48.5961159,49.8299054 47.1974952,48.4460344 45.4718124,48.4460344 L46.7169434,48.4460344 L46.8914722,48.4460344 C49.3358308,48.4460344 51.3173297,46.4854323 51.3173297,44.0668516 C51.3173297,41.6487441 49.3358308,39.6876688 46.8914722,39.6876688" id="Fill-1" fill="#D0B4F9" mask="url(#mask-12)"></path>
                            </g>
                            <path d="M10.4033447,55.9233938 L1.13467368,55.9233938 C0.656671353,55.9233938 0.269237886,55.5236714 0.269237886,55.0300354 L0.269237886,22.8167521 C0.269237886,22.3235881 0.656671353,21.9233938 1.13467368,21.9233938 L10.4033447,21.9233938 C10.8818044,21.9233938 11.2692379,22.3235881 11.2692379,22.8167521 L11.2692379,55.0300354 C11.2692379,55.5236714 10.8818044,55.9233938 10.4033447,55.9233938" id="Fill-4" fill="#6B3F9E"></path>
                        </g>
                        <g id="Group-21" stroke="none" stroke-width="1" fill-rule="evenodd" transform="translate(751.898437, 226.568359) rotate(9.000000) translate(-751.898437, -226.568359) translate(669.398437, 218.568359)">
                            <g id="Group-3" transform="translate(-0.000000, 0.110100)">
                                <mask id="mask-14" fill="white">
                                    <use xlink:href="#path-13"></use>
                                </mask>
                                <g id="Clip-2"></g>
                                <path d="M5.4495,3.1142 C5.4495,4.6202 4.23,5.8382 2.7255,5.8382 C1.221,5.8382 1.13686838e-13,4.6202 1.13686838e-13,3.1142 C1.13686838e-13,1.6097 1.221,0.3902 2.7255,0.3902 C4.23,0.3902 5.4495,1.6097 5.4495,3.1142" id="Fill-1" fill="#E73348" mask="url(#mask-14)"></path>
                            </g>
                            <g id="Group-6" transform="translate(13.500000, 0.110100)">
                                <mask id="mask-16" fill="white">
                                    <use xlink:href="#path-15"></use>
                                </mask>
                                <g id="Clip-5"></g>
                                <path d="M5.6268,3.1142 C5.6268,4.6202 4.4073,5.8382 2.9028,5.8382 C1.3983,5.8382 0.1773,4.6202 0.1773,3.1142 C0.1773,1.6097 1.3983,0.3902 2.9028,0.3902 C4.4073,0.3902 5.6268,1.6097 5.6268,3.1142" id="Fill-4" fill="#E73348" mask="url(#mask-16)"></path>
                            </g>
                            <path d="M12.9846,12.8849 C12.9846,14.3909 11.7666,15.6089 10.2606,15.6089 C8.7561,15.6089 7.5351,14.3909 7.5351,12.8849 C7.5351,11.3804 8.7561,10.1609 10.2606,10.1609 C11.7666,10.1609 12.9846,11.3804 12.9846,12.8849" id="Fill-7" fill="#E73348"></path>
                            <path d="M30.20385,12.8849 C30.20385,14.3909 28.98585,15.6089 27.47985,15.6089 C25.97535,15.6089 24.75435,14.3909 24.75435,12.8849 C24.75435,11.3804 25.97535,10.1609 27.47985,10.1609 C28.98585,10.1609 30.20385,11.3804 30.20385,12.8849" id="Fill-9" fill="#E73348"></path>
                            <g id="Group-13" transform="translate(159.000000, 0.110100)">
                                <mask id="mask-18" fill="white">
                                    <use xlink:href="#path-17"></use>
                                </mask>
                                <g id="Clip-12"></g>
                                <path d="M0.4515,3.1142 C0.4515,4.6202 1.671,5.8382 3.1755,5.8382 C4.68,5.8382 5.901,4.6202 5.901,3.1142 C5.901,1.6097 4.68,0.3902 3.1755,0.3902 C1.671,0.3902 0.4515,1.6097 0.4515,3.1142" id="Fill-11" fill="#E73348" mask="url(#mask-18)"></path>
                            </g>
                            <g id="Group-16" transform="translate(145.500000, 0.110100)">
                                <mask id="mask-20" fill="white">
                                    <use xlink:href="#path-19"></use>
                                </mask>
                                <g id="Clip-15"></g>
                                <path d="M0.2742,3.1142 C0.2742,4.6202 1.4937,5.8382 2.9982,5.8382 C4.5027,5.8382 5.7237,4.6202 5.7237,3.1142 C5.7237,1.6097 4.5027,0.3902 2.9982,0.3902 C1.4937,0.3902 0.2742,1.6097 0.2742,3.1142" id="Fill-14" fill="#E73348" mask="url(#mask-20)"></path>
                            </g>
                            <path d="M151.9164,12.8849 C151.9164,14.3909 153.1344,15.6089 154.6404,15.6089 C156.1449,15.6089 157.3659,14.3909 157.3659,12.8849 C157.3659,11.3804 156.1449,10.1609 154.6404,10.1609 C153.1344,10.1609 151.9164,11.3804 151.9164,12.8849" id="Fill-17" fill="#E73348"></path>
                            <path d="M134.69565,12.8849 C134.69565,14.3909 135.91515,15.6089 137.42115,15.6089 C138.92565,15.6089 140.14665,14.3909 140.14665,12.8849 C140.14665,11.3804 138.92565,10.1609 137.42115,10.1609 C135.91515,10.1609 134.69565,11.3804 134.69565,12.8849" id="Fill-19" fill="#E73348"></path>
                        </g>
                        <path d="M194.398437,207.56786 C194.398437,213.090539 189.921392,217.568359 184.397439,217.568359 C178.875483,217.568359 174.398437,213.090539 174.398437,207.56786 C174.398437,202.04618 178.875483,197.568359 184.397439,197.568359 C189.921392,197.568359 194.398437,202.04618 194.398437,207.56786 Z" id="Stroke-1-Copy-3" stroke="#E73348" stroke-width="5.284"></path>
                        <g id="Group-69" stroke="none" stroke-width="1" fill-rule="evenodd" transform="translate(766.294922, 273.500000) rotate(6.000000) translate(-766.294922, -273.500000) translate(548.794922, 22.000000)">
                            <path d="M370.143125,445.1665 L42.860625,442.9715 C61.280625,384.509 87.734375,354.849 119.736875,335.57275 C120.428125,335.14775 121.146875,334.75025 121.836875,334.32525 C122.930625,333.674 124.024375,333.079 125.118125,332.4565 C126.154375,331.89025 127.189375,331.324 128.224375,330.75775 C128.943125,330.39025 129.663125,329.99275 130.381875,329.62525 C134.955625,327.24775 139.641875,325.044 144.413125,322.984 L205.584375,296.68025 L266.395625,323.8015 C270.481875,325.634 274.510625,327.58275 278.451875,329.64275 C279.708125,330.31025 280.965625,330.97775 282.194375,331.6465 C282.479375,331.7915 282.735625,331.9365 283.021875,332.11025 C284.164375,332.72025 285.276875,333.35775 286.390625,334.02525 C289.189375,335.619 291.958125,337.329 294.698125,339.06775 C296.181875,340.024 297.666875,341.00775 299.149375,342.02025 C300.546875,342.9765 301.945625,343.9315 303.343125,344.944 C303.456875,345.0015 303.543125,345.08775 303.658125,345.1465 C305.055625,346.159 306.423125,347.1715 307.793125,348.21275 C309.190625,349.22525 310.530625,350.29525 311.899375,351.364 C315.006875,353.8215 318.056875,356.364 320.991875,358.99275 C322.016875,359.9165 323.070625,360.869 324.068125,361.794 C325.435625,363.03525 326.774375,364.30525 328.084375,365.604 C329.280625,366.7865 330.504375,367.97025 331.671875,369.1815 L335.343125,372.99025 L335.343125,373.01775 C336.538125,374.28775 337.704375,375.58525 338.900625,376.9115 C339.610625,377.719 340.293125,378.52525 340.975625,379.33275 C341.345625,379.7665 341.686875,380.19775 342.055625,380.63025 C353.115625,394.17525 362.571875,411.55025 370.143125,445.1665" id="Fill-1" fill="#FF9DB4"></path>
                            <polygon id="Fill-3" fill="#FF9DB4" points="247.241625 231.762 246.311625 370.6445 163.886625 370.092 164.817875 231.2095"></polygon>
                            <path d="M247.241625,231.762 L246.907875,281.5245 C231.394125,293.2095 212.077875,300.0595 191.174125,299.91825 C181.836625,299.85575 172.855375,298.412 164.385375,295.77825 L164.817875,231.2095 L247.241625,231.762 Z" id="Fill-5" fill="#F987A5"></path>
                            <path d="M379.246,502.55175 L29.17725,500.2055 C33.04975,478.533 37.64725,459.58925 42.861,442.97175 C61.281,384.508 87.73475,354.84925 119.73725,335.573 C120.21225,335.2805 120.70225,335.0005 121.186,334.7155 C122.14725,334.1505 123.09475,333.56175 124.07225,333.02675 C126.1585,331.888 128.2435,330.74675 130.3285,329.60675 C130.351,329.613 130.361,329.61675 130.38225,329.6255 C157.76725,394.5655 249.5335,395.293 277.94475,330.7955 L278.45225,329.643 C279.7085,330.3105 280.966,330.978 282.1935,331.6455 C282.47975,331.79175 282.736,331.93675 283.02225,332.10925 C284.16475,332.7205 285.27725,333.358 286.391,334.0255 C289.18975,335.61925 291.9585,337.32925 294.69725,339.068 C296.18225,340.02425 297.666,341.008 299.14975,342.0205 C300.54725,342.97675 301.946,343.93175 303.34225,344.94425 C303.45725,345.00175 303.5435,345.088 303.65725,345.14675 C305.05475,346.15925 306.4235,347.1705 307.7935,348.21175 C309.16725,349.208 310.48475,350.258 311.82975,351.3105 C315.056,353.833 318.18975,356.46675 321.23225,359.20925 C322.18225,360.0655 323.1485,360.94175 324.06725,361.79425 C325.436,363.0355 326.7735,364.30425 328.0835,365.603 C329.27975,366.78675 330.50475,367.9705 331.671,369.18175 L335.3435,372.9905 L335.3435,373.018 C336.5385,374.288 337.70475,375.5855 338.901,376.91175 C339.611,377.71925 340.2935,378.5255 340.976,379.333 C341.346,379.7655 341.68725,380.198 342.056,380.6305 C353.116,394.1755 362.57225,411.5505 370.1435,445.16675 C373.59475,460.523 376.621,479.2605 379.246,502.55175" id="Fill-7" fill="#6B3F9E"></path>
                            <path d="M124.709875,341.539875 C125.151125,342.584875 125.606125,343.612375 126.077375,344.626125" id="Stroke-9" stroke="#FFFFFF" stroke-width="1.34875"></path>
                            <path d="M129.145875,350.641375 C162.123375,409.723875 249.580875,409.026375 280.959625,347.675125" id="Stroke-11" stroke="#FFFFFF" stroke-width="1.34875" stroke-dasharray="6.752499938011169,6.752499938011169"></path>
                            <path d="M282.44425,344.638 C282.728,344.0305 283.0055,343.4155 283.27925,342.79675 L283.82425,341.55925" id="Stroke-13" stroke="#FFFFFF" stroke-width="1.34875"></path>
                            <line x1="281.991375" y1="501.9" x2="302.927625" y2="334.7075" id="Stroke-15" stroke="#E73348" stroke-width="13.86375"></line>
                            <line x1="126.001375" y1="500.85375" x2="98.886375" y2="337.57125" id="Stroke-17" stroke="#E73348" stroke-width="13.86375"></line>
                            <path d="M2.292875,253.98 C2.292875,253.98 19.104125,236.33125 5.199125,209.5475 C-16.959625,166.865 55.586625,168.32625 45.435375,121.07125 C35.284125,73.8475 75.541625,94.425 93.002875,50.05875 C110.496625,5.6925 151.685375,4.9625 180.452875,23.10625" id="Stroke-19" stroke="#E73348" stroke-width="6.9325"></path>
                            <path d="M357.986125,256.36525 L14.867375,254.064 C14.867375,254.064 31.677375,236.41525 17.773625,209.6315 C-4.385125,166.95025 68.161125,168.41025 58.009875,121.15525 C47.856125,73.9315 88.116125,94.51025 105.577375,50.14275 C123.071125,5.7765 164.259875,5.0465 193.027375,23.19025 L299.043625,63.89025 L357.986125,256.36525 Z" id="Fill-21" fill="#E73348"></path>
                            <polygon id="Fill-23" fill="#CE253D" points="357.986125 256.36525 246.923625 255.62025 239.416125 90.839 307.441125 91.29525"></polygon>
                            <path d="M139.64275,200.109125 C139.0815,217.234125 124.9265,225.077875 107.80025,224.515375 C90.67525,223.954125 77.1215,213.465375 77.684,196.339125 C78.2465,179.215375 84.95775,161.684125 102.0815,162.245375 C119.20775,162.807875 140.204,182.984125 139.64275,200.109125" id="Fill-25" fill="#FF9DB4"></path>
                            <path d="M272.83,201.0015 C273.1625,218.13275 287.21125,226.1665 304.3425,225.83275 C321.4725,225.5015 335.16625,215.194 334.83375,198.064 C334.50125,180.93275 328.025,163.314 310.89375,163.64525 C293.76375,163.97775 272.4975,183.87025 272.83,201.0015" id="Fill-27" fill="#FF9DB4"></path>
                            <path d="M298.562375,134.61475 L298.211125,186.94975 C298.199875,188.66975 298.159875,190.33225 298.063625,191.9935 C297.451125,201.96475 295.296125,211.46475 291.739875,220.2985 C289.902375,224.84475 287.753625,229.21475 285.259875,233.38225 C283.462375,236.43725 281.436125,239.40475 279.267375,242.2285 C278.516125,243.226 277.734875,244.19475 276.926125,245.136 C259.964875,265.5435 234.312375,278.4135 205.707375,278.224352 C177.103625,278.02975 151.654875,264.8185 134.967375,244.1835 C134.142375,243.2335 133.403625,242.25225 132.664875,241.246 C130.506125,238.39225 128.548625,235.39975 126.763625,232.31975 C124.354875,228.14725 122.234875,223.7485 120.488625,219.1785 L120.488625,219.151 C117.051125,210.26975 114.994875,200.741 114.544875,190.7635 C114.441125,189.101 114.423625,187.4385 114.434875,185.7185 L114.786125,133.3835 C114.881125,119.396 118.093625,106.176 123.761125,94.37725 C135.854875,69.091 159.226125,50.21475 187.269875,44.1835 C193.728625,42.766 200.411125,42.06475 207.289875,42.1088529 C217.694875,42.181 227.684875,43.996 236.978625,47.241 C250.361125,51.886 262.347375,59.591 272.084875,69.45975 C288.626125,86.19475 298.732375,109.24975 298.562375,134.61475" id="Fill-29" fill="#FF9DB4"></path>
                            <path d="M298.501375,143.67125 L298.386375,160.7375 C295.756375,158.6725 292.651375,156.6675 289.076375,154.69125 C249.233875,132.6675 266.725125,116.2225 242.922625,97.1375 C225.071375,82.85 202.185125,105.46125 173.485125,74.72625 C171.452625,72.54 169.360125,70.07 167.237625,67.285 C166.831375,66.7475 166.363875,66.145 165.926375,65.575 L170.556375,56.065 C170.556375,56.035 170.588875,55.97125 170.620125,55.90875 L176.238875,44.32625 C183.335125,42.76875 190.676375,42 198.232625,42.05 C209.662625,42.1275 220.638875,44.12125 230.848875,47.685 C245.550125,52.79 258.718875,61.25375 269.413875,72.09375 C287.586375,90.47875 298.687625,115.80625 298.501375,143.67125" id="Fill-31" fill="#F987A5"></path>
                            <g id="Group-37" transform="translate(113.750000, 177.761250)" fill="#F987A5">
                                <path d="M184.3095,14.22775 C183.70825,24.189 181.53825,33.699 177.9895,42.5415 C176.167,47.08775 173.9995,51.4415 171.52075,55.60775 C169.707,58.6765 167.67575,61.649 165.5195,64.46275 C164.757,65.464 163.997,66.434 163.17325,67.3715 C161.56825,67.61275 159.902,67.72775 158.20325,67.71525 C140.00325,67.59275 125.32575,52.719 125.4495,34.4865 C125.572,16.254 140.4445,1.61025 158.647,1.73275 C169.05075,1.80275 178.29325,6.67275 184.3095,14.22775" id="Fill-33"></path>
                                <path d="M59.37175,34.04475 C59.24925,52.276 44.3755,66.95225 26.17425,66.831 C24.47675,66.81975 22.81175,66.68225 21.2105,66.41975 C20.398,65.47225 19.65175,64.491 18.903,63.481 C16.753,60.636 14.793,57.63725 13.02175,54.54475 C10.59675,50.3785 8.48925,45.996 6.728,41.42475 L6.728,41.3935 C3.298,32.506 1.2555,22.966 0.788,12.99725 C6.9055,5.52475 16.21175,0.77725 26.61675,0.84725 C44.81675,0.9685 59.49425,15.811 59.37175,34.04475" id="Fill-35"></path>
                            </g>
                            <polyline id="Stroke-38" stroke="#F987A5" stroke-width="4.04625" points="207.25625 48.422125 220.59375 207.780875 191.78375 207.588375"></polyline>
                            <path d="M272.123125,132.553 C271.101875,122.72425 243.329375,118.268 237.054375,127.5605 C230.781875,136.85175 273.614375,146.88925 272.123125,132.553" id="Fill-40" fill="#E73348"></path>
                            <path d="M141.26625,131.675375 C142.42125,121.860375 170.25,117.779125 176.39875,127.154125 C182.54625,136.529125 139.58375,145.990375 141.26625,131.675375" id="Fill-42" fill="#E73348"></path>
                            <path d="M193.019125,50.13975 C171.564125,86.9385 157.132875,68.37725 142.824125,84.32475 C133.257875,94.98725 140.971625,108.02975 124.581625,127.14475 C110.382875,143.701 114.580375,165.6635 114.580375,165.6635 L108.931625,157.84475 L109.314125,100.846 L151.439125,34.771 L193.079125,41.0835 L193.019125,50.13975 Z" id="Fill-44" fill="#E73348"></path>
                            <g id="Group-48" transform="translate(181.000000, 0.011250)">
                                <mask id="mask-22" fill="white">
                                    <use xlink:href="#path-21"></use>
                                </mask>
                                <g id="Clip-47"></g>
                                <path d="M252.0545,256.857 L149.16575,256.167 C149.16575,256.167 164.05825,238.94575 138.39575,216.83075 C107.6695,190.37325 161.1845,156.3095 112.32325,129.3545 C76.05325,109.30575 91.967,94.32325 70.29825,76.9495 C54.06825,63.952 33.2145,84.5295 7.08825,56.5645 C5.247,54.57075 3.3445,52.32575 1.412,49.7995 C1.0395,49.292 0.63325,48.75575 0.22825,48.2195 L4.43575,39.5695 C4.43575,39.5395 4.46825,39.47575 4.4995,39.4445 L9.82325,28.44575 L12.02325,23.902 C40.52825,-7.84675 80.5045,-10.56425 110.732,33.7445 C140.992,78.05325 185.527,56.15575 179.66075,106.07075 C173.76075,156.01575 245.00825,130.93575 230.25325,179.69075 C215.4645,228.47575 257.7745,214.89575 252.0545,256.857" id="Fill-46" fill="#E73348" mask="url(#mask-22)"></path>
                            </g>
                            <path d="M109.018875,194.540375 C107.906375,190.571625 103.976375,180.087875 93.578875,180.617875 C91.055125,180.829125 88.788875,181.785375 86.865125,183.057875 C89.082625,182.446625 91.408875,182.307875 93.451375,182.812875 C95.505125,183.302875 97.137625,184.450375 98.216375,185.939125 C99.216375,187.184125 99.707625,188.850375 100.115125,190.479125 C97.002625,191.594125 95.017625,194.786625 95.555125,198.170375 C96.161375,201.997875 99.753875,204.607875 103.580125,204.000375 C107.406375,203.395375 110.017625,199.801625 109.410125,195.974125 C109.331375,195.472875 109.195125,194.995375 109.018875,194.540375" id="Fill-49" fill="#EF7394"></path>
                            <path d="M107.229375,221.942625 C107.208125,225.078875 104.650625,227.602625 101.515625,227.582625 C98.379375,227.561375 95.854375,225.002625 95.875625,221.866375 C95.896875,218.732625 98.455625,216.206375 101.590625,216.228875 C104.725625,216.248875 107.251875,218.807625 107.229375,221.942625" id="Fill-51" fill="#FFFFFF"></path>
                            <path d="M312.58825,223.319625 C312.567,226.455875 310.00825,228.979625 306.87325,228.959625 C303.73825,228.937125 301.212,226.378375 301.2345,223.243375 C301.25575,220.108375 303.81325,217.583375 306.94825,217.604625 C310.0845,217.625875 312.6095,220.184625 312.58825,223.319625" id="Fill-53" fill="#FFFFFF"></path>
                            <path d="M239.198375,180.933125 C239.198375,170.876875 247.349625,162.725625 257.405875,162.725625 C267.462125,162.725625 275.614625,170.876875 275.614625,180.933125" id="Stroke-55" stroke="#311746" stroke-width="5" stroke-linecap="round"></path>
                            <path d="M140.9025,180.933125 C140.9025,170.876875 149.05375,162.725625 159.11,162.725625 C169.165,162.725625 177.3175,170.876875 177.3175,180.933125" id="Stroke-57" stroke="#311746" stroke-width="5" stroke-linecap="round"></path>
                            <path d="M181.228375,224.544 C179.502125,236.81025 193.078375,253.98025 204.030875,253.98025 C225.260875,253.98025 239.903375,220.54025 239.198375,217.604 C210.238375,238.5115 181.267125,224.269 181.228375,224.544" id="Fill-59" fill="#B2475F"></path>
                            <path d="M239.198375,217.60425 C239.213375,217.663 239.220875,217.74175 239.222125,217.838 C239.220875,217.7455 239.213375,217.668 239.198375,217.60425" id="Fill-61" fill="#B2475F"></path>
                            <path d="M235.708375,227.186875 C228.757125,232.824375 222.352125,238.273125 218.409625,242.216875 C220.119625,242.823125 221.750875,243.644375 223.183375,244.770625 C228.644625,239.405625 232.942125,232.646875 235.708375,227.186875" id="Fill-63" fill="#B2475F"></path>
                            <path d="M239.198375,217.60425 C216.793375,233.778 194.394625,228.918 185.378375,226.0155 C185.575875,230.088 185.763375,232.8405 185.763375,232.8405 C185.802125,232.56675 214.627125,245.478 239.198375,217.60425" id="Fill-65" fill="#FFFFFF"></path>
                            <path d="M223.184,244.771 C220.80525,242.901 217.889,241.85975 214.954,241.2785 C207.4365,239.7935 199.2765,241.20225 192.83525,245.78725 C192.17775,246.25475 191.54275,246.761 190.93025,247.29725 C194.9715,251.29475 199.704,253.97975 204.0315,253.97975 C211.3065,253.97975 217.80775,250.05225 223.184,244.771" id="Fill-67" fill="#FF4B7C"></path>
                        </g>
                    </g>
                </g>
                <path d="M925.398437,27.5678604 C925.398437,33.0905389 920.921392,37.5683594 915.397439,37.5683594 C909.875483,37.5683594 905.398437,33.0905389 905.398437,27.5678604 C905.398437,22.0461798 909.875483,17.5683594 915.397439,17.5683594 C920.921392,17.5683594 925.398437,22.0461798 925.398437,27.5678604 Z" id="Stroke-1-Copy-4" stroke="#FF9DB4" stroke-width="5.284" mask="url(#mask-2)"></path>
                <path d="M180.398437,189.56786 C180.398437,195.090539 175.921392,199.568359 170.397439,199.568359 C164.875483,199.568359 160.398437,195.090539 160.398437,189.56786 C160.398437,184.04618 164.875483,179.568359 170.397439,179.568359 C175.921392,179.568359 180.398437,184.04618 180.398437,189.56786 Z" id="Stroke-1-Copy" stroke="#E73348" stroke-width="5.284" mask="url(#mask-2)"></path>
            </g>
        </g>
    </g>
</svg>